<svg xmlns="http://www.w3.org/2000/svg" width="1000" height="1000" viewBox="0 0 1000 1000"><path clip-rule="evenodd" stroke="#f00" stroke-miterlimit="10" d="M332.4 110.3h33.1v2.1c27.4-.5 39.8 14 54.8 31.5 9.3 10.3 19.6 21.7 25.3 31 29.5 47.6 28.4 130.3 39.3 189.8 83.8 20.7 191.9-2.1 289.6-7.7 40.9-2.1 83.8-6.7 115.9-3.6 9.8 1 61 24.3 56.4-9.9-3.1-29.5-60.5-2.6-68.3-27.4 18.6-21.7 62.1-23.8 87.9-7.7 8.8 19.1 30 50.2 13.9 82.2-6.7 13-35.7 19.1-39.3 33.1-5.2 18.6 6.2 74 7.7 97.8 4.2 51.7 2.6 103.4 39.3 117.4v8.2c-12.4 51.2 10.4 108.1-2.1 156.2-6.7 27.4-41.4 34.1-52.8 54.8-17.1-2.6-40.4 0-56.9-3.6-2.1-14 6.2-17.6 4.1-31.5-19.6 1-20.7 20.1-31.5 29.5-4.7-5.2-25.3.5-27.4-2.1 4.7-10.3 13.4-16.6 13.9-31-24.3 2.6-33.1 20.7-47.1 33.1-7.2-5.2-22.8-2.1-29.5-7.7 3.6-10.9 10.9-18.1 11.9-31.5-19.1 0-32 18.1-51.2 6.2 4.7-32.6 9.8-64.7 9.8-101.9-38.8-8.8-108.6 0-154.6-7.8-15 27.4-15.5 70.4-21.2 107.6-22.3 10.9-44 42.4-72.9 48.7-23.8 5.7-52.3-.6-78.1 2.1 3.1-9.9 7.2-18.6 7.7-31-31.5-.6-25.3 47-56.9 40.9-4.7-22.8 11.4-34.2 6.2-50.7-24.8 16-22.3 58.5-59 62.6h-2.1c-1-6.2 2.6-17.1-1.5-19.7-4.2-2-29.5 1.6-41.4 0-1-7.2 6.2-11.3 2.1-15.5-17.1 9.3-33.6 18.6-60.5 17.6 1.6-6.7 14.5-21.2 5.7-25.3-18.6-3.6-15 15-21.7 23.2-7.8 2.6-14.5 6.2-21.2 9.8-3.6-12.4-16-15-17.6-29.5 9.8-17.6 13.4-40.9 19.1-62.6-66.3-.7-142.9 10.2-150.1-50.8-8.3-65.7 29-146.4 54.8-199.7 10.3-21.2 26.4-45 23.3-61-2.6-12.9-20.2-17.1-25.3-35.2-7.2-25.3 5.2-49.6-7.8-68.2-15-4.7-35.2-4.7-33.1-25.9 7.7-9.8 17.6-18.1 38.8-15.5 9.3-5.7 17.1-13 25.9-19.7 22.2-57.9 36.2-119.5 80.2-154.6 41.3-32.7 97.6-36.3 164.4-47.1m511 607.2c-6.2 15.5-9.3 43.4-2.1 60.5 33.1 16.1 87.9 57.4 115.3 11.9 3.1-34.7 12.4-71.9 11.9-104-.5-30-15.5-28.4-27.4-47-10.4-15-3.6-26.4-13.5-40.9-12.4 6.2-16.6 19.6-25.8 29.5-21.7 22.8-50.2 39.8-78.1 56.4-23.3-1.6-40.9-9.8-62.6-13.5-1 27.9 35.2 36.7 60.5 35.2 37.7-2.1 65.2-25.4 82.2-35.2-10.8 24.8-31.4 40.4-60.4 47.1m-697.2-411.2c19.6-3.6 15.5-22.2 19.6-35.2 5.7-17.1 16.6-37.8 27.4-51.2 14.5-18.1 35.7-27.9 49.1-46.6-58.4 8.8-102.3 59.5-96.1 133m-11.9-54.8c18.6-3.6 22.2-25.4 31.5-37.3 10.4-13.4 27.4-21.7 31.5-39.3-37.2 0-71.3 37.3-63 76.6m74.5-39.3c-17.6 17.1-35.2 41.4-33.1 68.8 24.3-8.8 46-8.3 68.3 1.6 14.5-31 28.5-63.1 31.6-105.5-28.6.9-50.8 20-66.8 35.1m141.2 15.5c13.9-5.2 12.4-38.8 0-45-8.8 8.3-12.5 38.2 0 45m-68.8-33.2c-15.5 53.3-23.8 104.5-45 151-9.8 21.7-18.6 45-29 66.2-9.9 19.1-34.7 42.9-19.7 66.7 17.6-18.1 29.5-43.4 42.9-68.8 12.4-22.7 28.5-51.7 35.2-78.1 11.4-45.5 11.4-92.6 23.3-141.2l-3.6-1.6-4.1 5.8m88.4 39.4c19.1-3.6 30-15.5 35.2-33.6-14.5-5.8-40.9 7.2-35.2 33.6m-64.6-11.9c2.1 8.8 15 10.8 21.2 19.6l9.8-4.2c6.7-31-40.4-52.2-31-15.4m-11.9 49.1c16.1 1.6 38.8-6.7 42.9-23.8l-3.6-3.6c-19.2 3.1-37.3 6.7-39.3 27.4m50.7 38.8c16-4.7 25.8-52.2 4.1-58.4-8.8 14.9-22.2 43.9-4.1 58.4m29.4-56.4c-1 21.7 24.8 38.8 37.2 23.3 1.6-12.4-16.5-32.6-37.2-23.3m-246.7 35.2c-3.6 8.3-17.1 6.2-15.5 19.6 22.8 7.7 41.9-47.1 13.4-54.8h-3.6c-1.5 15 3.6 23.3 5.7 35.2m113.8 13.4c-4.7-20.1-38.8-30-59-13.4v7.7c17.6-.5 52.3 3.1 41.4 31.5-8.3 10.3-32.1 5.2-43.5 13.5 21.8 31.1 68.3-6.1 61.1-39.3m205.4 6.3v5.7c-4.7 40.9 3.6 93.6 0 139.1-5.2 73-14 146.4-33.1 205.4-5.7 18.1-22.2 36.2-14 54.8 11.4-2.6 10.4-17.1 19.7-21.2 29.5-80.1 53.3-190.9 53.3-297.9-.5-32.1-2.6-73.5-21.7-85.9h-4.2m-295.4 23.3c-29-4.7-64.1-.6-80.7 13.9 9.3 17.6 7.7 53.8 6.2 85.9 10.9 25.8 41.4 31.5 80.2 29.5 27.9-24.9 52.2-53.3 64.7-94.2-34.2-1-60.6-9.8-70.4-35.1m162.4 64.6c7.7 9.8 19.1 3.1 25.3-4.2-1.5-5.2-2.1-11.9-3.6-17.6-7.8 1.1-9.8-3.1-18.1-1.5l-3.6 23.3m72.4 4.1c3.1-36.7-52.8-5.2-19.6 17.6 9.3-5.2 18.6-8.3 19.6-17.6m-109.6 21.2c8.8 8.8 16.5 6.7 29.5 2.1 4.2-12.9-7.7-24.3-25.3-21.7-1.1 7.2-4.7 11.4-4.2 19.6m583.4 14c0 25.4 1 58.4 9.8 74.5 11.9-23.3 15-92.6-5.7-108.1-2.5 9.3-4.1 21.2-4.1 33.6m-29.5 80.1c20.2-26.4 9.3-79.6 2.1-111.7h-5.7c1 36.8-5.2 82.3 3.6 111.7m-144.8 9.9c17.6-6.7 9.3-34.2 7.8-52.8-1-22.2-.5-44.5-7.8-56.9l-5.7-2.1c-3.1 34.2-1.5 80.8 5.7 111.8m72.4 0c24.8-14.5 13.4-81.2 7.7-107.6h-5.7c-5.1 29.5-10.2 77.1-2 107.6m154.7-23.8c11.4-19.7 3.1-66.2-3.6-81.8l-4.2-2c-3.1 25.9-5.2 67.8 7.8 83.8m-350.2-74.5c-4.1 24.4-19.1 92.1 0 111.7 11.4-17.6 4.7-48.1 5.7-74 .5-16 3.6-27.9 2.1-41.4l-6.2-2.1-1.6 5.8m239 90.5c11.4-22.2 5.2-70.3 1.5-96.2h-5.7c-1.5 30.1-13.9 75.6 4.2 96.2m-160.9-88.4v54.8c0 18.6-3.6 41.9 5.7 47.1 11.9-2.6 7.8-19.6 8.3-31 .5-27.9 0-61.6-8.3-76.6h-5.7v5.7m-39.3 106c14-2.6 14-22.3 14-35.2 0-22.8-4.7-52.8-7.8-70.9l-4.1-3.6c-4.7 32.6-.6 73.5-2.1 109.7m125.7-21.7c6.2-23.3-2.1-61.1-4.2-87.9h-5.7c-2 26.9-4.6 70.8 9.9 87.9m-221.4 35.2c20.7-9.3 25.9-48.1 27.4-78.1.5-14.5 5.2-37.3-7.8-43.5-16.5 29.5-20.6 81.8-19.6 121.6m-139.1-92.1c21.2 3.1 26.9-16.6 13.9-27.4-20.1-2.6-23.2 16.5-13.9 27.4m-52.8 6.2c11.4-24.8-34.7-31-27.4 0l5.7 5.7c9.3 0 15.5-2.6 21.7-5.7m35.2 9.8c2.1-24.8-39.3-10.3-21.7 13.5 10.3-3.1 21.2-5.2 21.7-13.5m-176.4 19.1c-42.9 46.6-81.2 176.4-35.2 241.1 7.2 10.3 21.7 29 35.2 23.8 7.7-19.6-13.4-29.5-21.2-43.4-37.2-64.7 10.9-164 27.4-219.3l-6.2-2.2m-76 18.2c-20.2 22.2-34.7 60.5-49.1 99.8-17.6 47.6-49.1 132.4 2.1 154.6 4.7-20.7-10.4-25.3-11.9-43.4-2.1-21.7 4.1-49.1 9.8-68.2 14.5-49.7 48.1-94.7 56.9-141.2l-2.1-3.6-5.7 2m160.3 15.5c-4.1 12.4 7.8 24.8 11.9 35.1 36.2-8.2 22.8-44.4-11.9-35.1m-62.6 37.2c10.9 3.6 26.4 6.2 37.2 3.6 4.1-6.7 1-21.2 2.1-31-20.1-5.7-42.9 2.6-39.3 27.4m66.8 33.1c4.6-14 3.6-52.8-17.6-52.8-1.1 24.4-.5 47.7 17.6 52.8m82.2-42.9c-20.2-25.9-33.6 9.8-31.5 35.2 12.9-.6 24.8-1.6 31.5-7.8v-27.4m-64.7 50.7c20.7-4.7 33.1-28 27.4-52.8-20.6 6.3-25.8 28-27.4 52.8m467.6-31c-8.8 53.3 26.4 96.2 76.6 94.1 50.7-2.6 93.6-50.7 94.1-106-50.2-7.3-112.2 5.1-170.7 11.9m-489.3 42.9c-7.7-24.8-22.8-42.4-54.8-42.9 3.1 27.4 29 51.2 54.8 42.9m415.4-33.1c-34.1 2.1-81.7-14-98.3 11.4-13.4 21.7 2.6 40.9 0 72.9 9.3 0 8.8-8.8 16-10.3-.5 7.7 1.6 13 5.7 16.1 11.9-1.6 7.2-19.1 17.6-21.7 1 8.8 0 19.6 7.7 21.7 9.8-2.6 7.8-15.5 16.1-19.6-.5 9.3 1.5 16.6 9.3 17.6 3.1-4.7 3.1-12.9 9.8-14-1 7.2 4.7 7.7 4.1 14 9.8 1 8.8-9.3 13.4-14 1 7.7 3.1 14.5 6.2 19.6 8.3 1.6 7.7-5.2 11.4-7.7 3.1 3.1 1 11.4 8.3 9.8 6.2-.5 2.6-10.3 9.8-9.8l1.5 14c40.9-9.3 11.9-62.6 14-99.8-12.8-15.2-38.2-1.2-52.6-.2m-201.7 1.5c-9.3 19.1-16.6 42.9-25.4 70.9-7.7 23.7-24.8 53.3-19.6 76 4.7 23.8 32.1 26.9 50.7 16.1 10.4-6.2 25.9-24.8 37.2-41.4 21.7-31.5 47.1-67.2 31.6-119.5-32.7-4.6-46.1 3.6-74.5-2.1m-278.3 8.3c-22.2.6-31 37.8-9.8 50.7 14.5-7.8 32.1-12.5 42.9-23.8-9.3-10.9-16.1-27.9-33.1-26.9m96.2 31c26.4 4.2 56.4-4.7 62.6-27.4-31.6-1.5-58 2.6-62.6 27.4m47 4.2c10.9 11.4 26.9 21.7 40.9 9.8 9.3-50.2-34.1-37.2-40.9-9.8m-146.9 23.3v9.8c32.1-1.1 64.7-1.6 70.4-29.5-33.6-3.6-54.8 5.7-70.4 19.7m-125.6 5.6c13.4 2.6 32.1-5.2 33.6-21.2-16-5.1-31.6 6.3-33.6 21.2m235.3-19.1l1.5 7.7c16.6 2.1 41.4 26.4 51.2 5.7-8.2-11.3-36.1-23.2-52.7-13.4m5.7 68.3c10.9-24.3-4.6-53.8-23.3-60.6-4.6 24.9 9.3 48.2 23.3 60.6m-64.7 9.8c19.1-10.4 29.5-29.5 27.4-60.5-21.7-1.5-41.9 37.7-27.4 60.5m76.6-50.6c-5.7 15 .5 34.1 9.8 40.9h21.2c8.8-7.8 14.5-18.1 11.9-37.3-11.9-2.6-33.1-5.7-42.9-3.6m-258.6 33c15-4.7 38.3-1 39.3-19.6-11.4-10.9-41.9-1.6-39.3 19.6m166.5 19.7c6.2-8.8 5.7-34.7 5.7-43.4-11.4.5-18.6-3.1-31-1.6-15 23.3 13.9 41.9 25.3 45m48.6-27.4c-35.2 23.8 12.9 64.7 33.6 31-11.8-9.3-20.1-22.7-33.6-31m191.9 85.8c-19.1 1.6-38.8-23.3-54.8-21.2-10.9 1.6-20.2 18.6-21.2 29.5 34.1 9.3 54.3 32.6 76 54.8 23.8-8.8 47.6-16.6 66.7-29.5 11.4-28.5 22.8-76.6 11.9-113.8-25.8 20.7-44.4 78.2-78.6 80.2m290.2-23.3c10.9 9.3 43.9 11.4 56.4 2.1-.5-12.4-5.7-20.7-9.3-29.5-17.6-2.1-28.5-10.9-47.1-11.9v39.3m-691.5-19.6c11.9 6.2 32.6 18.6 43.4 4.2-3.6-17.6-22.8-19.6-43.4-19.6-1.6 7.7 0 6.6 0 15.4m286 42.9c12.4-5.7 45.5-30.5 19.6-37.2l-4.1 2c-23.3 18.6-69.8 31.6-111.7 27.4-19.1-1.6-39.3-18.1-52.8-3.6 26.9 27.5 105 32.1 149 11.4m-239-11.4v9.8c8.8-4.7 31 1.1 31.6-6.2 5.7-1.1-2.1-4.2 0-7.7-12.4-.5-23.3.5-31.6 4.1m184.2 35.2c-43.9 0-103.4-25.4-105.5 15.5 49.1-5.2 75 8.8 109.7 21.8 13.9-14 35.7-20.2 42.9-41.4-15.1-1.5-29 4.1-47.1 4.1" fill="none"/></svg>