<svg xmlns="http://www.w3.org/2000/svg" width="1000" height="1000" viewBox="0 0 1000 1000"><path clip-rule="evenodd" stroke="#f00" stroke-miterlimit="10" d="M580.1 132.1h4.2c5.6 5.1 23.2-2.3 21.3 10.2-6 13-18.1 6.5-29.2 15.3-23.7 19-27.4 88.1 11.6 88.6-1.4-28.7.5-54.7 27.8-55.2-5.1 37.1 12.5 55.7 45 49.1 1.4-19-8.8-33.8-6-52.9 4.2-27.8 40.4-48.3 57.1-23.7-24.1 1.9-42.7 42.2-15.8 55.2 11.6-1.9 7.4-19 17.6-21.8 13.9 7 16.2 24.6 27.8 33.4 23.2 1.4 38.5-5.6 57.1 0 16.7 5.1 23.7 21.3 35.3 27.8l25.5 5.6c34.3 17.6 43.1 55.6 41.3 102.5 10.2 6.5 19.5 7 27.8 13.5 18.1 15.3 15.8 44 37.1 55.2 26.9-45.5-47.8-75.6-15.8-106.2v25.5c32 26.4 43.1 84 39.4 139.6-20 5.1-21.8-7.9-37.6-7.9-8.4 15.3 9.3 25.5 10.2 39.4.5 17.7-13 30.7-23.7 43.1-9.3-.5-16.7 1-23.7 2.4-11.1 42.2-62.6 43.1-98.3 60.8 6.9-11.1 14.8-21.8 17.6-37.1-26.4 8.8-51 25.5-82.6 33.4-7.4 1-8.8 16.3-15.8 11.6-7.4-11.1-1.4-29.6 0-43.1-8.8 0-19 1-25.5-1.8 3.7 27.3-13.9 49.6-1.9 72.3 59.4-7.4 59.4 44.5 62.6 92.8 18.1-1.4 30.6-7.4 41.3-15.8 1.9-19.9 5.1-38.5 6-58.9 20-1.9 30.2-13 35.7-29.7 31.5 6.9 34.3-14.8 52.9-21.8 16.2 9.3 30.6 29.7 33.4 45.5-8.4-2.8-19.9-2.8-29.7-4.2-11.1 8.8-6.9 23.2-9.7 35.7-5.6 24.6-19 50.1-21.3 76.5-27.4 15.3-77 37.1-51.5 80.7h-3.7c-7.4-9.3-30.6-5.6-23.7-23.7-9.7-2.8-1.4 13.4-11.6 9.7-9.7-24.1 30.6-30.2 29.2-58.9-34.8-.5-50.6 17.6-72.8 29.7-13.5-15.8-21.8-37.6-45-43.6-6 13-11.6 25.1-25.5 29.7-13.9 4.2-29.7-1.4-45.5 1.9-15.3 3.3-22.7 12.1-35.3 12.1-7.4-.5-15.3-4.7-23.7-4.2-16.2.9-31.1 10.7-49.2 7.9-13.4-1.8-24.1-10.7-35.3-9.7-28.8 2.3-36.2 25.5-72.8 15.8-6-1.9-9.7-6.9-17.6-7.9-12.5-1.4-26 6-41.3 3.7-8.8-.9-16.7-9.3-26-9.7-14.8-1-28.3 7.4-43.1 4.2-13.9-3.3-34.3-22.3-60.8-12.1-12.5-5.6-10.2-19.9-17.6-31.6-8.8-12.5-31.1-18.5-27.8-45-15.3-8.3-30.6-9.7-41.3-21.8-12.1-13.9-6-36.2-21.3-49.2-26.9 9.8-3.2 39.9 3.7 55.2-7.9 7.9-23.2 18.6-15.8 35.2-9.7 2.4-12.1 11.6-21.8 13.9-24.1-12.5-51.9 0-68.7-19.5 17.2 1.9 26.9-3.7 35.3-10.2 6.5-19.9-5.6-42.2-3.7-62.6.5-6.5 6-12.5 7.9-21.8 4.6-24.6 0-38.1 25.5-45 .9-18.6 10.7-27.8 19.5-37.6-1.4-5.1-6.9-16.7-3.7-19.5 20.4-1.9 27.4 10.2 33.4 23.7-11.6 15.3-27.8 27.4-27.4 54.8 21.3 1.9 26.9-29.2 46.9-35.3 10.2 3.7 7.4 20 23.7 17.7-7-24.2 8.8-37.6 9.7-53.4 1.4-13.4-7.9-25.5-5.6-39 1.4-8.4 9.3-13 11.6-21.8 4.2-14.8 0-28.3 1.8-45-13.9-4.2-33.9-6-52.9-8.4-17.6-1.4-41.3 2.8-43.1-13.5 40.3-6.5 99.7 14.8 135.5 0-37.6-27.8-143.8 13-161-35.2 40.8.9 95.1 2.3 133.6 3.7 10.6.5 27.4 7.9 29.7-7.9-26.9-11.6-78.9-9.8-124.3-9.8-30.6 0-64.9 7.5-64.9-19.5 63.6-1.8 141.5 2.3 194.8-2.3-1.8-20.8-26.9-15.8-45-15.8-54.3 0-119.2-2.8-169.3-1.9-.5-6.9-10.2-11.6-6-17.6 50.1 1.9 105.8-4.6 153.6-3.7 13.9 0 29.7 8.4 41.3 0 .5-10.2-13-6.9-15.8-13.9-60.3-2.3-131.3 5.5-182.8-6 1.4-6.5-2.8-18.1 1.8-21.8 37.1 2.8 87.2 4.2 128.1 6 13.9.9 35.7 10.6 41.3-7.9-19.5-15.3-76.1-10.2-116-13.4-11.8-1.1-52.2 2.1-56.8-9.9v-5.6c54.3-7.9 136.8 4.2 184.6 0 .5-14.3-20.4-12.5-31.5-13.9-33.4-4.2-87.7-3.7-117.8-7.9 21.3-16.2 67.3-9.7 104.4-7.9 26.9 1.4 52.9 2.4 74.7 7.9 2.8 7.9 4.2 18.1 9.7 23.7 14.4-12.1 21.8 3.3 41.3 1.9 5.1-19.5.5-45.9-1.9-64.9-39.9-19-109.9-18.6-159.6-25.5 41.3-27.8 117.4-5.6 171.2 0 2.8 10.7 5.1 20.9 9.7 29.7 6 4.2 20 0 26 3.7 2.8 21.8 21.3 28.3 35.3 39.5-7.9 44.5 33.4 49.6 15.8 92.3 10.7 7.4 21.3 26.4 37.1 27.8 13.9.9 17.6-9.3 31.5-13.9 21.8 20 44.1 0 58.9-13.9 33.4 8.4 69.1-9.8 98.3-17.6-11.6-28.8-52.4-28.3-66.8-55.2-4.6-33.9-13-76.1 6-100.2 11.2-14.1 28.4-13.2 43.2-23.9m-281.1 137.8c13.9-4.6 13.9-46.4 1.9-52.9-9.3 6.1-8.4 43.6-1.9 52.9m31.5 53.3c10.2-19.5 9.3-49.2 1.9-69.1h-4.2c1.4 21.8-15.3 54.7 2.3 69.1m-29.6 143.4c20.4-55.7 28.3-188.8-37.1-193 48.7 32.9 47.3 147.5 19.5 202.7 7.4-1.8 10.2-7.8 17.6-9.7m529.3-188.8c-18.1-7.9-17.6 8.8-26 15.8-24.6 9.8-59.9-26.9-76.6 0 11.1 7.9 29.2 8.8 33.4 23.7-4.2 12.5-27.4 6.5-37.1 13.5 27.4 32.5 65.9.5 90.5-1.9 30.2-2.8 42.2 15.8 58.9 35.7 9.7-4.2 16.7-10.7 19.5-21.8-14.4-7.9-2.3-42.2-17.6-49.2-12.1-2.3-5.6 14.4-17.6 11.6-14.4-4.2-23.7-13-27.4-27.4m-598 27.4c12.5.5 16.7-16.7 13.4-25.5-14.8-2.8-19.4 13.8-13.4 25.5m108.1 45.4c24.6 2.3 23.2-39.9 11.6-51-6 14.4-3.3 38-11.6 51m320.6 15.8c-14.8-6-37.6-30.6-17.6-47.3 9.7-6 28.7-2.3 35.2-11.6-65-38.1-79.8 81.6-17.6 58.9m-397.1-33.4c8.8-2.8 16.7-7 23.2-12.1l-1.9-9.7c-13-9.8-27.4 5.1-21.3 21.8m385.5-2.3c-1.4 20.8 13 30.6 31.1 26 1.4-11.6-9.7-11.1-11.6-20 7-.9 9.3-6.5 17.6-6-2.8-21.9-28.8-6.5-37.1 0m-88.6 6c13.9 4.2 25 11.6 43.1 12.1 4.6-3.2 5.6-16.7 1.9-21.8-13.9-3.3-42.3-4.7-45 9.7m285.3 1.8c-63.1-24.1-75.2 63.1-29.7 69.1 8.4 1 24.6-2.3 29.7-9.7-11.6-10.2-35.7-12.5-29.7-33.4 1.4-4.6 10.2-12.5 19.5-12 11.6.9 5.6 10.7 20 12 2.2-14.3-5.2-18.5-9.8-26m-277.5 15.8c18.6 7.4 40.4 35.2 60.8 21.8-2.3-15.3-39.4-32.4-60.8-21.8m-301 20c8.8-.5 19.9 1.4 23.7-4.2 2.3-19.9-29.8-17.2-23.7 4.2m94.6-14c-10.7 37.6-49.2 46.4-43.6 100.2-5.1 7.9-8.8 17.2-7.9 31.6-8.4-.5-10.7 5.1-19.5 4.2-7.9 11.1-1.4 24.1 1.9 35.2-4.7 6.5-14.4 7.5-19.5 13.9-1.8 7.9-2.3 17.2-2.3 27.3 3.7 7.5 12.5 10.2 18.1 15.8-15.8 4.2-20 20.8-18.1 43.1 6.5 4.2 15.8 5.5 20 12-13.9 3.3-20.4 25.1-12.1 39 8.8 6 25.5-1.9 29.7 0-4.6 14.8.9 25.5 7.9 33.8 20.4 2.3 27.8-7.9 39.4-13.9 1.9 25.1 41.8 19 55.2 7.9 14.4 15.3 53.3 5.5 64.5-6 11.1 19.5 48.2 11.6 59.4-1.9 4.2 7.9 19 5.5 31.1 5.5 19.9-9.3 26.9-52.9 10.2-70.5h-33.4c-9.7-20.4-43.1-13.9-57.1-1.9-10.2-16.7-36.2-14.9-51-4.2-4.2-6.5-8.8-12.5-13.9-17.6h-23.7c11.6-20.9 3.2-45-15.8-51 13.9-12.5 23.7-52.9 1.9-63.1-33.4 0-30.6 36.2-33.4 66.8h-15.8c2.8-6 7.9-9.3 6-19.5-5.1-20-12.1-35.7-6-57.1 2.8-9.8 15.3-14.4 15.8-23.7 1.4-16.3-17.2-26-9.7-43.1 8.3-6 22.2-6 29.7-7.9 4.2-14.4 12.5-47.3-4.2-55.2h-3.8m78.4 35.6c22.3-4.2 48.7-18.6 80.7-21.3 10.7-.9 25.5 3.7 33.4-6-40.3-8.4-99.2-2.8-114.1 27.3m391.6-13.4c7.9-.5 11.6-5.6 11.6-13.9-9.8-1.5-16.7 6.9-11.6 13.9m-100.3 57c25.5-41.7-37.1-72.4-66.8-51.5-28.3 19.5-39.9 100.2 0 114.1-6.9-27.8-20.9-96 19.5-102 19.5-2.8 41.8 14.8 21.8 35.2-5.1-1.9-15.3-3.7-19.9 0 1.8 28.3 38 15.3 45.4 4.2m181-45.4l7.9-1.9c-.5-9.3-7.9-12-17.6-12-1 8.8 3.2 12.5 9.7 13.9m-367.9 17.6c9.3 3.7 20.4-2.8 35.3-3.7 22.3-1.8 52.4 7 63.1-7.9-23.3-22.8-84.5-10.7-98.4 11.6m334.5 12.1c.5-12.1 11.1-17.2 7.9-27.8-20.9-5.2-31.6 27.8-7.9 27.8m-615.6 0c8.8-1 21.3 1.9 27.4-1.9 0-8.8-2.3-15.3-6-19.9-13.5.9-23.8 5-21.4 21.8m668.5 17.6c11.1-3.2 9.3-26.9 4.2-35.7-16.8 2.8-30.2 33.8-4.2 35.7m-39.5-25.5c-1.4 12.5 1.9 20.9 10.2 23.7 8.9-10.3 3.7-46-10.2-23.7m-318.2 3.7c16.2 7.9 36.6 23.2 57.1 15.8l1.9-6c-2.9-20.5-46.5-22.4-59-9.8m-112.3 13.9c7 5.6 11.6 9.3 23.7 6 1.8-17.6-26.5-37.1-23.7-6m-29.7 137.8c23.2-4.7 9.3-29.2 6-45.5-6.9-31.5-8.8-67.7-7.9-103.9l-4.2-4.2c-20.3 39.4-5.5 115.1 6.1 153.6m344.2-90.5c14.8 10.7 23.2 31.6 49.2 25.5-5.1-19-26-26-23.7-47.3 1.4-12 11.6-13.9 13.9-27.3-27.8-13.5-46.8 19.9-39.4 49.1m-282.9-27.8c3.2 14.4 2.3 39 0 53.4 18.1 0 27.4 9.3 39 15.8 19.9-7 54.3.5 59.4-21.8-6.9-13.9-39.4-4.6-51.5-7.9 5.1-26.9 34.3-30.2 45.5-51-21.9-17.7-82.7-13.1-92.4 11.5m-114.2 31.5c17.6-.9 19-43.6 3.7-49.2-4.6 13.5-4.6 34.4-3.7 49.2m444.5-7.9c20.9 13.5 58.5 9.8 80.7 21.8 7-9.3 13.9-19 17.6-31.6-17.6-18-110.4-51.8-98.3 9.8m-576.2-13.4c8.3-1.4 12.5 1.4 15.8 5.6l7.4-3.7c1.4-7.4-.5-12.5-3.7-15.8-11.2 0-21.4.9-19.5 13.9m326.6 9.7c18.1-4.2 44.1-.5 52.9-13.9-9.8-22.3-48.3-.5-52.9 13.9m-120.2 21.4c9.3 2.3 21.8-4.2 23.7-15.8-6.5-3.7-15.8-4.2-25.5-3.7-3.3 6.5-.5 13.4 1.8 19.5m131.8-11.6c7 14.4 39.9 20 47.3 1.9l-1.9-9.7c-16.2 1.3-40.3-4.8-45.4 7.8m-367.9 17.6c11.1-7.4 9.3 7 19.5 6 5.1-8.8-5.6-8.8-3.7-19.9-11.2-1.4-17.7 2.3-15.8 13.9m31.5-13.9c-15.3 29.7-14.4 102-12.1 161.4 2.3 48.7-4.2 84.4 27.8 94.6-10.2-44-20.9-107.6-15.8-171.1 2.3-27.4 1.4-62.7 6-84.9h-5.9m678.7 18.1c7-1.8 13-4.2 11.6-13.9-11.6-2.4-16.2 5.5-11.6 13.9m-310.8-4.2c-15.3 3.3-34.3 24.2-33.4 33.4 13.9-5.6 44.5-12.1 62.6-19.5.9-5.1-3.2-4.6-1.9-9.8-7.8-5.5-18.9-5.9-27.3-4.1m125.7 11.6c-24.1.9-36.6.5-60.8 0 1.9 20.9 58.5 19.9 60.8 0m-279.2 18.1c-5.6 15.3 7.9 21.3 23.7 17.7 3.7-4.7 4.6-12.5 3.7-21.8-8.9-5.2-18.6 9.7-27.4 4.1m122 21.3c30.2-13.4 86.8 4.2 112.3-17.6-31.6-21.3-95.6-6-112.3 17.6m179 6.1c34.3 6.9 62.6-12.1 90.5-11.6 23.2 0 46.8 23.2 68.6 7.9-13.4-9.3-29.2-18.1-45-21.8-33.9-7.4-65.4 13-92.8 9.8-14.4-1.4-19.5-11.6-31.1-15.8-6.8 13.4 2.4 25.9 9.8 31.5m-556.6-6.1c4.6 3.7 12.5-1.9 21.8 0 3.7-22.2-25.6-22.2-21.8 0m520.9-15.7c-11.6 15.3-52.4 10.2-52.9 29.7 21.3 2.8 47.8-6 64.9-13.9 0-5.5-.9-12.5 1.9-15.8h-13.9m-204.5 2.3c-1.9 10.2-10.7 23.2-3.7 31.1 8.8.5 13.9-3.2 19.5-5.5-.1-14-.5-27-15.8-25.6m230.5 13.4c-19 7.9-40.8 13.4-55.2 26 19.5 9.8 51 .5 60.8-12-.5-6.1-3.3-9.8-5.6-14m92.3 4.2c-4.2 8.8 3.7 29.7-1.9 41.3 18.1-2.3 25.5-14.8 25.5-35.7-5.5-3.3-14.8-11.6-23.6-5.6m-245.9 25.5c21.3 3.3 27.8-8.8 31.6-23.7-20-8.8-29.2 8.4-31.6 23.7m200.5-13.9c-2.8 18.1-24.1 17.6-29.2 33.4 13.4-1.9 37.1-11.1 37.1-33.4h-7.9m-52.9 37.6c17.6-6.5 32-16.3 41.3-31.6-14.4 1.4-44.1 13-41.3 31.6m-291.4-25.5l-3.7 1.9-1.9 3.7c30.2 16.7 85.4 13.9 122 19.9 11.6 1.9 26.9 11.1 31.1-4.2-40.8-19.5-97.8-12.5-147.5-21.3m-245.8 25.5c5.6 0 11.6 1 13.9-1.9l-4.2-15.8h-9.7v17.7m403.6 13.4c-6 41.8-11.1 94.2-13.9 132.2 19.5-11.1 23.7-51 25.5-83.1.9-16.2 3.7-38-6-49.2h-5.6m29.2 12.2c-17.2 31.1 42.7 23.2 29.7-4.2-11.6 0-16.7 6.1-29.7 4.2m-444.4 9.7c-4.2 5.1-6 12.1-6 21.8 11.1-.5 19-3.7 25.5-7.9l-1.9-15.8c-7.4-.9-9.7 3.8-17.6 1.9m-25.5 65c5.1-14.4-11.2-22.8-9.7-39.5-31.2 4.2-8 38.1 9.7 39.5m19.4 6c11.6-1.9 18.1-8.4 21.8-17.7-11.1-12.5-31 2.4-21.8 17.7m450.5 7.9h17.6c4.2-4.2 12.5-15.3 6-23.7-6 3.7-17.2-4.2-25.5-4.2-3.2 11.2-4.6 20 1.9 27.9m218.5-1.9c3.7 3.3 3.2-1.4 9.7 0 .9-5.1 9.3-21.3 0-23.7-3.7 7.5-9.7 12.6-9.7 23.7m-765.5 3.8c-1.4-10.2 0-23.2-9.7-25.5.5 11.6-2.3 25.9 9.7 25.5m-31 29.7c8.8 0 10.2-6.9 15.3-10.2 0-13.4-4.6-22.2-5.6-35.2h-6c-.5 14.7-6.1 33.7-3.7 45.4m656.9-18.2c3.7 3.7 13 1.4 19.5 2.4 6.9-5.1 8.4-22.8 1.9-29.7-11.7 4.6-23.3 15.3-21.4 27.3m111.8-5.5c13 0 7.4-6.9 7.9-18.1h-5.6c-1 6-7.4 12.1-2.3 18.1m-611.5 41.3c4.6-10.2 15.8-18.6 13.4-29.7-21.3-2.8-30.5 20.9-13.4 29.7m295.1-21.8c-82.6-2.3-161.9 1.4-234.3-3.7l-3.7 1.9v6c95.1 8.8 209.2 16.2 306.6 5.5-17.6-12.5-45.4-8.8-68.6-9.7m102 25.5c2.8 10.7 20.9 12.5 31.6 4.2-2.8-21.8-37.6-29.7-31.6-4.2m222.2 12c10.2-4.1 17.2-12 25.5-18.1-5.5-22.2-37.5-.9-25.5 18.1m-566.4 9.8c7.9-1.9 1.4-18.6 6-23.7-19.4-6.5-19.9 23.7-6 23.7m112.3 5.6l6-1.9c-.9-9.3 3.2-13.5 1.9-23.7-22.8-10.2-26.9 21.9-7.9 25.6m39.4-3.7c6 1.9 7.9 7.9 17.6 6 1.4-9.3 1.4-19.5 3.7-27.8-12.9-6.1-23.2 6.5-21.3 21.8m66.8 7.9c4.2-6.5.9-20 1.9-29.7-22.8-8.9-25.6 31-1.9 29.7m82.6-9.8c8.4.5 7.4 10.7 19.5 7.9 6-10.7-4.6-19.5-5.6-29.7-15.3-3.3-14.8 9.3-13.9 21.8m-238 7.9c2.3-5.6-1.9-18.6-1.9-27.8-22.2-3.3-19.9 32.9 1.9 27.8m187-23.7c-2.3 7.9-3.2 18.1 1.8 23.7h11.6c-.5-9.3-1.4-18.6-3.7-25.5-4.6-1-4.2 3.2-9.7 1.8m-96.5 37.1c6.5.9 3.2-8.4 6-11.6-7-1.4-6 6-6 11.6" fill="none"/></svg>