<svg xmlns="http://www.w3.org/2000/svg" width="1000" height="1000" viewBox="0 0 1000 1000"><path clip-rule="evenodd" stroke="#f00" stroke-miterlimit="10" d="M734.8 112.1h2c17.8 9.9 52.4 11.9 72.7 19.3 25.2 9.9 37.1 34.1 62.8 41.5 8.4 19.3 17.3 35.6 27.7 56.9 9.9 21.2 8.4 43.5 17.3 66.7 9.9 24.2 45.5 46 51.4 68.7 10.4 42-6.4 110.7 2 153.3 2.5 13.4 14.3 24.7 19.3 37.1v4c-4 29.7-14.4 52.4-33.2 67.2-27.7-4.9-54.9-2.9-62.8 17.3-14.4 68.7-8.9 156.2-9.9 237.8-24.7 3.4-51.9 1-78.6 5.9h-94.4c-22.7-7.4-58.9-1.5-82.6-7.9 1-6.4-3-11.9-3.5-19.8-4-31.7 9.9-81.5-11.9-93.9-15.8 8.4 5.4 66.3-13.8 74.7-11.9-19.3 1.5-63.8-19.8-72.7-15.3 18.3 13.4 68.7-11.9 72.7-7.4-21.2-3.4-54.4-15.3-70.7-14.3 13.4-1.4 55.4-6.4 72.2-28.7-3.4-2.5-62.8-25.2-72.2-10.4 16.8-2 52.4-7.9 74.7-25.7-5.5-2.5-59.3-19.7-73.2-29.2-3 10.4 67.7-23.3 67.2-11.4-18.8 4.5-68.2-13.8-76.7-13.3 17.3 0 61.3-13.8 78.6-19.3-7.9 0-69.2-21.7-80.6-15.3 15.3 3.9 54.3-6 76.6-6.4-.5-9.4-3.4-17.3-2-5.5-24.7 0-59.3-11.9-76.6-18.3 30.6-1.4 86.5-5.9 119.6-50.4 0-97.4-3.4-149.3-2-1-35.1-2-76.1-6-105.8-1-9.9-.5-26.2-11.9-27.7-11.9 13.4-4.9 54.4-7.9 70.7-6.4.5-8.4-3.5-15.8-2-1.4-25.2 4.5-57.8-7.4-72.7-21.7 6.9-1 55.4-13.8 70.7-20.8-7.9-1-56.9-17.8-68.7-5.4 17.8-1.4 45.5-5.9 64.8-6 1-6.9-3.4-13.8-2-19.8-133-3-287.2-13.8-424.2-22.3 4.5-34.6 28.2-58.9 25.7-20.8-2.5-35.1-24.7-46.9-41.5-1-6.9 11.9 0 9.9-7.9-9.9-25.2 16.8-22.7 5.9-43 10.9 0 16.4-6 17.3-15.8 11.9 15.8 18.8 40.6 51.4 33.6 35.6-7.9 42.5-57.4 68.7-76.7 36.6-27.7 98.4-33.1 159.2-39.5 60.3-6.4 128.1-13.4 202.2-9.9 12.9-9.9 27.7-15.8 41-27.2 12.4-10.4 22.7-26.2 35.6-33.6 8.4-4.5 23.7-6 35.1-11.9 12.4-6 20.8-15.3 31.7-17.3 19.7-3.7 42.5 4.2 66.6-1.8m-58.8 23.3c9.4 10.8 47.5 7.9 51-6-11.4-6.4-46.6-6.9-51 6m-80.6 33.6c19.3-3.4 50.9-9.9 56.9-33.6-21.7 1.5-49.5 11.9-56.9 33.6m163.2-33.6v5.9c10.9 6 27.2 6.4 37.1 13.8.5-4.5 6.9-3.4 5.9-9.9-3.4-12.8-30.2-12.8-43-9.8m-63.3 15.8c-6.4 31.6 38 28.6 53.4 25.7 3.5-4.9 1-15.8 2-23.8-12.4-6.9-42.6-12.8-55.4-1.9m-76.1 27.7c17.8 13.3 44-5.5 68.2-4 2-10.9-3-15.3-5.4-21.8-26.2-3.9-52.9 7-62.8 25.8m143.3-25.7c-4.9 8.9 1.5 16.3 0 27.7 17.3 6 39.6 21.8 54.9 17.8 4-37.1-26.7-47.5-54.9-45.5m60.9 15.8c7.4 14.9 19.7 24.2 31.1 35.1l7.9-5.5c-1-19.2-23.7-44.4-39-29.6m-251.7 39c8.4 3 23.2-3.4 31.7-7.9l-2-11.4c-17.8-1.4-30.2 3-29.7 19.3m68.7-5.9c14.3 20.3 53.9 3.4 82.6 7.9.5-36.1-68.7-21.2-82.6-7.9m114.2 19.8c24.7 0 48.4 31.7 66.7 13.8-13.4-29.7-46-39.1-82.6-45-1.9 17.9 10 21.3 15.9 31.2m78.6 7.9c15.3 8.4 15.8 31.1 37.1 33.6 2.5-26.7-14.8-49-31.6-63.3h-7.5c-.9 11.4.5 20.3 2 29.7m-277.3 17.8c35.6-1.5 51.4-22.3 78.6-31.7-22.2-21.2-76.6 13.4-78.6 31.7m118.2-27.6c-4.5 31.6-2 68.7 11.4 88.5 15.3.5 28.6 3 45.4 2 8.4-22.7 13.8-59.3 6-86.5-20.3-6-38.6-5.5-62.8-4m212 39.5l6-2c0-14.9-4.5-24.7-7.9-35.6h-7.9c-4.5 13.3 0 32.1 9.8 37.6m-294.6 0c-4.5 24.2 27.7 53.4 43 68.7 14.4-4.5 24.2-12.9 33.6-21.8-5.4-24.7-7.9-52.4-15.8-74.6-25.2 3.9-57.4 7.4-60.8 27.7m169-25.7c-12.8 17.3-14.3 54.3-9.9 82.6 16.3 1.4 29.2 22.7 43 15.8 8.4-4.5 6.4-18.3 9.9-27.7 5.5-15.8 22.7-41 9.9-54.8-16.7-6-34-18.4-52.9-15.9m-259.5 78.6c25.7-9.9 38.1-32.6 51.4-54.9-34.6-.5-50.4 28.2-51.4 54.9m-212.1 21.7c8.4-7.9 2.5-21.7 4-29.7 4.5-22.2 24.2-25.2 31.7-43-47.6-19.2-68.3 52.5-35.7 72.7m542.4-72.6c-7.9 20.8-16.3 50.4-15.8 72.6 26.2-4.4 60.3-69.7 15.8-72.6m-210.7 76.6c1-11.4-39.5-79.1-52.9-72.7-16.3 7.5-32.1 19.8-33.1 49 19.3 16.3 43 39.1 64.8 46.9 10.9-3.4 20.7-12.8 21.2-23.2m-309.9 0c19.3-13.4 23.2-37.6 50.9-39.5 10.4-1 14.9 7.9 25.7 0-22.8-37.1-94.9-6.5-76.6 39.5m-35.7 19.3c-4.9-17.3-28.6-25.2-29.1-45-.5-8.9 8.4-12.3 5.9-21.8-50.9 5-12.9 79.1 23.2 66.8m53.5-9.9c14.3 4.5 24.7-6.4 37.1-7.4 20.3-2.5 30.6 11.4 46.9 11.4 3-39.6-77.1-43.6-84-4m455.3-2c-43-29.7-154.8-26.2-161.2 33.6 26.2-15.3 56.9-41.5 98.4-37.1 24.2 2.5 41.5 17.8 64.8 15.3 1.5-5.9-3.5-5.4-2-11.8m-263-15.3c-12.9 11.4-13.4 35.1-13.8 58.8 18.8 11.4 46 13.8 72.6 17.8 9.4-5.4 13.8-15.3 15.8-27.7-18.8-22.7-41.5-41-74.6-48.9m-43 78.6c17.2-16.8 21.2-46.9 25.2-76.6-27.2 3.9-35.6 47.9-25.2 76.6m-279.4-70.7c-9.9 42.5 33.6 60.8 70.7 50.9-9.4-19.3-46.5-11.4-52.9-33.6-3-5.5-5.5-11.4-7.9-17.3h-9.9m149.3 29.2c1 12.3 16.8 8.4 23.7 11.9 11.9 5.4 20.3 17.3 29.7 23.7 2.5 6 1.5 15.3 9.4 15.3l6-1.5c13.3-43-40.1-66.8-68.8-49.4m534.5 27.7c6 0 6.4-4.9 11.9-6-6-45.4-39.1-12.8-11.9 6m43 45c19.3-19.3 8.9-72.7-19.3-74.7 1.5 22.3 16.3 47.9 19.3 74.7m-52.9-13.9c-.5-13.8-7.9-20.8-9.9-33.2l-7.9-2c-3.9 14.9-1 37.2 17.8 35.2m-496.9-2c6 18.8-1.5 36.1-4 51.4 42.5-2.5 28.2-83-13.8-82.6-1.5 12.5 13.8 18.8 17.8 31.2m381.2-25.2c-5.5 7.4-4 22.2-4 35.1 16.3 20.3 34.1-9.4 43-25.2-5.4-11.4-25.7-6.9-39-9.9m-149.3 3.9c-33.1 32.7 23.8 111.3 51 101.9 1-11.9-12.4-15.8-19.8-23.2-17.8-19.3-22.7-44.5-25.2-78.6h-6m-395 15.3c-.5 19.8 23.2 15.3 31.7 25.7 15.8-8.9 43-16.8 39.1-39.1-21.4 10.4-43.6 18.3-70.8 13.4m294.6-13.4c-16.8 12.9-4 51.9 7.9 60.8 24.2-5.4 55.4-3.5 70.7-17.8-1.5-10.9-3.5-21.2-4-33.6-21.2-6.9-46.9-8.8-74.6-9.4m237.8 35.2c-2.5-11.4-3.4-24.2-5.9-35.1-44-6.5-26.2 60.8 5.9 35.1m-436-2c-10.9 13.4-31.2 17.3-37.6 35.6 34.1 3.5 66.7-26.7 53.4-64.8h-7.9c-1.5 10.9-7.5 17.3-7.9 29.2m583.4-25.2c-2 6.4 5.4 18.8 11.9 23.2 8.9-2.5 5.4-17.3 3.5-25.7-5.5.5-12.5-1-15.4 2.5m-569.6 72.1c34.6 2 48-48.4 27.2-72.2h-4c.5 32.2-12.3 51.5-23.2 72.2m170.6 2c11.4-15.3 6.4-56.3-6-66.7-23.7 2.9-6.4 62.3 6 66.7m288.7-29.2c9.9 12.4 40.5 4 52.9-3.9 3.5-44-59.3-41-52.9 3.9m-76.6-5.9c-1 16.3 7.9 22.3 17.8 27.7 9.4-4.9 10.4-10.9 7.9-23.7-8.4-3-17.3-11.9-25.7-4m143.4 45c18.3-3.5 5.4-30.2 4-43h-7.9c-3.5 12.3 2.9 29.7 3.9 43m-333.8-17.3c4 21.2 8.4 46 25.7 48.9 22.7 4 46-26.2 58.9-39.5-5.4-6.4-4-19.3-9.9-25.2-32.1-2-50.4 9.8-74.7 15.8m274.9-6c0 6.4-5.4 7.5-4 15.3 9.4 11.9 28.7 13.4 41.6 21.8l15.3-9.9c1.5-14.3-1.4-24.2-7.9-31.1-15.3-5.4-30.1 2.5-45 3.9m-257.1 84.6c9.4-21.7-7.4-49.9-27.7-55.4-6.4 26.8 12.9 50.5 27.7 55.4m78.6-53.4c-18.8-1-54.9 30.2-55.4 41.5 0 15.8 23.2 21.8 33.6 33.2 19.3-15.8 38-32.7 46.9-58.9-9.7-3.4-12.7-14.8-25.1-15.8m160.7 13.9c-2.5 16.8 23.2 33.1 35.6 43 11.4-8.9 22.3-18.8 17.8-39.1-14.3-8.4-49.4-27.7-53.4-3.9m61.3 33.1c16.3-.5 16.8-16.8 17.3-33.1-13.8 2.4-22.2 18.3-17.3 33.1m-94.4-17.3c1 25.2 3.4 48.4 15.8 62.8 13.8 1.5 29.7-10.4 39.1-19.7-6-24.8-30.7-61.9-54.9-43.1m-129.5 48.9c8.4 16.3 28.2 21.3 52.9 21.8 11.9-15.3 13.8-41.5 13.8-68.7-35.1-18.3-52.4 26.2-66.7 46.9m105.8-48.9c-26.7-6-35.1 37.1-31.2 72.7 17.8 9.4 42 0 54.9-7.9-6.9-21.3-4.4-60.8-23.7-64.8m-161.2 21.2l-7.9 4c1.9 26.7 25.7 31.2 39.5 45.5l9.9-4c-6.9-22.2-28.6-29.2-41.5-45.5m381.2 15.9c3.9 5.4 9.9 2.5 15.8 0 4.4-18.3-18.8-15.9-15.8 0m-151.3 33.6c14.8-7.4 39.1-14.3 37.6-31.7-19.8 3.5-34.1 11.9-37.6 31.7m74.7-7.9c-41 37.6-30.2 169.1-27.2 233.9 11.4-18.8 6.4-44 7.5-66.8 3.9-64.8 9.4-136.4 35.6-171-9-1.1-12.5.9-15.9 3.9m33.6 7.9c-42.5 21.2-34.1 103.8-37.6 172.5-.5 14.9-1.9 31.2-1.9 47.5.5 8.9-5 26.7 7.9 27.2 17.3-70.7-6.9-163.1 21.7-219.5 5-10.4 14.9-14.3 15.8-25.7l-5.9-2m-188.9 11.9c-1 6.9 2.5 9.4 4 13.4 18.3-5.5 47.5-.5 53.4-19.3-14.4-7-36.6 6.3-57.4 5.9m-27.2 5.9c-8.9-14.9-35.1-12.4-56.8-13.8 3.9 19.2 40.5 24.6 56.8 13.8m-432.1 43c10.8-50.9-86.5-71.2-88.5-17.8 15.3-6.4 34.6-23.8 54.9-15.3 23.7 9.4 19.8 51.9-15.8 39.1 4.9 28.6 45.9 9.3 49.4-6m569.6-43c-17.3 41.5-14.4 134.4-13.9 194.3 0 9.9-5.9 27.2 7.9 29.7 7.4-12.3 5.4-32.1 6-49.4 1.4-63.3 3.9-123.6 9.9-176.5l-6-2-3.9 3.9m-463.8 64.8c9.9-46-43.5-67.2-72.7-43.5 35.6-10.9 80.1 40 43.5 49.4-9.9 2.5-15.3-5.4-27.7-3.9-3.4 34.1 50.5 18.7 56.9-2m102.4-13.9c-2-10.9-12.9-13.8-17.8-25.7-15.8-6-56.4-13.4-58.9 9.9 29.7-7.9 68.2-6.9 62.8 31.7-10.9 15.8-27.2-6-37.1-2 3.5 44.4 57.9 23.2 51-13.9m103.8 15.8c8.9-47-71.2-62.8-82.1-17.8 17.8-3.5 25.7-17.3 52.9-11.9 13.4 6.4 22.3 30.1 6 39.5-8.4 1.5-23.2-4-25.7 3.5 14.3 26.3 45.9 3.5 48.9-13.3m208.6 31.2c9.9-13.3 14.9-30.1 9.4-46.9-10.4-33.2-71.7-34.1-80.6 0 19.3 0 38.6-17.8 57.4-6 14.3 8.9 14.9 39.6-7.9 43-9.9-1-12.9-8.9-25.8-7.9-3.9 27.7 30.2 22.7 47.5 17.8m-88.5-31.2c-4.5-38.6-64.8-53.9-86.5-19.8 7.9 4.9 13.8-3 21.7-4 34.6-5.4 56.4 15.8 41 45-8.9 2-24.7-3.4-27.2 4 19.4 29.2 54 3.5 51-25.2m-432.1 164.7c4.9 6.9 17.3 6.4 29.1 5.9 23.3-39.1-42-49.4-29.1-5.9m47 3.9c6.4-1.9 16.3-1 21.8-3.9 13.8-39.1-43.1-32.7-21.8 3.9m43.5 4c9.9-.5 18.3-3.4 27.2-5.9 1.5-13.4-2-22.7-7.9-29.2-24.3-6.4-27.8 21.2-19.3 35.1m327.8-5.9c6 6.9 18.8 13.3 27.7 5.9 4.4-11.4 0-26.7-4.5-35.1-18.8-1.5-23.2 11.8-23.2 29.2m100.3 7.9c10.4-3.5 10.4-26.2 2-35.1-30.6-4-22.2 41.5-2 35.1m-23.7-13.9c.5-28.7-34.6-17.8-29.7 4 1.5 6.4 5.4 13.8 21.7 11.9 4.5-6.5 8-8.5 8-15.9" fill="none"/></svg>