<svg xmlns="http://www.w3.org/2000/svg" width="1000" height="1000" viewBox="0 0 1000 1000"><path clip-rule="evenodd" stroke="#f00" stroke-miterlimit="10" d="M878.2 82.6c-31-1.8-53.3 13.7-80.2 24.8-9.8-9.4-10-24.2-13.4-34.4-13.2-40.4-36.8-62.4-86-63.1h-23c-46.3 16.1-63.9 60.9-63 124.2-22.9 10.7-45.3 10.3-64.9 19.1-55 24.6-72.2 95.9-110.8 137.5-25.1-4.8-53.8-7.5-82.1-11.5-27.4-3.8-59.4-13.9-78.3-5.7 2.7 10.7 23.2 12.3 36.3 13.4 42.8 3.7 104.3-.7 116.6 26.7-22.5 12.1-50.2.4-76.4-3.8-27.7-4.4-57.4-7.3-86-3.8 2 15.4 22.5 11.8 34.4 13.4 29.4 4 57 7.5 84 11.5 11.3 1.7 31 1.9 32.5 13.4-2.8 13.9-24.7 5.1-34.4 3.8-36-4.6-84.8-10.8-118.4-7.6 1.3 11.4 20.3 12 30.6 13.4 42.1 5.9 94.2 3.6 122.3 21-5.3 18.3-25.8 21.4-36.3 34.4 12.8 41.9 63.4 46.1 99.3 64.9 16.6 43.2 6.5 107.6 7.6 162.4-60.2 36.4-142.2 40.9-183.3 91.7-28.4 35-36 73.4-38.2 135.6-54.7 6-137.3 7.6-189.2-1.9-13.6-14.7-17.3-43-19.1-70.7-4.2-68.7-.6-158.8 3.8-229.2 1.2-20.1 3.3-57.2 15.2-65 26.5-17.3 108.3 4.1 141.4 0 29.3 21.3 17.5 98.9 3.8 128-16.4 12.5-57.6 12.2-76.4 1.9-16.5-47.1 6.6-73.8 42-76.4-13.9-8.3-46.9-4.2-57.3 3.8-.1 25.8-13.4 72.6 0 93.6 15.7 24.7 105.8 10.2 116.5-3.8 12.2-16 7-65.8 5.7-89.8-1.4-28.8-6.9-45.3-5.7-72.6-23.2-14.1-64-13.2-101.2-15.3-39.2-2.2-80.4-5.4-107 7.6-11.5 94.8-12.2 200.4-17.2 301.9v22.9c9.9 35.9 3.3 75.8 21 99.3 20.5 27.2 79.8 19.4 122.3 21 51.6 2 101.8.7 139.4 11.5 4.6 24.4-9.7 29.8-11.5 47.8 137.9 9.9 298.6-3.1 431.8 11.4h17.3l9.5-1.9c6.4-10.1-6.8-22.1-3.8-40.1 28.3-11.9 81.8-4.1 116.6-3.8 4.7-59.9-59.2-75.7-118.4-66.9 1.3-20 11.4-37.3 15.3-57.3 2.1-11.1-.9-23.2 2-34.4 4-15.9 19.3-32 30.5-45.8 11.8-14.6 26.3-32.7 40.2-36.3 22.4-5.8 42.9 2.5 63.1-1.9 27.1-5.9 34.7-28.4 55.4-45.8-28.6-8.3-63-10.9-82.2-28.7 14.8-28.6 40.8-45.8 57.4-72.6 6.8-31.3 2.9-65.4-5.7-95.5-29.9 14.1-40.2 47.7-78.4 53.5.9-69.3-20.2-122.2-30.6-175.7 40.5-13.4 83.8-10 114.6-30.6 23.9-16 44.2-50.4 47.8-85.9h2v-17.2c-4-62.3-50.3-117.6-99.8-120.4zm-399.2 364.9c-8.6.3-8-8.6-7.6-17.2l9.5 3.8-1.9 13.4zm7.6-128c-9.1 1.6-18.8 11.1-26.8 7.7 3.5-16.8 14-21 11.5-40.1h3.8c12.7 1.9 11.8 17.5 11.5 32.4zm-116.5 559.7c13.8 1.5 34.2-3.6 42 3.8-3.7 16.3-42.6 15.3-42-3.8zm19.1 63.1c-9.6-16.6 12.1-40 32.5-32.5-5 16.7-14 29.3-32.5 32.5zm-7.6-112.7c20.7-4.2 40 9.7 40.1 32.4-22-2.2-35.9-12.5-40.1-32.4zm59.2 13.3c-20-4.2-24.9-23.5-24.8-47.7 18.2 4.8 27.7 28.1 24.8 47.7zm393.5-724c-2.1 17.6-6.4 33.1-21 38.2-3.7-6.5-3.3-17.1-5.8-24.8 9.6-3.8 10.8-16.1 26.8-13.4zm-36.3 17.2l7.6 1.9c-2.4 18.7-6.8 35.2-21 42l-3.8-7.6c-6.5 5.5-11.3 12.8-17.1 19.1-4.8-27 21.9-39.1 34.3-55.4zm-72.6 40.1c3.3-24.1 4-50.7 30.6-51.6 4.3 24.3-12.6 43.4-30.6 51.6zm32.5 187.2c-4.4 38.3-28.7 56.6-61.2 66.9 13.2-27 40.1-40.2 53.6-66.9h7.6zm-32.5-225.4c-8.4-17.8 11.5-35.7 28.6-40.1-2 13.5-13.3 33.6-28.6 40.1zm21-84c8.5 27.9-11.6 43-28.7 51.6-3.6-22.9 12-42.7 28.7-51.6zm-66.8-24.9c18.3-5.4 37.9.5 49.6 7.6-2 20.3-7.2 37.4-24.8 42v-30.6c-11.5 5.7-7 27.4-13.4 38.2-12.2-9.7-14.1-38.7-11.4-57.2zm19.1 103.2l5.8 15.3c-7.2 7.6-20 1.9-26.8-1.9-3-14.4 9.1-13.9 21-13.4zm-23 362.9c14.2 2.8 9.9-13 17.2-17.2l9.6 7.6c2-3.7-1.8-14.6 9.5-13.4 6.2-1.7 2.7 6.2 5.7 7.6l3.9-11.4c7.2-.9 8.9 3.7 13.3 5.7l1.9-13.4h11.4c-.3 6 5.1 6.4 3.8 13.4 5.1-6-3.1-14.2 3.8-19.1 11.5.6 11.6 12.5 17.1 19.1 5.1-10.2-1.3-31.9 9.6-36.3 6.8-3 1.1 6.5 5.7 5.7 4.4-5.8-.6-20.9 5.7-24.8l5.8 1.9c4.3 15.5 4.1 35.4 3.8 55.4-27.1 28.9-68.8 43.3-116.5 51.6-11.6-3.1-13.9-20.4-11.3-32.4zm-9.5-43.9h7.6c1.5 7.4-9.1 7.4-7.6 0zm-15.2-410.7c18.2 4.7 24.4 31.6 19.1 53.5-13.6-2.4-34.8-33.4-19.1-53.5zm-17.3 32.5h3.8c11.5 6.9 11.9 25 17.2 38.2-19.6 6.6-27.3-19-21-38.2zm-9.5 45.8c13.9-.6 26.8 14 17.1 24.8-12.7-1.2-19.1-8.8-17.1-24.8zm9.5 340c25.8 15.7 13.8 69.9 3.8 93.6l-9.6 5.8c-22-17.5-32.8-46.1-42-76.4 11.4-12.3 30.6-16.6 47.8-23zm-30.5 110.8c-2.8 12.2-17.6 12.4-21 22.9-17.5-33.5-25.7-76.2-40.2-112.7l3.8-5.8c23.9-1 25.2 14.5 34.4 36.3 9.7 23 26.5 43.2 23 59.3zm-7.7-196.7c-2.8 9.9-9.8 12.5-21 17.2-5-8.6-3.1-20.6 0-30.6-4.5-8.3-18.6-6.9-28.7-9.6 11.7-35.1 59.4-11.7 49.7 23zm-36.3 74.5c-19.4-3.2-39.6-21.2-43.9-45.8 26.3 2.4 42.7 24.6 43.9 45.8zm-45.8 1.9c-12.5.9-13.1-9.9-15.3-19.1 11.8-.4 15.6 7.3 15.3 19.1zm26.7 64.9c11.2 27.8 20.6 62.9 15.3 99.4-13.4 10.1-29.3 17.8-49.6 21-6.1-48.7-1.9-117.8-7.7-160.5 25.8-11.9 33.9 19.9 42 40.1zm0 305.7c8.1 18.1-18.5 33.4-40.2 34.4-6.2-24 21.1-29.7 40.2-34.4zm-87.8 139.4c-14.8-4.7-11.1-37.9-1.9-45.8l5.7 1.9c3 11.8 4.4 37.2-3.8 43.9zm13.3-112.7c-8.4-16.7-3.4-47.9 11.5-53.5 15.4 10.9 5.9 51.3-11.5 53.5zm36.3 82.2c-16.2-.3-23.4-9.6-26.7-22.9 12.2-3 28.8 5.3 26.7 22.9zm-5.7-43.9v-9.6c19.1-6.8 35.5 5 45.8 13.4-6.7 19.9-36.2 2.6-45.8-3.8zm91.7 26.7c24.3-83.2-14.3-151.8-78.4-170v-7.7c79.2 2.9 112.3 78.4 93.7 160.5 32.8 12.1 85.6-7.6 87.9 34.4-9.6.7-18.8-3.7-26.8-9.6-24.6-3.4-56.8.8-76.4-7.6zm74.5-59.2c.3-12.2 31.8-35.5 32.4-11.5-10.4 3.3-23.6 18.5-32.4 11.5zm24.9 118.4l1.8-11.5 9.6 5.8zm-7.7-223.5c-31.5-1.1-95.5-20.1-116.6-34.4-12.1-8.2-20.1-20.3-28.6-26.7 4.4-16.6 19.2-22.9 38.2-24.8-2.4 10.6 7.9 8.7 13.3 11.4v15.3c4 2.6 9.7-9.4 19.1-7.6 1 7.4-3.4 9.3-1.9 17.2l22.9-11.4c4.8 4.9-1.9 9.3 0 17.2 11.4 0 9.8-13.1 22.9-11.4 6.5 6.6.6 13.4 0 22.9 8.8-3.4 11-13.1 19.2-17.2 5.3.4 8.2 3.3 7.5 9.5 10.7-6.6 24.7-9.8 36.3-15.2 7.1-1.3 4.8 6.7 7.7 9.6 5.6-2.7 7.3-9.4 15.3-9.6-2.4 30.7-23.1 56.4-55.3 55.2zm-53.5-124.1c3.1-19.2 15.4-29.1 30.5-36.3-1.5 4.1-4.9 6.5-3.8 13.4 7.6-1.9 5.6-13.5 17.2-11.4l3.8 7.6 7.7-9.6c7.8 1.8 11.2 7.9 9.6 19.1 5.4-20 33.3-17.6 42-34.4 6.5-.7 3.3 8.3 5.8 11.5 4.8-2.2 6.4-7.6 13.4-7.6.8 6.2-2.5 16.5 3.8 17.2 7.5-4.6 2.7-21.4 11.4-24.8 6.4-1.3 7 3.2 7.6 7.6 6.1-4.1 2.9-17.6 15.3-15.3-1 20.7-9.9 33.5-13.4 51.6-46.5 15.7-99.5 29.9-150.9 11.4zm196.8 13.3c-4.2 21.9-20.7 31.5-40.1 38.2-4.2-22.4 22.1-37.6 40.1-38.2zm11.4-380.1c-7.1-11.6 5.1-18.7 5.8-28.7-3.1-18-27.1-15-44-19.1 12.3-18.3 56-13.5 63.1 5.7 2.9 25.3-9.4 35.3-24.9 42.1zm118.4-44c-9.4 49.8-34.1 84.3-89.7 87.9-1.1-4.7-7.4-4.1-5.8-11.4 4.8-6.7 13.8.1 24.8-1.9.5-6.2-3.3-8.1-1.9-15.3 7.7 2.5 17.8-3.6 28.6-3.8-4.4-4.3-18.8-8.7-9.6-15.3.2-5.5 10.2-1 17.2-3.8-.4-8-13-3.6-17.2-7.6-2.2-14.9 11.3-11.1 21-9.6l-9.6-9.5c.8-14.5 24-6.6 30.6-15.3-11.3-4-30-.6-42-3.8 5.7-16.5 21-23.5 38.2-28.6-15.7-7.4-24.7 8.4-42 5.8-.7-10.1 5.2-13.9 9.5-19.1-5.5-2.2-11.5 11.4-24.8 7.6.3-13.7 11-16.9 15.3-26.7-14.1 5-20.4 17.8-38.3 19.1-3.8-8.9 4-21.1 7.7-28.7-7-.6-12 17.3-19.2 22.9l-7.6-1.9c-4.1-12.8.7-32.1 5.7-42 66.3-1.3 107.2 22.5 112.7 86l-9.6 3.8c-.7 6.5 7.1 4.5 6 11.2z" fill="none"/></svg>