<svg xmlns="http://www.w3.org/2000/svg" width="1000" height="1000" viewBox="0 0 1000 1000"><path clip-rule="evenodd" stroke="#f00" stroke-miterlimit="10" d="M270.7 180.6h13.8v1.9c28.7-.8 24.5 29 47 31.4 13.8 1.5 26.5-11.4 43.1-15.6 20.2-5.3 37.9-1.4 60.6-5.9 17.5 17.8 50.9 21.9 56.9 47 5.4 22.4-6.5 66.6-21.6 80.3-16 14.8-40.1 10.2-56.9 21.6 22.2 38 76.1 27.5 135.4 33.3 78.8 7.6 178.3 10 262.6 13.8 17.8.8 36.7 8.1 53-3.9 2.9-23.9-25.5-20.2-41.3-21.6-52.3-4.8-114.3-9-168.5-15.6-3.2-32.3-1.5-72.4 11.7-98 30.2-.3 54.9 5.1 80.3 9.7 4.6 16.1-8.8 23.1-5.8 31.4 68.3 11.9 171.4-2.2 227.3 15.6-6.3 51 2.9 109.6-9.7 160.7-4.9 20.2-19.4 34.8-21.7 53-9.7 81.2 20.4 140.8 53 194v2h-1.9c-28.7 30.9-43.3 75.6-76.6 101.9-2.7 1-10-2.2-9.7 1.9h-9.8c-29.6-12.9-81-3.9-117.5-9.7 8.7-16.1 8.2-41.4 17.5-56.9 33.6-3.2 63.4-16.3 64.7-45 1.9-38-40.6-66.1-74.4-68.6-20.5 14.8-9 61.7-19.7 86.3-11.2 12.1-25 15.1-39.1 29.4-12.1 12.1-20.5 37.2-35.3 43.1-11.9 4.8-26 .5-39.2 0-27.9-1.2-58.9.8-86.1-4.1 11.2-33 17.7-71 39.1-93.9 41.8 1.9 50.8-29 47-72.5-80-1.5-216.6-19.2-270.4 21.6-27.3 20.5-41.8 48.6-54.9 88.1-11.9 10-26.2 20.4-41.3 33.3-11 9.5-29 30.2-41.1 33.3-10 2.6-23.4-1.5-33.3-1.9-35.5-1.5-76.9 3.4-111.8-3.9-4.9-35.2-.2-75.2 19.5-98 10.5-12.1 28.7-8 35.3-23.6-32.9-23-27.3-84.9-40.9-127.5 7.8 3.2 27.3 3.2 35.3 0-8-18.9-23.4-30.1-31.4-48.9 8-9 9.9-24.1 21.6-29.6 28.7 19.2 89.3 16.3 86.3-29.4-18.3-11.4-45.5-30.1-68.6-27.3-23.4 2.7-28.5 28.9-47 37.2-14.6-9.5-29.2-19-37.2-35.3-14.4-2.5-22.9-11-31.4-19.5 5.1-9.2 7.5-21.2 11.7-31.4-12.9-7.8-33.1-8.7-39.2-23.4v-2c15.8 1 33.8 23.1 45.2 9.9-1.3-18.7-37.7-13.5-37.3-39.4 17.2 8.2 27.3 23.6 52.8 23.6 5.6-25.5-26.5-22.9-25.5-37.4 22.9.8 28.5 18.7 47 23.6 32.3-37.7 72.2-67.6 125.5-84.2 12.5-23.5 24.2-47.6 52.9-54.9m-15.6 48.9c7.6.7 30.9 1.4 35.2-7.8-3.5-13.6-36.6-7.3-35.2 7.8m182.2 21.6c-7-2-16.5-16.7-29.4-19.5-16.5-3.9-43.6-3.9-47 11.7 32.6-.7 52.3 11.7 50.9 45-8.2 8.8-18.5 15.6-23.4 27.5 39.1 1.4 62.2-25.6 48.9-64.7m-164.6 21.6c23.1.9 33.5-10.9 33.3-33.3-14.1 2-42.4 8.1-33.3 33.3m-56.8 7.8c16.6-6.1 30.4-15.3 33.3-35.3-21.6-6-48.1 15.9-33.3 35.3m127.3-21.6c-3.7 9.5-1.4 24.8-1.9 37.2 16.6 9.3 38.7 9.7 54.9 0 6.6-15.5 4.6-26.7-4.1-39.1-14.7-2.7-36.6-3.5-48.9 1.9m-78.3 23.6c-7.5-3.2-3.4-17.7-13.8-17.7-9.5 12.2-20.2 30.7-45.2 21.6-8.7-45-49.8 1.9-33.3 27.3 12.1 18.7 37 5.1 62.7 7.8 15.8 1.9 30.6 14.4 39.2 15.8 16.1 2.2 30.7-2.9 47-13.8 7.6-16.3 8-46.4 0-62.7-20.4 7.1-28 39.7-56.6 21.7m411.6 27.4c11.9-13.8 44.8-16 37.2-43.1-25.2-8.2-56.6 19.6-37.2 43.1m-590.1 45.1c40.4-9.5 64.4 22.4 101.9 15.6 3.1-13.6 2.9-20.7 2-35.3-21.6-10.4-35.8-23.9-39.2-51-30.9 14.2-54.1 36.1-64.7 70.7m633.2-27.5c-14.3 3.9-33.6-4.8-45.2 7.8 41.8 19.7 112.8 8 127.5-29.4-35.4-19.3-56.3 14.5-82.3 21.6m80.3 23.6c31.3 8 48.4-14.1 60.8-31.4 5.8-4.6 16.5-4.2 17.5-13.8-47.5-6.4-65.7 16.5-78.3 45.2m135.2-35.3c-35.5-13.4-53.3 18-64.7 41.1 20.9-12.7 49.9-11.4 66.6 3.9 8.7-11.7 7.1-35.3-1.9-45m-654.5 33.3c-.5 10.7 1.4 23.6-2 31.4 19.7 1.7 39.7 11.9 56.9 9.7 6.8-18.7 25-25.8 43.1-33.3v-19.5c-14.3-3.4-27.7-7.6-43.1-9.9-10.1 15.5-31.8 19.2-54.9 21.6m-80.4 27.5c12.2 21.1 48.7 13.9 60.6-2-.7-7 .8-16.5-5.8-17.7-12.9 27.2-50.6 10.9-33.3-21.6-23.3-2.3-22.5 19.4-21.5 41.3m-101.9 0v11.7c7.1.7 10.9-2.2 15.6-3.9 1.4-5.9-2-7.1-2-11.7-5.9-.3-9.3 2.4-13.6 3.9m48.9 3.9c8 11.2 41.6 22.6 54.9 9.7-6.6-13.8-38.1-12.6-54.9-9.7m786.1 35.2c-3.7-13.1-20.2-11.9-29.6-19.5-5.3-4.4-6.8-19.2-15.6-17.7-27.8 38.7 13.4 60.1 21.6 80.3 6.1 15.3-.5 30.7 11.7 43.1 11.5-21.2 10.5-54.8 11.9-86.2m-866.4-15.7c11 1.9 14.9-6.6 11.7-13.7-12-2.7-14.6 7.1-11.7 13.7m360.6 13.8c10.5-5.8 24.6-8.1 31.4-17.7-7.6-12.1-29.7-9.5-49.1-9.9-5.8 12.7-20.5 20.7-25.5 39.2-7 27.2 8.8 65.4-13.6 80.3-.2-78.3-66.9-89.9-139.3-96-1.2 16.8 8.8 22.6 15.8 31.2 12.1-.3 27.3 5.8 43 9.9 14.6 3.9 36.2 4.1 41.3 17.7-42.1 1.5-56.6-24.5-98-23.6-7.6 36.9-38.7 50.3-86.3 47.2-14.4 18.3 2.9 40.1 17.7 46.9 18.5-4.9 31.6-15.5 51-19.5 22.4 19.9 68.4 4.2 86.3-2-13.1 14.6-35 20-58.8 23.6v23.4c49.9-11 73.2 21.9 123.5 21.6-12.2 18.3-33.8 35.5-58.8 31.4-16.3-2.6-43.1-32.3-68.6-19.5-5.6 16-13.8 29.4-17.7 46.9 32.3 2.4 56.9 12.4 78.3 25.5 43.8 1.5 57.9-41.1 94.1-54.7 26.2-10 69.5-8.2 98-9.9 104.6-6.6 228.6.7 315.6 21.6v-31.4c9 .2 7.1 11.2 17.7 9.8 30.2-3.9 73.9-4.9 98 5.8.8-19.5-2.5-50.8-8-70.5-16.5-10.7-37.9-17-48.9-33.3-2.9-36.7 7.5-68.1 0-98-48.2 1.4-22.8 76.6-29.4 119.6-16.8 9.3-34.6 17.5-53 25.5 20.5-26 7.5-73.5 11.9-115.7 5.4-12.2 21.6-13.6 25.5-27.5-21.4-4.2-47.6 3.4-56.9 17.7-5.6 27.2-3.6 61.8-3.9 94.1-17.3 14.1-39.4 23.4-62.7 31.4 27-20.7 14.1-81.2 19.5-123.5 5.4-9 18.7-10 23.6-19.7-19.4-.8-46 7.5-62.7 15.8-6.8 29.4 2.9 68.3-2 96-14.4 17-37 25.6-56.9 37.2 27.3-21.1 14.4-82.2 19.5-125.3 9.3-9.2 27.5-9.2 31.4-23.6-21.2-4.9-47.2.7-62.7 7.8-7.3 26.8-8.5 59.4-7.8 94.1-16.7 14.1-33.8 27.8-60.8 31.4 27-20 24.3-69.8 25.5-115.7 1.2-10.4 19.9-12.2 15.6-21.6-61.7-12.7-51.3 63.7-58.8 111.8-11.3 13.9-31.5 19.4-48.8 27.4 21.6-22.6 11.7-70.1 15.6-117.5 9.2-9.7 26.7-11 33.3-23.4-18-1-48.2 2.5-60.6 13.6-4.4 29.2-6.1 60.6-8 92.2-16.1 9.2-38.4 22.9-52.8 27.3 32-18.7 22.3-79.5 27.3-125.4m-172.4-7.8c23.8 6.8 50.4 10.7 74.4 17.5 2-7.1 7.3-11 8-19.5-17-10.4-73.2-26.9-82.4 2m-90.2-3.9v5.8c17.5 5.8 36.5 19.2 54.9 17.7-.4-24.7-31.3-28.8-54.9-23.5m-76.4 5.8c0 5.3-.7 11.2 2 13.8 8.3-1.4 14.9-4.6 13.6-15.6-7.3-1.6-9.3 2.3-15.6 1.8m131.3 139.1c-10.4 9.3-30.2 9.2-35.2 23.6 11.5 13.8 13.1 37.9 29.4 47 6.3-18 23.4-52.6 5.8-70.6m-82.4 21.5c-7.8 14.8 3.9 40.1 11.9 60.8 6.5 17 11.2 43.6 29.4 35.3 1-15.3-13.4-25.1-13.8-45-.2-10.4 5.3-20.5 3.9-33.5-7.1-9.1-14.9-17.6-31.4-17.6m558.6 60.8c-.7 11.4 10.7 10.4 17.7 13.8 11.2 12.2 18.2 28.9 23.6 47 19-4.4 11.9-35.2 13.6-56.9-15.7-3.5-36.9-8.4-54.9-3.9m151 23.6c2.5 49.3 74 27.5 107.7 41.1-2.4-19.9-9.7-34.6-19.5-47-31.8-3.4-57.6 2.4-88.2 5.9m-182.3 41.1c1.5 6.5 11.2 14.1 13.8 19.5 7.6 17.2 6.3 30.2 21.4 29.6 13.4-.8 25-22.3 35.3-31.4-25.5-13.1-52-25.1-54.9-60.8h-5.9c-3.9 11.4-13.6 27-9.7 43.1m-441-19.5c-36.3-8.5-58.9 31.2-90.2 33.3-9 17.7-11 42.5-9.7 70.5 36.9 0 79.3 15.8 109.7 3.9-8-14.8-25.3-14.6-35.3-27.3-10.9-13.9-13.4-33.8-33.3-39.2 18.3-5.4 37.4-7.8 54.9 0 10.7 13.9 21.1 33.6 39.2 35.3 23.4 2.2 43.6-29.7 47-49.1-42.9 27.5-62-22.8-82.3-27.4m429.2 37.2c-29.4-3.4-51.1 18.2-48.9 52.8 20.7 4.2 53.8 16.6 74.6 8 10-11.2-11.2-18.9-19.7-23.6-1.6-12.9-2.1-26.7-6-37.2m217.5-2c-5.1 3.4-3.9 13.1-3.9 21.6 13.9 14.9 42.8 14.8 45 41.3 18.9-9.3 28.7-27.7 35.3-49.1-27.3-2.6-56.3-3.6-76.4-13.8m-64.7 53c-3.9 7.8-8.2 15.3-7.8 27.5 33 1.7 65.7 3.4 100 3.7-3.9-28-42-22.1-47-48.9-12.4 8.7-31.8 10-45.2 17.7" fill="none"/></svg>