<svg xmlns="http://www.w3.org/2000/svg" viewBox="0 0 545.9 533.8">
  <style>
    .st0{fill:rgba(255,255,255,.02); stroke:red;}
    .st2{fill:red;}
    .st3{fill:none; stroke:yellow; stroke-linejoin:round;}
    .st4{fill:blue;}
  </style>
  <g id="circles">
    <circle class="st0" cx="273" cy="265.1" r="231.9"/>
    <path class="st0" d="M273 468.7c-112.3 0-203.6-91.3-203.6-203.6S160.7 61.5 273 61.5s203.6 91.3 203.6 203.6c0 112.2-91.3 203.6-203.6 203.6z"/>
    <path class="st0" d="M273 457.3c-106 0-192.3-86.2-192.3-192.3S167 72.8 273 72.8c106 0 192.3 86.2 192.3 192.3S379.1 457.3 273 457.3z"/>
    <path class="st0" d="M273 355.3c-49.7 0-90.2-40.5-90.2-90.2s40.5-90.2 90.2-90.2 90.2 40.5 90.2 90.2-40.4 90.2-90.2 90.2zM273 58v14.8m-3.5-6.7l.2 6.7m-3.7-6.6l.3 6.7m-3.8-6.5l.5 6.7m-3.9-6.5l.5 6.7M255 58.8l1.3 14.7m-4.1-6.3l.7 6.6m-4.2-6.2l.9 6.6m-4.3-6.2l1 6.7m-4.5-6.1l1.2 6.6m-5.9-14l2.6 14.5m-4.7-5.9l1.4 6.5m-4.8-5.8l1.5 6.5m-4.9-5.8l1.6 6.5m-5-5.7l1.7 6.5m-7-13.4l3.8 14.2m-5.2-5.5l1.9 6.4m-5.2-5.4l2 6.4m-5.3-5.3l2.1 6.3m-5.4-5.2l2.2 6.3m-15.6-36.7l12.5 37.8m-5.6-5.1l2.4 6.3m-5.7-5l2.6 6.2m-5.8-4.9l2.7 6.2m-5.9-4.8l2.8 6.1m-9.3-12l6.3 13.4m-6-4.5l3 6m-6.2-4.5l3.2 5.9m-6.2-4.3l3.2 5.9m-6.3-4.2l3.3 5.8m-10.3-11.1l7.4 12.8m-6.4-4l3.5 5.7m-6.5-3.9l3.7 5.6m-6.6-3.8l3.7 5.6m-6.4-3.5l3.6 5.4M138.6 64l5.4 8.3m10.3 23.2l8.5 12.1m-6.8-3.5l4 5.4m-6.8-3.3l4.1 5.3m-6.8-3.2l4.2 5.2m-6.9-3l4.2 5.1m-12-9.1l9.5 11.3m-7-2.8l4.4 5m-7-2.7l4.5 4.9m-7.1-2.6l4.6 4.8m-7.1-2.4l4.7 4.8m-12.8-8.1l10.4 10.4m-7.2-2.2l4.8 4.6m-7.2-2.1l4.9 4.5m-7.3-1.9l5.1 4.4m-7.4-1.8l5.1 4.3m-32.3-23.3l30.2 25.9m-7.4-1.6l5.2 4.2m-7.4-1.5l5.3 4.1m-7.4-1.3l5.4 3.9m-7.5-1.1l5.5 3.8m-14-5.7l12 8.5m-7.4-.9l5.5 3.6m-7.5-.7l5.7 3.5m-7.5-.6l5.7 3.5m-7.5-.5l5.7 3.3m-14.4-4.5l12.7 7.4m-7.5-.2l5.9 3.1m-7.6-.1l6 3.1m-7.6 0l6 3m-7.4 0l5.9 3m-44.7-22.2l9.2 4.5m20.7 14.5l13.4 6.2m-7.5.4l6.1 2.7m-7.5.5l6.2 2.5m-7.6.7l6.3 2.4m-7.5.8l6.2 2.4m-15-1.9l13.9 5m-7.5 1.1l6.4 2.1m-7.5 1.1l6.4 2m-7.4 1.4l6.4 1.8m-7.4 1.5l6.4 1.8m-15.1-.6l14.2 3.8M80 217l6.5 1.5m-7.3 1.9l6.5 1.4m-7.3 2l6.6 1.3m-7.3 2.1l6.6 1.2m-39.8-3.3l39.2 6.6m-7.2 2.3l6.6 1m-7.1 2.4l6.7.9m-7.1 2.6l6.6.7m-7 2.7l6.6.7m-15 2l14.7 1.3m-6.9 3l6.6.3m-6.8 3.1l6.6.3m-6.8 3.2l6.7.1m-6.8 3.4h6.7m-50.5 3.4h10.8m33 3.5l6.7-.2m-6.6 3.7l6.7-.3m-6.5 3.7l6.6-.4m-6.4 3.9l6.6-.5m-14.4 4.6l14.7-1.3m-6.3 4.1l6.6-.7m-6.2 4.2l6.6-.9m-6.2 4.3l6.7-1m-6.2 4.5l6.6-1.2M69.2 301l14.5-2.6m-5.9 4.7l6.5-1.4m-5.9 4.8L85 305m-5.8 4.9l6.5-1.6m-5.7 5l6.5-1.7m-13.4 7l14.2-3.8m-5.5 5.2l6.4-2m-5.4 5.3l6.4-2m-5.4 5.3l6.4-2.1m-5.2 5.4l6.3-2.3m-36.7 15.7l37.8-12.5m-5.1 5.6l6.2-2.4m-4.9 5.7l6.2-2.6m-4.9 5.8l6.2-2.7m-4.8 5.8l6.1-2.7m-12 9.2l13.4-6.2m-4.5 6l5.9-3m-4.4 6.1l5.9-3.1m-4.3 6.2l5.9-3.2m-4.2 6.3l5.8-3.3m-11.1 10.3l22.6-13.2m-13.9 12.2l5.7-3.5m-3.8 6.5l5.6-3.7m-3.8 6.6l5.6-3.7m-3.7 6.6l5.5-3.8m-10.1 11.2l12-8.5m-3.4 6.8l5.4-4m-3.3 6.8l5.3-4.1m-3.2 6.8l5.2-4.2m-3 6.9l5.1-4.3m-9.1 12.1l11.3-9.5m-2.9 7l5-4.4m-2.7 7l5-4.5m-2.6 7.1l4.8-4.6m-2.4 7.1l4.7-4.7m-8 12.8l10.4-10.4m-2.2 7.2l4.6-4.8m-2.1 7.2l4.5-4.9M140 413l4.4-5.1m-1.8 7.4l4.3-5.1m-23.3 33.1l25.9-31m-1.6 7.4l4.1-5.2m-1.4 7.4l4.1-5.3m-1.3 7.4l3.9-5.4m-1.1 7.5l3.8-5.5m-5.7 14l8.5-12.1m-.9 7.5l3.6-5.6m-.8 7.6l3.6-5.7m-.6 7.5l3.5-5.7m-.6 7.5l3.4-5.7m-4.5 14.4l7.4-12.7m-.2 7.5l3.1-5.9m-.1 7.6l3.1-6m0 7.6l3-6m.1 7.5l2.9-6m-3.2 14.8l6.2-13.4m.4 7.5l2.6-6.1m.6 7.5l2.5-6.2m.7 7.6l2.4-6.3m.8 7.5l2.3-6.3m-1.9 15.1l5.1-13.9m1 7.5l2.1-6.4m1.2 7.5l2-6.4m1.3 7.4l1.9-6.4m1.5 7.4l1.7-6.4m-.5 15.1l3.8-14.2m1.7 7.3l1.5-6.5m1.9 7.3l1.4-6.5m2 7.3l1.3-6.6m2.1 7.3l1.2-6.6m-4 39.7l7.3-39.1m2.3 7.2l1-6.7m2.4 7.2l.9-6.7m2.6 7.1l.7-6.6m2.7 7l.6-6.6m2.1 15l1.3-14.7m2.9 6.9l.4-6.7m3.1 6.9l.3-6.6m3.2 6.8l.1-6.7m3.3 6.8l.1-6.7m3.3 14.8v-14.8m3.6 6.7l-.2-6.7m3.7 6.6l-.4-6.7m3.8 6.5l-.4-6.6m3.9 6.4l-.5-6.7m4.6 14.5l-1.3-14.7m4.1 6.3l-.8-6.6m4.3 6.2l-.9-6.6m4.3 6.2l-1-6.7m4.4 6.1l-1.1-6.6m5.9 14l-2.6-14.5m4.7 5.9l-1.4-6.5m4.8 5.8l-1.5-6.5m4.9 5.8l-1.6-6.5m4.9 5.7l-1.6-6.5m7 13.4l-3.8-14.2m5.2 5.5l-2-6.4m5.3 5.4l-2-6.4m5.3 5.3l-2.1-6.3m5.4 5.2l-2.3-6.3m17 36.2l-13.8-37.3m5.6 5.1l-2.5-6.3m5.7 5l-2.5-6.2m5.8 4.9l-2.7-6.2m5.8 4.8l-2.8-6.1m9.3 12l-6.2-13.4m6 4.5l-3-5.9m6.1 4.4l-3.1-5.9m6.2 4.3l-3.2-5.9m6.3 4.2l-3.4-5.8m10.3 11.1l-7.3-12.7m6.4 3.9l-3.5-5.6m6.4 3.8l-3.6-5.6m6.6 3.8l-3.7-5.6m6.6 3.6l-3.8-5.5m11.2 10.2l-8.5-12.1m6.7 3.5l-4-5.4m6.8 3.3l-4.1-5.3m6.9 3.2l-4.2-5.2m6.9 3l-4.3-5.1m12.1 9.1l-9.5-11.3m7 2.9l-4.4-5m7 2.7l-4.5-5m7.1 2.6l-4.6-4.8m7.1 2.4l-4.7-4.7m12.8 8L409 401m7.2 2.2l-4.9-4.6m7.3 2.1l-4.9-4.5m7.2 1.9l-5-4.4m7.3 1.8l-5.1-4.3m33.2 22.3l-31-24.9m7.4 1.6l-5.2-4.2m7.4 1.5l-5.4-4.1m7.5 1.3l-5.4-3.9m7.4 1.1l-5.4-3.8m14 5.7l-12.1-8.5m7.5.9l-5.6-3.6m7.5.7l-5.6-3.5m7.5.6l-5.7-3.5m7.5.6l-5.8-3.4m14.5 4.5l-12.8-7.4m7.6.2l-5.9-3.1m7.5.1l-5.9-3.1m7.5 0l-6-3m7.6-.1l-6.1-2.9m14.9 3.2l-13.4-6.2m7.5-.4l-6.1-2.6m7.5-.6l-6.2-2.5m7.5-.7l-6.2-2.4m7.5-.8l-6.3-2.3m15.1 1.9l-13.9-5.1m7.5-1l-6.4-2.2m7.5-1.1l-6.4-2m7.4-1.4l-6.4-1.8m7.4-1.5l-6.4-1.8m15.1.6l-14.3-3.8m7.4-1.7l-6.5-1.5m7.3-1.9l-6.5-1.4m7.3-2l-6.6-1.3m7.3-2.1l-6.6-1.2m39.8 3.3l-39.2-6.6m7.2-2.3l-6.7-1m7.2-2.4l-6.7-.9m7.1-2.6l-6.6-.7m7-2.7l-6.7-.6m15.1-2.1l-14.7-1.3m6.9-2.9l-6.7-.4m6.9-3.1l-6.7-.3m6.9-3.2l-6.7-.1m6.8-3.4h-6.7m14.8-3.3h-14.8m6.7-3.6l-6.7.2m6.6-3.7l-6.7.3m6.5-3.7l-6.7.4m6.5-3.9l-6.7.5m14.5-4.6l-14.7 1.3m6.3-4.1l-6.7.8m6.3-4.3l-6.6.9m6.1-4.3l-6.6 1m6.1-4.4l-6.6 1.1m14-5.9l-14.5 2.6m5.9-4.7l-6.5 1.4m5.8-4.8l-6.5 1.5m5.8-4.9l-6.5 1.6m5.7-5l-6.5 1.7m13.4-7l-14.3 3.8m5.6-5.2l-6.4 2m5.4-5.3l-6.4 2m5.3-5.3l-6.3 2.1m5.2-5.4l-6.3 2.3m36.2-17l-37.3 13.8m5.1-5.6l-6.3 2.5m5-5.8l-6.2 2.6m4.8-5.8l-6.1 2.7m4.8-5.8l-6.1 2.8m12-9.3l-13.4 6.2m4.5-6l-6 3m4.5-6.1l-6 3.1m4.4-6.2l-5.9 3.2m4.2-6.3l-5.8 3.3m11.1-10.3l-12.8 7.4m4-6.4l-5.7 3.5m3.9-6.4l-5.6 3.6m3.8-6.6l-5.6 3.7m3.6-6.6l-5.5 3.8m10.2-11.2l-12.1 8.5m3.5-6.8l-5.4 4m3.3-6.7l-5.3 4m3.2-6.8l-5.3 4.2m3.1-6.9l-5.1 4.3m9.1-12.1l-11.3 9.5m2.8-7l-5 4.4m2.7-7l-4.9 4.5m2.6-7.1l-4.8 4.6m2.4-7.1l-4.8 4.7m8.1-12.8L409 129.1m2.2-7.2l-4.6 4.9m2.1-7.3l-4.5 4.9m1.9-7.3l-4.4 5.1m1.8-7.4l-4.3 5.2m23.9-32.3l-26.5 30.1m1.6-7.4l-4.2 5.2m1.5-7.4l-4.1 5.4m1.3-7.5l-4 5.4m1.2-7.5l-3.9 5.5m5.8-14l-8.5 12.1m.9-7.5l-3.6 5.6m.7-7.5l-3.5 5.6m.6-7.5l-3.5 5.7m.5-7.5l-3.3 5.8m4.4-14.5l-7.3 12.8m.2-7.6l-3.2 5.9m.2-7.6l-3.1 6m0-7.6l-3 6m-.1-7.5l-2.9 6.1m3.2-14.9l-6.2 13.4m-.4-7.5l-2.7 6.1m-.5-7.5l-2.5 6.2m-.7-7.5l-2.4 6.2m-.8-7.5l-2.4 6.3m1.9-15.1l-5 13.9m-1.1-7.5l-2.1 6.4m-1.2-7.5l-1.9 6.4m-1.4-7.4l-1.8 6.4m-1.5-7.4l-1.8 6.4m.6-15.1l-3.8 14.2m-1.7-7.3l-1.5 6.5m-1.9-7.3l-1.4 6.5m-2-7.3L313 77m-2.1-7.3l-1.2 6.6m4-39.6l-7.3 39m-2.3-7.2l-1 6.7m-2.5-7.2l-.8 6.7m-2.6-7.1l-.7 6.6m-2.7-7l-.7 6.6m-2-15l-1.3 14.7m-3-6.9l-.3 6.7m-3.1-6.9l-.3 6.7m-3.2-6.9l-.2 6.7m-3.3-6.8v6.7m-110.9 32.9l57.1 84.6m-122.4-9.5l91.8 44.7M74.1 265.1h108.7m-81.1 87.2l91-46.3m-24.4 120.3l55.6-85.6m52.5 116.6l-1.3-102m102.7 71l-55.2-85.9m121.7 11.9l-90.7-46.6m111.6-33.9l-102-4m84.1-84l-92.7 42.6m26-120.7l-57.4 83.8M273 72.8v102m-37 8l-41.4 126.8M236 182.8l-19 152.9m19-152.9l-5.6 161.7m5.6-161.7l23.7 171.5M236 182.8l39.1 172.5m-38.8-171.5l72.6 164m-35.9-173l-90.2 90.3m90.2-90.3l-78.4 134.8M273 174.8l-42.6 169.7M273 174.8l2.1 180.5M273 174.8l49.6 165.6M273 174.8l67.6 149.9M273 174.8l78.1 45.1M236 182.8l115.1 37.1m0 0l-168.3 45.2m168.3-45.2l-156.5 89.7m156.5-89.7L230.4 344.5m120.7-124.6l-76 135.4m76-135.4l-42.2 127.9m42.2-127.9l-28.5 120.5m28.5-120.5l-10.5 104.8m20.4-79.6l-130.6 99.4M361 245.1L259.7 354.3M361 245.1l-52.1 102.7M361 245.1l-38.4 95.3m38.4-95.3l-20.4 79.6m-157.8-59.6l139.8 75.3m-139.8-75.3l126.1 82.7m-126.1-82.7l92.3 90.2m-92.3-90.2l47.6 79.4m-35.8-34.9l128 30.8m-128-30.8l114.3 38.2m-114.3-38.2l80.5 45.7m-15.4-1l-76.9-89.2m157.8 59.6l-123.6 11"/>
    <path class="st3" d="M65.7 369l-11.1 5"/>
  </g>
  <g id="text_outlines">
    <path class="st4" d="M131.2 343c0-.8.1-1.5.3-2s.4-.9.8-1.2.8-.4 1.3-.4c.4 0 .7.1 1 .2s.5.4.7.7.3.6.4 1.1.2 1 .2 1.7c0 .8-.1 1.5-.3 2s-.4.9-.8 1.2-.8.4-1.3.4c-.7 0-1.2-.2-1.6-.7-.4-.7-.7-1.6-.7-3zm1 0c0 1.2.1 2 .4 2.3s.6.6 1 .6.7-.2 1-.6.4-1.2.4-2.3c0-1.2-.1-2-.4-2.3s-.6-.6-1-.6-.7.2-1 .5c-.3.4-.4 1.3-.4 2.4zm4.7 1.9l.8-.1c.1.4.2.7.4.9s.5.3.8.3c.3 0 .5-.1.7-.2s.4-.3.5-.5.2-.5.3-.8.1-.7.1-1.1v-.2c-.2.3-.4.5-.7.7s-.6.3-1 .3c-.6 0-1.1-.2-1.5-.6s-.6-1-.6-1.7.2-1.3.6-1.8 1-.7 1.6-.7c.5 0 .9.1 1.3.4s.7.6.9 1.1.3 1.1.3 2c0 .9-.1 1.6-.3 2.2s-.5 1-.9 1.2-.9.4-1.4.4c-.6 0-1-.2-1.4-.5s-.4-.7-.5-1.3zm3.6-3.2c0-.5-.1-.9-.4-1.2s-.6-.4-1-.4-.7.2-1 .5-.4.7-.4 1.2.1.8.4 1.1.6.4 1 .4.7-.1 1-.4.4-.7.4-1.2zm3.3-2.4c.5 0 .9.2 1.2.5s.4.8.4 1.3c0 .6-.1 1-.4 1.3s-.7.5-1.1.5c-.5 0-.9-.2-1.2-.5s-.4-.8-.4-1.3c0-.6.1-1 .4-1.4s.6-.4 1.1-.4zm0 .6c-.3 0-.5.1-.6.3s-.2.5-.2.9.1.7.2.9.4.3.6.3c.3 0 .5-.1.6-.3s.2-.5.2-.9-.1-.7-.2-.9-.4-.3-.6-.3zM35.5 362.8c0-.8.1-1.5.3-2s.4-.9.8-1.2.8-.4 1.3-.4c.4 0 .7.1 1 .2s.5.4.7.7.3.6.4 1.1.2 1 .2 1.7c0 .8-.1 1.5-.3 2s-.4.9-.8 1.2-.8.4-1.3.4c-.7 0-1.2-.2-1.6-.7-.4-.7-.7-1.6-.7-3zm.9 0c0 1.2.1 2 .4 2.3s.6.6 1 .6.7-.2 1-.6.4-1.2.4-2.3c0-1.2-.1-2-.4-2.3s-.6-.6-1-.6-.7.2-1 .5c-.2.4-.4 1.3-.4 2.4zm4.7 1.7l.9-.1c.1.4.2.8.5 1s.5.3.9.3.8-.2 1.1-.5.4-.7.4-1.3c0-.5-.1-.9-.4-1.2s-.7-.4-1.1-.4c-.3 0-.5.1-.8.2s-.4.3-.5.5l-.8-.1.7-3.7h3.6v.8h-2.9l-.4 1.9c.4-.3.9-.4 1.4-.4.6 0 1.2.2 1.6.6s.6 1 .6 1.7c0 .6-.2 1.2-.6 1.7-.5.6-1.1.9-1.9.9-.7 0-1.2-.2-1.6-.5s-.6-.8-.7-1.4zm7-5.4c.5 0 .9.2 1.2.5s.4.8.4 1.3c0 .6-.1 1-.4 1.3s-.7.5-1.1.5c-.5 0-.9-.2-1.2-.5s-.4-.8-.4-1.3c0-.6.1-1 .4-1.4s.6-.4 1.1-.4zm0 .6c-.3 0-.5.1-.6.3s-.2.5-.2.9.1.7.2.9.4.3.6.3c.3 0 .5-.1.6-.3s.2-.5.2-.9-.1-.7-.2-.9-.4-.3-.6-.3zm-.8 31.8l.9-.1c.1.4.2.8.5 1s.5.3.9.3.8-.2 1.1-.5.4-.7.4-1.3c0-.5-.1-.9-.4-1.2s-.7-.4-1.1-.4c-.3 0-.5.1-.8.2s-.4.3-.5.5l-.8-.1.7-3.7h3.6v.8h-2.9l-.4 1.9c.4-.3.9-.4 1.4-.4.6 0 1.2.2 1.6.6s.6 1 .6 1.7c0 .6-.2 1.2-.6 1.7-.5.6-1.1.9-1.9.9-.7 0-1.2-.2-1.6-.5s-.7-.8-.7-1.4zm5.6-1.7c0-.8.1-1.5.3-2s.4-.9.8-1.2.8-.4 1.3-.4c.4 0 .7.1 1 .2s.5.4.7.7.3.6.4 1.1.2 1 .2 1.7c0 .8-.1 1.5-.3 2s-.4.9-.8 1.2-.8.4-1.3.4c-.7 0-1.2-.2-1.6-.7-.5-.6-.7-1.6-.7-3zm.9 0c0 1.2.1 2 .4 2.3s.6.6 1 .6.7-.2 1-.6.4-1.2.4-2.3c0-1.2-.1-2-.4-2.3s-.6-.6-1-.6-.7.2-1 .5c-.3.5-.4 1.3-.4 2.4zm6-3.7c.5 0 .9.2 1.2.5s.4.8.4 1.3c0 .6-.1 1-.4 1.3s-.7.5-1.1.5c-.5 0-.9-.2-1.2-.5s-.4-.8-.4-1.3c0-.6.1-1 .4-1.4s.6-.4 1.1-.4zm0 .6c-.3 0-.5.1-.6.3s-.2.5-.2.9.1.7.2.9.4.3.6.3c.3 0 .5-.1.6-.3s.2-.5.2-.9-.1-.7-.2-.9-.3-.3-.6-.3zM15.7 248.8c0-.8.1-1.5.3-2s.4-.9.8-1.2.8-.4 1.3-.4c.4 0 .7.1 1 .2s.5.4.7.7.3.6.4 1.1.2 1 .2 1.7c0 .8-.1 1.5-.3 2s-.4.9-.8 1.2-.8.4-1.3.4c-.7 0-1.2-.2-1.6-.7-.4-.6-.7-1.6-.7-3zm.9 0c0 1.2.1 2 .4 2.3s.6.6 1 .6.7-.2 1-.6.4-1.2.4-2.3c0-1.2-.1-2-.4-2.3s-.6-.6-1-.6-.7.2-1 .5c-.2.5-.4 1.3-.4 2.4zm4.8 1.9l.8-.1c.1.4.2.7.4.9s.5.3.8.3c.3 0 .5-.1.7-.2s.4-.3.5-.5.2-.5.3-.8.1-.7.1-1.1v-.2c-.2.3-.4.5-.7.7s-.6.3-1 .3c-.6 0-1.1-.2-1.5-.6s-.6-1-.6-1.7.2-1.3.6-1.8 1-.7 1.6-.7c.5 0 .9.1 1.3.4s.7.6.9 1.1.3 1.1.3 2c0 .9-.1 1.6-.3 2.2s-.5 1-.9 1.2-.9.4-1.4.4c-.6 0-1-.2-1.4-.5s-.4-.7-.5-1.3zm3.6-3.1c0-.5-.1-.9-.4-1.2s-.6-.4-1-.4-.7.2-1 .5-.4.7-.4 1.2.1.8.4 1.1.6.4 1 .4.7-.1 1-.4.4-.7.4-1.2zm3.3-2.5c.5 0 .9.2 1.2.5s.4.8.4 1.3c0 .6-.1 1-.4 1.3s-.7.5-1.1.5c-.5 0-.9-.2-1.2-.5s-.4-.8-.4-1.3c0-.6.1-1 .4-1.4s.6-.4 1.1-.4zm0 .6c-.3 0-.5.1-.6.3s-.2.5-.2.9.1.7.2.9.4.3.6.3c.3 0 .5-.1.6-.3s.2-.5.2-.9-.1-.7-.2-.9-.4-.3-.6-.3zM16.1 278c0-.8.1-1.5.3-2s.4-.9.8-1.2.8-.4 1.3-.4c.4 0 .7.1 1 .2s.5.4.7.7.3.6.4 1.1.2 1 .2 1.7c0 .8-.1 1.5-.3 2s-.4.9-.8 1.2-.8.4-1.3.4c-.7 0-1.2-.2-1.6-.7-.5-.7-.7-1.7-.7-3zm.9 0c0 1.2.1 2 .4 2.3s.6.6 1 .6.7-.2 1-.6.4-1.2.4-2.3c0-1.2-.1-2-.4-2.3s-.6-.6-1-.6-.7.2-1 .5c-.2.4-.4 1.2-.4 2.4zm4.7 1.6l.9-.1c.1.5.3.9.5 1.1s.5.3.9.3.8-.1 1-.4.4-.6.4-1.1c0-.4-.1-.7-.4-1s-.6-.4-1-.4c-.2 0-.4 0-.6.1l.1-.8h.1c.4 0 .7-.1 1-.3s.4-.5.4-.9c0-.3-.1-.6-.3-.8s-.5-.3-.8-.3c-.3 0-.6.1-.9.3s-.4.5-.4 1l-.9-.2c.1-.6.4-1 .7-1.4s.9-.5 1.4-.5c.4 0 .8.1 1.1.3s.6.4.8.7.3.6.3.9c0 .3-.1.6-.2.8s-.4.5-.7.6c.4.1.8.3 1 .6s.4.7.4 1.2c0 .6-.2 1.2-.7 1.6s-1 .7-1.7.7c-.6 0-1.1-.2-1.6-.6s-.8-.8-.8-1.4zm6.9-5.4c.5 0 .9.2 1.2.5s.4.8.4 1.3c0 .6-.1 1-.4 1.3s-.7.5-1.1.5c-.5 0-.9-.2-1.2-.5s-.4-.8-.4-1.3c0-.6.1-1 .4-1.4s.7-.4 1.1-.4zm0 .7c-.3 0-.5.1-.6.3s-.2.5-.2.9.1.7.2.9.4.3.6.3c.3 0 .5-.1.6-.3s.2-.5.2-.9-.1-.7-.2-.9-.3-.3-.6-.3zm21.5-128.6v-1.7H47v-.8l3.3-4.6h.7v4.6h1v.8h-1v1.7h-.9zm0-2.5v-3.2l-2.2 3.2h2.2zm2.9.9l.8-.1c.1.4.2.7.4.9s.5.3.8.3c.3 0 .5-.1.7-.2s.4-.3.5-.5.2-.5.3-.8.1-.7.1-1.1v-.2c-.2.3-.4.5-.7.7s-.6.3-1 .3c-.6 0-1.1-.2-1.5-.6s-.6-1-.6-1.7.2-1.3.6-1.8 1-.7 1.6-.7c.5 0 .9.1 1.3.4s.7.6.9 1.1.3 1.1.3 2c0 .9-.1 1.6-.3 2.2s-.5 1-.9 1.2-.9.4-1.4.4c-.6 0-1-.2-1.4-.5s-.4-.8-.5-1.3zm3.6-3.2c0-.5-.1-.9-.4-1.2s-.6-.4-1-.4-.7.2-1 .5-.4.7-.4 1.2.1.8.4 1.1.6.4 1 .4.7-.1 1-.4.4-.7.4-1.2zm3.2-2.5c.5 0 .9.2 1.2.5s.4.8.4 1.3c0 .6-.1 1-.4 1.3s-.7.5-1.1.5c-.5 0-.9-.2-1.2-.5s-.4-.8-.4-1.3c0-.6.1-1 .4-1.4s.6-.4 1.1-.4zm0 .7c-.3 0-.5.1-.6.3s-.2.5-.2.9.1.7.2.9.4.3.6.3c.3 0 .5-.1.6-.3s.2-.5.2-.9-.1-.7-.2-.9-.3-.3-.6-.3zm-20.2 34.2h-.9v-5.6c-.2.2-.5.4-.8.6s-.7.4-.9.5v-.8c.5-.2.9-.5 1.3-.8s.6-.6.8-1h.6v7.1zm2.3-1.9l.9-.1c.1.5.3.9.5 1.1s.5.3.9.3.8-.1 1-.4.4-.6.4-1.1c0-.4-.1-.7-.4-1s-.6-.4-1-.4c-.2 0-.4 0-.6.1l.1-.8h.1c.4 0 .7-.1 1-.3s.4-.5.4-.9c0-.3-.1-.6-.3-.8s-.5-.3-.8-.3c-.3 0-.6.1-.9.3s-.4.5-.4 1l-.9-.2c.1-.6.4-1 .7-1.4s.9-.5 1.4-.5c.4 0 .8.1 1.1.3s.6.4.8.7.3.6.3.9c0 .3-.1.6-.2.8s-.4.5-.7.6c.4.1.8.3 1 .6s.4.7.4 1.2c0 .6-.2 1.2-.7 1.6s-1 .7-1.7.7c-.6 0-1.1-.2-1.6-.6s-.8-.8-.8-1.4zm6.9-5.4c.5 0 .9.2 1.2.5s.4.8.4 1.3c0 .6-.1 1-.4 1.3s-.7.5-1.1.5c-.5 0-.9-.2-1.2-.5s-.4-.8-.4-1.3c0-.6.1-1 .4-1.4s.6-.4 1.1-.4zm0 .6c-.3 0-.5.1-.6.3s-.2.5-.2.9.1.7.2.9.4.3.6.3c.3 0 .5-.1.6-.3s.2-.5.2-.9-.1-.7-.2-.9-.3-.3-.6-.3zm88.9-114.3l.9-.1c.1.4.2.8.5 1 .2.2.5.3.9.3s.8-.2 1.1-.5c.3-.3.4-.7.4-1.3 0-.5-.1-.9-.4-1.2-.3-.3-.7-.4-1.1-.4-.3 0-.5.1-.8.2-.2.1-.4.3-.5.5l-.8-.1.7-3.7h3.6v.8h-2.9l-.4 1.9c.4-.3.9-.4 1.4-.4.6 0 1.2.2 1.6.6.4.4.6 1 .6 1.7 0 .6-.2 1.2-.6 1.7-.5.6-1.1.9-1.9.9-.7 0-1.2-.2-1.6-.5-.4-.4-.6-.8-.7-1.4zm10.2 1v.8h-4.7c0-.2 0-.4.1-.6.1-.3.3-.6.6-1s.6-.7 1.1-1.1c.8-.6 1.3-1.1 1.6-1.5.3-.4.4-.7.4-1.1 0-.3-.1-.6-.4-.9s-.6-.4-1-.4-.8.1-1 .4-.4.6-.4 1.1l-.9-.1c.1-.7.3-1.2.7-1.5.4-.4.9-.5 1.6-.5.7 0 1.2.2 1.6.6s.6.9.6 1.4c0 .3-.1.6-.2.8-.1.3-.3.6-.6.9-.3.3-.7.7-1.4 1.3-.5.4-.9.7-1 .9-.1.2-.3.3-.4.5h3.7zm2.3-6.4c.5 0 .9.2 1.2.5.3.3.4.8.4 1.3 0 .6-.1 1-.4 1.3-.3.3-.7.5-1.1.5-.5 0-.9-.2-1.2-.5-.3-.3-.4-.8-.4-1.3 0-.6.1-1 .4-1.4.3-.3.7-.4 1.1-.4zm0 .6c-.3 0-.5.1-.6.3s-.2.5-.2.9.1.7.2.9.4.3.6.3c.3 0 .5-.1.6-.3s.2-.5.2-.9-.1-.7-.2-.9c-.1-.2-.3-.3-.6-.3zm-32.5 22.8h-.9v-5.6c-.2.2-.5.4-.8.6s-.7.4-.9.5v-.8c.5-.2.9-.5 1.3-.8s.6-.6.8-1h.6v7.1zM120 69l.9-.1c.1.5.3.9.5 1.1s.5.3.9.3.8-.1 1-.4.4-.6.4-1.1c0-.4-.1-.7-.4-1s-.6-.4-1-.4c-.2 0-.4 0-.6.1l.1-.8h.1c.4 0 .7-.1 1-.3s.4-.5.4-.9c0-.3-.1-.6-.3-.8s-.5-.3-.8-.3c-.3 0-.6.1-.9.3s-.4.5-.4 1l-.9-.2c.1-.6.4-1 .7-1.4s.9-.5 1.4-.5c.4 0 .8.1 1.1.3s.6.4.8.7.3.6.3.9c0 .3-.1.6-.2.8s-.4.5-.7.6c.4.1.8.3 1 .6s.4.7.4 1.2c0 .6-.2 1.2-.7 1.6s-1 .7-1.7.7c-.6 0-1.1-.2-1.6-.6s-.8-.8-.8-1.4zm6.9-5.4c.5 0 .9.2 1.2.5s.4.8.4 1.3c0 .6-.1 1-.4 1.3s-.7.5-1.1.5c-.5 0-.9-.2-1.2-.5s-.4-.8-.4-1.3c0-.6.1-1 .4-1.4s.7-.4 1.1-.4zm0 .7c-.3 0-.5.1-.6.3s-.2.5-.2.9.1.7.2.9.4.3.6.3c.3 0 .5-.1.6-.3s.2-.5.2-.9-.1-.7-.2-.9-.3-.3-.6-.3zM280 18.4l.9-.1c.1.5.3.9.5 1.1s.5.3.9.3.8-.1 1-.4c.3-.3.4-.6.4-1.1 0-.4-.1-.7-.4-1s-.6-.4-1-.4c-.2 0-.4 0-.6.1l.1-.8h.1c.4 0 .7-.1 1-.3.3-.2.4-.5.4-.9 0-.3-.1-.6-.3-.8-.2-.2-.5-.3-.8-.3-.3 0-.6.1-.9.3s-.4.5-.4 1l-.9-.2c.1-.6.4-1 .7-1.4s.9-.5 1.4-.5c.4 0 .8.1 1.1.3.3.2.6.4.8.7.2.3.3.6.3.9 0 .3-.1.6-.2.8s-.4.5-.7.6c.4.1.8.3 1 .6s.4.7.4 1.2c0 .6-.2 1.2-.7 1.6-.5.4-1 .7-1.7.7-.6 0-1.1-.2-1.6-.6s-.7-.8-.8-1.4zm5.6-1.7c0-.8.1-1.5.3-2 .2-.5.4-.9.8-1.2.3-.3.8-.4 1.3-.4.4 0 .7.1 1 .2.3.2.5.4.7.7.2.3.3.6.4 1.1s.2 1 .2 1.7c0 .8-.1 1.5-.3 2-.2.5-.4.9-.8 1.2-.3.3-.8.4-1.3.4-.7 0-1.2-.2-1.6-.7-.5-.7-.7-1.6-.7-3zm.9 0c0 1.2.1 2 .4 2.3.3.4.6.6 1 .6s.7-.2 1-.6c.3-.4.4-1.2.4-2.3 0-1.2-.1-2-.4-2.3-.3-.4-.6-.6-1-.6s-.7.2-1 .5c-.3.4-.4 1.2-.4 2.4zm6-3.7c.5 0 .9.2 1.2.5s.4.8.4 1.3c0 .6-.2 1-.4 1.3-.3.3-.7.5-1.1.5-.5 0-.9-.2-1.2-.5-.3-.3-.4-.8-.4-1.3 0-.6.1-1 .4-1.4s.7-.4 1.1-.4zm0 .6c-.3 0-.5.1-.6.3s-.2.5-.2.9.1.7.2.9c.2.2.4.3.6.3.3 0 .5-.1.6-.3.2-.2.2-.5.2-.9s-.1-.7-.2-.9c-.1-.2-.3-.3-.6-.3zm-38.6 7.1h-.9v-5.6c-.2.2-.5.4-.8.6s-.7.4-.9.5v-.8c.5-.2.9-.5 1.3-.8s.6-.6.8-1h.6v7.1zm2.2-3.5c0-.8.1-1.5.3-2s.4-.9.8-1.2.8-.4 1.3-.4c.4 0 .7.1 1 .2s.5.4.7.7.3.6.4 1.1.2 1 .2 1.7c0 .8-.1 1.5-.3 2s-.4.9-.8 1.2-.8.4-1.3.4c-.7 0-1.2-.2-1.6-.7-.5-.7-.7-1.7-.7-3zm.9 0c0 1.2.1 2 .4 2.3s.6.6 1 .6.7-.2 1-.6.4-1.2.4-2.3c0-1.2-.1-2-.4-2.3s-.6-.6-1-.6-.7.2-1 .5c-.2.4-.4 1.2-.4 2.4zm6.1-3.8c.5 0 .9.2 1.2.5s.4.8.4 1.3c0 .6-.1 1-.4 1.3s-.7.5-1.1.5c-.5 0-.9-.2-1.2-.5s-.4-.8-.4-1.3c0-.6.1-1 .4-1.4s.6-.4 1.1-.4zm0 .7c-.3 0-.5.1-.6.3s-.2.5-.2.9.1.7.2.9.4.3.6.3c.3 0 .5-.1.6-.3s.2-.5.2-.9-.1-.7-.2-.9-.4-.3-.6-.3zm158.3 57.1v-1.7h-3.1v-.8l3.3-4.6h.7v4.6h1v.8h-1v1.7h-.9zm0-2.5v-3.2l-2.2 3.2h2.2zm2.8-3.7v-.8h4.6v.7c-.5.5-.9 1.1-1.4 1.9-.4.8-.8 1.6-1 2.5-.2.6-.3 1.3-.3 2h-.9c0-.6.1-1.2.3-2 .2-.8.5-1.6.9-2.3s.8-1.4 1.3-1.9h-3.5zm6.9-1.1c.5 0 .9.2 1.2.5s.4.8.4 1.3c0 .6-.1 1-.4 1.3-.3.3-.7.5-1.1.5-.5 0-.9-.2-1.2-.5-.3-.3-.4-.8-.4-1.3 0-.6.1-1 .4-1.4s.6-.4 1.1-.4zm0 .6c-.3 0-.5.1-.6.3s-.2.5-.2.9.1.7.2.9c.2.2.4.3.6.3.3 0 .5-.1.6-.3.2-.2.2-.5.2-.9s-.1-.7-.2-.9c-.1-.2-.4-.3-.6-.3zm-40.3-14.3c0-.8.1-1.5.3-2 .2-.5.4-.9.8-1.2.3-.3.8-.4 1.3-.4.4 0 .7.1 1 .2.3.2.5.4.7.7.2.3.3.6.4 1.1s.2 1 .2 1.7c0 .8-.1 1.5-.3 2-.2.5-.4.9-.8 1.2-.3.3-.8.4-1.3.4-.7 0-1.2-.2-1.6-.7-.4-.7-.7-1.7-.7-3zm1 0c0 1.2.1 2 .4 2.3.3.4.6.6 1 .6s.7-.2 1-.6c.3-.4.4-1.2.4-2.3 0-1.2-.1-2-.4-2.3-.3-.4-.6-.6-1-.6s-.7.2-1 .5c-.3.4-.4 1.2-.4 2.4zm9.2-1.9l-.9.1c-.1-.3-.2-.6-.3-.8-.2-.3-.5-.4-.9-.4-.3 0-.5.1-.7.2-.3.2-.5.5-.7.9-.2.4-.2.9-.2 1.7.2-.3.5-.6.8-.7.3-.2.6-.2 1-.2.6 0 1.1.2 1.5.6.4.4.6 1 .6 1.7 0 .4-.1.9-.3 1.3-.2.4-.5.7-.8.9-.3.2-.7.3-1.2.3-.7 0-1.3-.3-1.8-.8s-.7-1.4-.7-2.7c0-1.4.3-2.4.8-3 .4-.5 1-.8 1.8-.8.6 0 1 .2 1.4.5.3.2.5.6.6 1.2zm-3.6 3.1c0 .3.1.6.2.9.1.3.3.5.5.6.2.1.5.2.7.2.4 0 .7-.1 1-.4.3-.3.4-.7.4-1.2s-.1-.9-.4-1.2-.6-.4-1-.4-.7.1-1 .4c-.3.2-.4.6-.4 1.1zm6-5c.5 0 .9.2 1.2.5s.4.8.4 1.3c0 .6-.2 1-.4 1.3-.3.3-.7.5-1.1.5-.5 0-.9-.2-1.2-.5-.3-.3-.4-.8-.4-1.3 0-.6.1-1 .4-1.4s.6-.4 1.1-.4zm0 .7c-.3 0-.5.1-.6.3s-.2.5-.2.9.1.7.2.9c.2.2.4.3.6.3.3 0 .5-.1.6-.3.2-.2.2-.5.2-.9s-.1-.7-.2-.9c-.2-.2-.4-.3-.6-.3zm93.9 126.7l.9-.1c.1.4.2.8.5 1s.5.3.9.3.8-.2 1.1-.5.4-.7.4-1.3c0-.5-.1-.9-.4-1.2s-.7-.4-1.1-.4c-.3 0-.5.1-.8.2-.2.1-.4.3-.5.5l-.8-.1.7-3.7h3.6v.8h-2.9l-.4 1.9c.4-.3.9-.4 1.4-.4.6 0 1.2.2 1.6.6s.6 1 .6 1.7c0 .6-.2 1.2-.6 1.7-.5.6-1.1.9-1.9.9-.7 0-1.2-.2-1.6-.5s-.6-.8-.7-1.4zm5.6-1.7c0-.8.1-1.5.3-2s.4-.9.8-1.2.8-.4 1.3-.4c.4 0 .7.1 1 .2.3.2.5.4.7.7.2.3.3.6.4 1.1s.2 1 .2 1.7c0 .8-.1 1.5-.3 2-.2.5-.4.9-.8 1.2s-.8.4-1.3.4c-.7 0-1.2-.2-1.6-.7-.5-.7-.7-1.6-.7-3zm.9 0c0 1.2.1 2 .4 2.3s.6.6 1 .6.7-.2 1-.6.4-1.2.4-2.3c0-1.2-.1-2-.4-2.3s-.6-.6-1-.6-.7.2-1 .5c-.3.4-.4 1.3-.4 2.4zm6-3.7c.5 0 .9.2 1.2.5s.4.8.4 1.3c0 .6-.2 1-.4 1.3-.3.3-.7.5-1.1.5-.5 0-.9-.2-1.2-.5-.3-.3-.4-.8-.4-1.3 0-.6.1-1 .4-1.4s.7-.4 1.1-.4zm0 .6c-.3 0-.5.1-.6.3s-.2.5-.2.9.1.7.2.9.4.3.6.3c.3 0 .5-.1.6-.3.2-.2.2-.5.2-.9s-.1-.7-.2-.9-.3-.3-.6-.3zm-24.5-24.7c0-.8.1-1.5.3-2 .2-.5.4-.9.8-1.2.3-.3.8-.4 1.3-.4.4 0 .7.1 1 .2.3.2.5.4.7.7.2.3.3.6.4 1.1s.2 1 .2 1.7c0 .8-.1 1.5-.3 2-.2.5-.4.9-.8 1.2-.3.3-.8.4-1.3.4-.7 0-1.2-.2-1.6-.7-.5-.7-.7-1.7-.7-3zm.9 0c0 1.2.1 2 .4 2.3.3.4.6.6 1 .6s.7-.2 1-.6c.3-.4.4-1.2.4-2.3 0-1.2-.1-2-.4-2.3-.3-.4-.6-.6-1-.6s-.7.2-1 .5c-.2.4-.4 1.2-.4 2.4zm4.7 1.6l.9-.1c.1.4.2.8.5 1s.5.3.9.3.8-.2 1.1-.5.4-.7.4-1.3c0-.5-.1-.9-.4-1.2-.3-.3-.7-.4-1.1-.4-.3 0-.5.1-.8.2-.2.1-.4.3-.5.5l-.8-.1.7-3.7h3.6v.8h-2.9l-.4 1.9c.4-.3.9-.4 1.4-.4.6 0 1.2.2 1.6.6s.6 1 .6 1.7c0 .6-.2 1.2-.6 1.7-.5.6-1.1.9-1.9.9-.7 0-1.2-.2-1.6-.5-.4-.3-.7-.8-.7-1.4zm6.9-5.4c.5 0 .9.2 1.2.5s.4.8.4 1.3c0 .6-.2 1-.4 1.3-.3.3-.7.5-1.1.5-.5 0-.9-.2-1.2-.5-.3-.3-.4-.8-.4-1.3 0-.6.1-1 .4-1.4s.7-.4 1.1-.4zm0 .7c-.3 0-.5.1-.6.3s-.2.5-.2.9.1.7.2.9c.2.2.4.3.6.3.3 0 .5-.1.6-.3.2-.2.2-.5.2-.9s-.1-.7-.2-.9c-.1-.2-.3-.3-.6-.3zm20.5 142.5c0-.8.1-1.5.3-2 .2-.5.4-.9.8-1.2.3-.3.8-.4 1.3-.4.4 0 .7.1 1 .2.3.2.5.4.7.7.2.3.3.6.4 1.1s.2 1 .2 1.7c0 .8-.1 1.5-.3 2-.2.5-.4.9-.8 1.2-.3.3-.8.4-1.3.4-.7 0-1.2-.2-1.6-.7-.5-.6-.7-1.6-.7-3zm.9 0c0 1.2.1 2 .4 2.3.3.4.6.6 1 .6s.7-.2 1-.6c.3-.4.4-1.2.4-2.3 0-1.2-.1-2-.4-2.3-.3-.4-.6-.6-1-.6s-.7.2-1 .5c-.3.5-.4 1.3-.4 2.4zm4.6 1.7l.9-.1c.1.5.3.9.5 1.1.2.2.5.3.9.3s.8-.1 1-.4c.3-.3.4-.6.4-1.1 0-.4-.1-.7-.4-1s-.6-.4-1-.4c-.2 0-.4 0-.6.1l.1-.8h.1c.4 0 .7-.1 1-.3.3-.2.4-.5.4-.9 0-.3-.1-.6-.3-.8-.2-.2-.5-.3-.8-.3-.3 0-.6.1-.9.3-.2.2-.4.5-.4 1l-.9-.2c.1-.6.4-1 .7-1.4s.9-.5 1.4-.5c.4 0 .8.1 1.1.3.3.2.6.4.8.7.2.3.3.6.3.9 0 .3-.1.6-.2.8s-.4.5-.7.6c.4.1.8.3 1 .6s.4.7.4 1.2c0 .6-.2 1.2-.7 1.6-.5.4-1 .7-1.7.7-.6 0-1.1-.2-1.6-.6s-.7-.8-.8-1.4zm7-5.4c.5 0 .9.2 1.2.5s.4.8.4 1.3c0 .6-.1 1-.4 1.3-.3.3-.7.5-1.1.5-.5 0-.9-.2-1.2-.5-.3-.3-.4-.8-.4-1.3 0-.6.1-1 .4-1.4s.6-.4 1.1-.4zm0 .6c-.3 0-.5.1-.6.3s-.2.5-.2.9.1.7.2.9c.2.2.4.3.6.3.3 0 .5-.1.6-.3.2-.2.2-.5.2-.9s-.1-.7-.2-.9c-.1-.2-.4-.3-.6-.3zm-12-25.9c0-.8.1-1.5.3-2 .2-.5.4-.9.8-1.2.3-.3.8-.4 1.3-.4.4 0 .7.1 1 .2.3.2.5.4.7.7.2.3.3.6.4 1.1s.2 1 .2 1.7c0 .8-.1 1.5-.3 2-.2.5-.4.9-.8 1.2-.3.3-.8.4-1.3.4-.7 0-1.2-.2-1.6-.7-.5-.7-.7-1.7-.7-3zm.9 0c0 1.2.1 2 .4 2.3.3.4.6.6 1 .6s.7-.2 1-.6c.3-.4.4-1.2.4-2.3 0-1.2-.1-2-.4-2.3-.3-.4-.6-.6-1-.6s-.7.2-1 .5c-.3.4-.4 1.2-.4 2.4zm4.8 1.9l.8-.1c.1.4.2.7.4.9.2.2.5.3.8.3.3 0 .5-.1.7-.2.2-.1.4-.3.5-.5.1-.2.2-.5.3-.8s.1-.7.1-1.1v-.2c-.2.3-.4.5-.7.7-.3.2-.6.3-1 .3-.6 0-1.1-.2-1.5-.6s-.6-1-.6-1.7.2-1.3.6-1.8c.4-.4 1-.7 1.6-.7.5 0 .9.1 1.3.4s.7.6.9 1.1.3 1.1.3 2c0 .9-.1 1.6-.3 2.2-.2.5-.5 1-.9 1.2-.4.3-.9.4-1.4.4-.6 0-1-.2-1.4-.5-.3-.3-.5-.8-.5-1.3zm3.6-3.2c0-.5-.1-.9-.4-1.2s-.6-.4-1-.4-.7.2-1 .5c-.3.3-.4.7-.4 1.2s.1.8.4 1.1c.3.3.6.4 1 .4s.7-.1 1-.4c.2-.3.4-.7.4-1.2zm3.2-2.5c.5 0 .9.2 1.2.5s.4.8.4 1.3c0 .6-.2 1-.4 1.3-.3.3-.7.5-1.1.5-.5 0-.9-.2-1.2-.5-.3-.3-.4-.8-.4-1.3 0-.6.1-1 .4-1.4s.6-.4 1.1-.4zm0 .7c-.3 0-.5.1-.6.3s-.2.5-.2.9.1.7.2.9c.2.2.4.3.6.3.3 0 .5-.1.6-.3.2-.2.2-.5.2-.9s-.1-.7-.2-.9c-.1-.2-.3-.3-.6-.3zM491.1 393h-.9v-5.6c-.2.2-.5.4-.8.6-.3.2-.7.4-.9.5v-.8c.5-.2.9-.5 1.3-.8s.6-.6.8-1h.6v7.1zm2.2-1.9l.9-.1c.1.5.3.9.5 1.1.2.2.5.3.9.3s.8-.1 1-.4c.3-.3.4-.6.4-1.1 0-.4-.1-.7-.4-1s-.6-.4-1-.4c-.2 0-.4 0-.6.1l.1-.8h.1c.4 0 .7-.1 1-.3s.4-.5.4-.9c0-.3-.1-.6-.3-.8s-.5-.3-.8-.3c-.3 0-.6.1-.9.3s-.4.5-.4 1l-.9-.2c.1-.6.4-1 .7-1.4s.9-.5 1.4-.5c.4 0 .8.1 1.1.3s.6.4.8.7c.2.3.3.6.3.9 0 .3-.1.6-.2.8s-.4.5-.7.6c.4.1.8.3 1 .6s.4.7.4 1.2c0 .6-.2 1.2-.7 1.6s-1 .7-1.7.7c-.6 0-1.1-.2-1.6-.6-.5-.3-.7-.8-.8-1.4zm7-5.4c.5 0 .9.2 1.2.5.3.3.4.8.4 1.3 0 .6-.1 1-.4 1.3s-.7.5-1.1.5c-.5 0-.9-.2-1.2-.5s-.4-.8-.4-1.3c0-.6.1-1 .4-1.4.2-.2.6-.4 1.1-.4zm0 .7c-.3 0-.5.1-.6.3-.2.2-.2.5-.2.9s.1.7.2.9c.2.2.4.3.6.3.3 0 .5-.1.6-.3s.2-.5.2-.9-.1-.7-.2-.9c-.1-.2-.4-.3-.6-.3zm-1.5-18.6v-1.7h-3.1v-.8l3.3-4.6h.7v4.6h1v.8h-1v1.7h-.9zm0-2.5V362l-2.2 3.2h2.2zm2.9.8l.8-.1c.1.4.2.7.4.9.2.2.5.3.8.3.3 0 .5-.1.7-.2.2-.1.4-.3.5-.5.1-.2.2-.5.3-.8s.1-.7.1-1.1v-.2c-.2.3-.4.5-.7.7-.3.2-.6.3-1 .3-.6 0-1.1-.2-1.5-.6s-.6-1-.6-1.7.2-1.3.6-1.8c.4-.4 1-.7 1.6-.7.5 0 .9.1 1.3.4s.7.6.9 1.1.3 1.1.3 2c0 .9-.1 1.6-.3 2.2-.2.5-.5 1-.9 1.2-.4.3-.9.4-1.4.4-.6 0-1-.2-1.4-.5-.2-.3-.4-.7-.5-1.3zm3.6-3.1c0-.5-.1-.9-.4-1.2s-.6-.4-1-.4-.7.2-1 .5c-.3.3-.4.7-.4 1.2s.1.8.4 1.1c.3.3.6.4 1 .4s.7-.1 1-.4c.3-.3.4-.7.4-1.2zm3.2-2.5c.5 0 .9.2 1.2.5s.4.8.4 1.3c0 .6-.2 1-.4 1.3-.3.3-.7.5-1.1.5-.5 0-.9-.2-1.2-.5-.3-.3-.4-.8-.4-1.3 0-.6.1-1 .4-1.4s.7-.4 1.1-.4zm0 .7c-.3 0-.5.1-.6.3s-.2.5-.2.9.1.7.2.9c.2.2.4.3.6.3.3 0 .5-.1.6-.3.2-.2.2-.5.2-.9s-.1-.7-.2-.9c-.1-.2-.3-.3-.6-.3zM396.6 484.4h-.9v-5.6c-.2.2-.5.4-.8.6-.3.2-.7.4-.9.5v-.9c.5-.2.9-.5 1.3-.8.4-.3.6-.6.8-1h.6v7.2zm2.3-1.9l.9-.1c.1.5.3.9.5 1.1.2.2.5.3.9.3s.8-.1 1-.4c.3-.3.4-.6.4-1.1 0-.4-.1-.7-.4-1-.3-.3-.6-.4-1-.4-.2 0-.4 0-.6.1l.1-.8h.1c.4 0 .7-.1 1-.3.3-.2.4-.5.4-.9 0-.3-.1-.6-.3-.8-.2-.2-.5-.3-.8-.3-.3 0-.6.1-.9.3-.2.2-.4.5-.4 1l-.8-.2c.1-.6.4-1 .7-1.4.4-.3.9-.5 1.4-.5.4 0 .8.1 1.1.3.3.2.6.4.8.7.2.3.3.6.3.9 0 .3-.1.6-.2.8s-.4.5-.7.6c.4.1.8.3 1 .6s.4.7.4 1.2c0 .6-.2 1.2-.7 1.6-.5.4-1 .7-1.7.7-.6 0-1.1-.2-1.6-.6-.6-.4-.9-.8-.9-1.4zm6.9-5.4c.5 0 .9.2 1.2.5.3.3.4.8.4 1.3 0 .6-.1 1-.4 1.3-.3.3-.7.5-1.1.5-.5 0-.9-.2-1.2-.5-.3-.3-.4-.8-.4-1.3 0-.6.1-1 .4-1.4.3-.3.7-.4 1.1-.4zm0 .6c-.3 0-.5.1-.6.3s-.2.5-.2.9.1.7.2.9c.2.2.4.3.6.3.3 0 .5-.1.6-.3.2-.2.2-.5.2-.9s-.1-.7-.2-.9c-.1-.2-.3-.3-.6-.3zm13.8-12.5l.9-.1c.1.4.2.8.5 1 .2.2.5.3.9.3s.8-.2 1.1-.5c.3-.3.4-.7.4-1.3 0-.5-.1-.9-.4-1.2-.3-.3-.7-.4-1.1-.4-.3 0-.5.1-.8.2-.2.1-.4.3-.5.5l-.8-.1.7-3.7h3.6v.8h-2.9l-.4 1.9c.4-.3.9-.4 1.4-.4.6 0 1.2.2 1.6.6.4.4.6 1 .6 1.7 0 .6-.2 1.2-.6 1.7-.5.6-1.1.9-1.9.9-.7 0-1.2-.2-1.6-.5-.4-.3-.6-.8-.7-1.4zm10.2 1v.8h-4.7c0-.2 0-.4.1-.6.1-.3.3-.6.6-1 .3-.3.6-.7 1.2-1.1.8-.6 1.3-1.1 1.6-1.5.3-.4.4-.7.4-1.1 0-.3-.1-.6-.4-.9s-.6-.4-1-.4-.8.1-1 .4-.4.6-.4 1.1l-.9-.1c.1-.7.3-1.2.7-1.5.4-.4.9-.5 1.6-.5.7 0 1.2.2 1.6.6s.6.9.6 1.4c0 .3-.1.6-.2.8-.1.3-.3.6-.6.9-.3.3-.7.7-1.4 1.3-.5.4-.9.7-1 .9-.2.2-.3.3-.4.5h3.6zm2.3-6.4c.5 0 .9.2 1.2.5.3.3.4.8.4 1.3 0 .6-.2 1-.4 1.3-.3.3-.7.5-1.1.5-.5 0-.9-.2-1.2-.5-.3-.3-.4-.8-.4-1.3 0-.6.1-1 .4-1.4.3-.2.7-.4 1.1-.4zm0 .7c-.3 0-.5.1-.6.3s-.2.5-.2.9.1.7.2.9c.2.2.4.3.6.3.3 0 .5-.1.6-.3.2-.2.2-.5.2-.9s-.1-.7-.2-.9c-.1-.3-.3-.3-.6-.3zm-174.8 59.6h-.9v-5.6c-.2.2-.5.4-.8.6-.3.2-.7.4-.9.5v-.8c.5-.2.9-.5 1.3-.8.4-.3.6-.6.8-1h.6v7.1zm2.3-3.5c0-.8.1-1.5.3-2 .2-.5.4-.9.8-1.2.3-.3.8-.4 1.3-.4.4 0 .7.1 1 .2.3.2.5.4.7.7.2.3.3.6.4 1.1.1.4.2 1 .2 1.7 0 .8-.1 1.5-.3 2-.2.5-.4.9-.8 1.2-.3.3-.8.4-1.3.4-.7 0-1.2-.2-1.6-.7-.5-.7-.7-1.7-.7-3zm.9 0c0 1.2.1 2 .4 2.3.3.4.6.6 1 .6s.7-.2 1-.6.4-1.2.4-2.3c0-1.2-.1-2-.4-2.3-.3-.4-.6-.6-1-.6s-.7.2-1 .5c-.3.4-.4 1.2-.4 2.4zm6-3.8c.5 0 .9.2 1.2.5.3.3.4.8.4 1.3 0 .6-.1 1-.4 1.3-.3.3-.7.5-1.1.5-.5 0-.9-.2-1.2-.5-.3-.3-.4-.8-.4-1.3 0-.6.1-1 .4-1.4.3-.2.7-.4 1.1-.4zm0 .7c-.3 0-.5.1-.6.3s-.2.5-.2.9.1.7.2.9.4.3.6.3c.3 0 .5-.1.6-.3s.2-.5.2-.9-.1-.7-.2-.9c-.1-.2-.3-.3-.6-.3zm20.9 4.7l.9-.1c.1.5.3.9.5 1.1.2.2.5.3.9.3s.8-.1 1-.4c.3-.3.4-.6.4-1.1 0-.4-.1-.7-.4-1-.3-.3-.6-.4-1-.4-.2 0-.4 0-.6.1l.1-.8h.1c.4 0 .7-.1 1-.3.3-.2.4-.5.4-.9 0-.3-.1-.6-.3-.8-.2-.2-.5-.3-.8-.3-.3 0-.6.1-.9.3-.2.2-.4.5-.4 1l-.9-.2c.1-.6.4-1 .7-1.4.4-.3.9-.5 1.4-.5.4 0 .8.1 1.1.3.3.2.6.4.8.7.2.3.3.6.3.9 0 .3-.1.6-.2.8s-.4.5-.7.6c.4.1.8.3 1 .6s.4.7.4 1.2c0 .6-.2 1.2-.7 1.6-.5.4-1 .7-1.7.7-.6 0-1.1-.2-1.6-.6-.5-.3-.7-.8-.8-1.4zm5.6-1.6c0-.8.1-1.5.3-2 .2-.5.4-.9.8-1.2.3-.3.8-.4 1.3-.4.4 0 .7.1 1 .2.3.2.5.4.7.7.2.3.3.6.4 1.1.1.4.2 1 .2 1.7 0 .8-.1 1.5-.3 2-.2.5-.4.9-.8 1.2-.3.3-.8.4-1.3.4-.7 0-1.2-.2-1.6-.7-.5-.7-.7-1.7-.7-3zm.9 0c0 1.2.1 2 .4 2.3.3.4.6.6 1 .6s.7-.2 1-.6c.3-.4.4-1.2.4-2.3 0-1.2-.1-2-.4-2.3-.3-.4-.6-.6-1-.6s-.7.2-1 .5c-.3.4-.4 1.2-.4 2.4zm6-3.8c.5 0 .9.2 1.2.5.3.3.4.8.4 1.3 0 .6-.1 1-.4 1.3-.3.3-.7.5-1.1.5-.5 0-.9-.2-1.2-.5-.3-.3-.4-.8-.4-1.3 0-.6.1-1 .4-1.4.3-.2.7-.4 1.1-.4zm0 .7c-.3 0-.5.1-.6.3s-.2.5-.2.9.1.7.2.9c.2.2.4.3.6.3.3 0 .5-.1.6-.3.2-.2.2-.5.2-.9s-.1-.7-.2-.9c-.1-.2-.3-.3-.6-.3zm-182-45.7c0-.8.1-1.5.3-2 .2-.5.4-.9.8-1.2.3-.3.8-.4 1.3-.4.4 0 .7.1 1 .2.3.2.5.4.7.7.2.3.3.6.4 1.1.1.4.2 1 .2 1.7 0 .8-.1 1.5-.3 2-.2.5-.4.9-.8 1.2-.3.3-.8.4-1.3.4-.7 0-1.2-.2-1.6-.7-.5-.7-.7-1.7-.7-3zm.9 0c0 1.2.1 2 .4 2.3.3.4.6.6 1 .6s.7-.2 1-.6.4-1.2.4-2.3c0-1.2-.1-2-.4-2.3-.3-.4-.6-.6-1-.6s-.7.2-1 .5c-.2.4-.4 1.2-.4 2.4zm9.2-1.9l-.9.1c-.1-.3-.2-.6-.3-.8-.2-.3-.5-.4-.9-.4-.3 0-.5.1-.7.2-.3.2-.5.5-.7.9-.2.4-.2.9-.2 1.7.2-.3.5-.6.8-.7s.6-.2 1-.2c.6 0 1.1.2 1.5.6.4.4.6 1 .6 1.7 0 .4-.1.9-.3 1.3s-.5.7-.8.9-.7.3-1.2.3c-.7 0-1.3-.3-1.8-.8s-.7-1.4-.7-2.7c0-1.4.3-2.4.8-3 .4-.5 1-.8 1.8-.8.6 0 1 .2 1.4.5.3.2.6.6.6 1.2zm-3.6 3.1c0 .3.1.6.2.9.1.3.3.5.5.6.2.1.5.2.7.2.4 0 .7-.2 1-.4.3-.3.4-.7.4-1.2s-.1-.9-.4-1.2c-.3-.3-.6-.4-1-.4s-.7.1-1 .4c-.2.2-.4.6-.4 1.1zm6-5c.5 0 .9.2 1.2.5.3.3.4.8.4 1.3 0 .6-.1 1-.4 1.3-.3.3-.7.5-1.1.5-.5 0-.9-.2-1.2-.5-.3-.3-.4-.8-.4-1.3 0-.6.1-1 .4-1.4.3-.2.7-.4 1.1-.4zm0 .7c-.3 0-.5.1-.6.3s-.2.5-.2.9.1.7.2.9.4.3.6.3c.3 0 .5-.1.6-.3s.2-.5.2-.9-.1-.7-.2-.9c-.1-.3-.3-.3-.6-.3zm15.4 22.2v-1.7h-3.1v-.8l3.3-4.6h.7v4.6h1v.8h-1v1.7h-.9zm0-2.6v-3.2l-2.2 3.2h2.2zm2.8-3.7v-.8h4.6v.7c-.5.5-.9 1.1-1.4 1.9-.4.8-.8 1.6-1 2.5-.2.6-.3 1.3-.3 2h-.9c0-.6.1-1.2.3-2 .2-.8.5-1.6.9-2.3.4-.7.8-1.4 1.3-1.9h-3.5zm6.9-1c.5 0 .9.2 1.2.5.3.3.4.8.4 1.3 0 .6-.1 1-.4 1.3-.3.3-.7.5-1.1.5-.5 0-.9-.2-1.2-.5-.3-.3-.4-.8-.4-1.3 0-.6.1-1 .4-1.4.3-.3.6-.4 1.1-.4zm0 .6c-.3 0-.5.1-.6.3s-.2.5-.2.9.1.7.2.9.4.3.6.3c.3 0 .5-.1.6-.3s.2-.5.2-.9-.1-.7-.2-.9c-.1-.2-.3-.3-.6-.3zm39.1-116.5h-.9v-5.6c-.2.2-.5.4-.8.6s-.7.4-.9.5v-.8c.5-.2.9-.5 1.3-.8s.6-.6.8-1h.6v7.1zm2.3-1.8l.9-.1c.1.5.3.9.5 1.1s.5.3.9.3.8-.1 1-.4.4-.6.4-1.1c0-.4-.1-.7-.4-1s-.6-.4-1-.4c-.2 0-.4 0-.6.1l.1-.8h.1c.4 0 .7-.1 1-.3s.4-.5.4-.9c0-.3-.1-.6-.3-.8s-.5-.3-.8-.3c-.3 0-.6.1-.9.3s-.4.5-.4 1l-.9-.2c.1-.6.4-1 .7-1.4s.9-.5 1.4-.5c.4 0 .8.1 1.1.3s.6.4.8.7.3.6.3.9c0 .3-.1.6-.2.8s-.4.5-.7.6c.4.1.8.3 1 .6s.4.7.4 1.2c0 .6-.2 1.2-.7 1.6s-1 .7-1.7.7c-.6 0-1.1-.2-1.6-.6s-.8-.8-.8-1.4zm5.7-4.4v-1h.9v.8c0 .4-.1.8-.2.9-.1.3-.4.5-.7.6l-.2-.3c.2-.1.3-.2.4-.3s.1-.4.1-.6h-.3zm10.5 17.8v.8h-4.7c0-.2 0-.4.1-.6.1-.3.3-.6.6-1s.6-.7 1.1-1.1c.8-.6 1.3-1.1 1.6-1.5s.4-.7.4-1.1c0-.3-.1-.6-.4-.9s-.6-.4-1-.4-.8.1-1 .4-.4.6-.4 1.1l-.9-.1c.1-.7.3-1.2.7-1.5s.9-.5 1.6-.5c.7 0 1.2.2 1.6.6s.6.9.6 1.4c0 .3-.1.6-.2.8s-.3.6-.6.9-.7.7-1.4 1.3c-.5.4-.9.7-1 .9s-.3.3-.4.5h3.7zm1-5.4v-.8h4.6v.7c-.5.5-.9 1.1-1.4 1.9s-.8 1.6-1 2.5c-.2.6-.3 1.3-.3 2h-.9c0-.6.1-1.2.3-2s.5-1.6.9-2.3.8-1.4 1.3-1.9h-3.5zm5.7 0v-1h.9v.8c0 .4-.1.8-.2.9-.1.3-.4.5-.7.6l-.2-.3c.2-.1.3-.2.4-.3s.1-.4.1-.6h-.3zm32.6 18.1v.8h-4.7c0-.2 0-.4.1-.6.1-.3.3-.6.6-1s.6-.7 1.1-1.1c.8-.6 1.3-1.1 1.6-1.5s.4-.7.4-1.1c0-.3-.1-.6-.4-.9s-.6-.4-1-.4-.8.1-1 .4-.4.6-.4 1.1l-.9-.1c.1-.7.3-1.2.7-1.5s.9-.5 1.6-.5c.7 0 1.2.2 1.6.6s.6.9.6 1.4c0 .3-.1.6-.2.8s-.3.6-.6.9-.7.7-1.4 1.3c-.5.4-.9.7-1 .9s-.3.3-.4.5h3.7zm5.5-4.5l-.9.1c-.1-.3-.2-.6-.3-.8-.2-.3-.5-.4-.9-.4-.3 0-.5.1-.7.2-.3.2-.5.5-.7.9s-.2.9-.2 1.7c.2-.3.5-.6.8-.7s.6-.2 1-.2c.6 0 1.1.2 1.5.6s.6 1 .6 1.7c0 .4-.1.9-.3 1.3s-.5.7-.8.9-.7.3-1.2.3c-.7 0-1.3-.3-1.8-.8s-.7-1.4-.7-2.7c0-1.4.3-2.4.8-3 .4-.5 1-.8 1.8-.8.6 0 1 .2 1.4.5s.6.6.6 1.2zm-3.6 3.1c0 .3.1.6.2.9s.3.5.5.6.5.2.7.2c.4 0 .7-.1 1-.4s.4-.7.4-1.2-.1-.9-.4-1.2-.6-.4-1-.4-.7.1-1 .4-.4.6-.4 1.1zm4.8-3.9v-1h.9v.8c0 .4-.1.8-.2.9-.1.3-.4.5-.7.6l-.2-.3c.2-.1.3-.2.4-.3s.1-.4.1-.6h-.3zm9.7 4.5c0-.8.1-1.5.3-2s.4-.9.8-1.2.8-.4 1.3-.4c.4 0 .7.1 1 .2s.5.4.7.7.3.6.4 1.1.2 1 .2 1.7c0 .8-.1 1.5-.3 2s-.4.9-.8 1.2-.8.4-1.3.4c-.7 0-1.2-.2-1.6-.7-.5-.7-.7-1.7-.7-3zm.9 0c0 1.2.1 2 .4 2.3s.6.6 1 .6.7-.2 1-.6.4-1.2.4-2.3c0-1.2-.1-2-.4-2.3s-.6-.6-1-.6-.7.2-1 .5c-.2.4-.4 1.2-.4 2.4zm7.5 3.5V389h-3.1v-.8l3.3-4.6h.7v4.6h1v.8h-1v1.7h-.9zm0-2.5V385l-2.2 3.2h2.2zm2.9-3.7v-1h.9v.8c0 .4-.1.8-.2.9-.1.3-.4.5-.7.6l-.2-.3c.2-.1.3-.2.4-.3s.1-.4.1-.6h-.3zm32.4-.7h-.9v-5.6c-.2.2-.5.4-.8.6-.3.2-.7.4-.9.5v-.8c.5-.2.9-.5 1.3-.8.4-.3.6-.6.8-1h.6v7.1zm4.8 0h-.9v-5.6c-.2.2-.5.4-.8.6-.3.2-.7.4-.9.5v-.8c.5-.2.9-.5 1.3-.8.4-.3.6-.6.8-1h.6v7.1zm2.4-6.2v-1h.9v.8c0 .4 0 .8-.2.9-.1.3-.4.5-.7.6l-.2-.3c.2-.1.3-.2.4-.3.1-.2.1-.4.1-.6h-.3zm.8-3.8l.9-.1c.1.4.2.8.5 1s.5.3.9.3.8-.2 1.1-.5.4-.7.4-1.3c0-.5-.1-.9-.4-1.2-.3-.3-.7-.4-1.1-.4-.3 0-.5.1-.8.2-.2.1-.4.3-.5.5l-.8-.1.7-3.7h3.6v.8h-3l-.4 1.9c.4-.3.9-.4 1.4-.4.6 0 1.2.2 1.6.6s.6 1 .6 1.7c0 .6-.2 1.2-.6 1.7-.5.6-1.1.9-1.9.9-.7 0-1.2-.2-1.6-.5-.3-.3-.6-.8-.6-1.4zm5.5 0l.9-.1c.1.4.2.8.5 1s.5.3.9.3.8-.2 1.1-.5.4-.7.4-1.3c0-.5-.1-.9-.4-1.2-.3-.3-.7-.4-1.1-.4-.3 0-.5.1-.8.2-.2.1-.4.3-.5.5l-.8-.1.7-3.7h3.6v.8h-2.9l-.4 1.9c.4-.3.9-.4 1.4-.4.6 0 1.2.2 1.6.6s.6 1 .6 1.7c0 .6-.2 1.2-.6 1.7-.5.6-1.1.9-1.9.9-.7 0-1.2-.2-1.6-.5-.4-.3-.6-.8-.7-1.4zm5.8-4.3v-1h.9v.8c0 .4-.1.8-.2.9-.1.3-.4.5-.7.6l-.2-.3c.2-.1.3-.2.4-.3.1-.2.1-.4.1-.6h-.3zm6.4-1.2v-1.7h-3.1v-.8l3.3-4.6h.7v4.6h1v.8h-1v1.7h-.9zm0-2.5v-3.2l-2.2 3.2h2.2zm4.1-1.4c-.4-.1-.6-.3-.8-.6s-.3-.5-.3-.9c0-.5.2-1 .6-1.3.4-.4.9-.5 1.5-.5s1.1.2 1.5.5.6.8.6 1.3c0 .3-.1.6-.3.9-.2.2-.4.4-.8.6.4.1.8.4 1 .7s.3.7.3 1.1c0 .6-.2 1.1-.6 1.5-.4.4-1 .6-1.7.6s-1.3-.2-1.7-.6c-.4-.4-.6-.9-.6-1.6 0-.5.1-.9.4-1.2.2-.1.5-.3.9-.5zm-.4 1.9c0 .3.1.5.2.7.1.2.3.4.5.5s.5.2.8.2c.4 0 .8-.1 1-.4s.4-.6.4-1-.1-.8-.4-1c-.3-.3-.6-.4-1.1-.4-.4 0-.8.1-1 .4-.3.2-.4.6-.4 1zm.3-3.3c0 .3.1.6.3.8.2.2.5.3.8.3.3 0 .6-.1.8-.3.2-.2.3-.5.3-.8 0-.3-.1-.6-.3-.8-.2-.2-.5-.3-.8-.3-.3 0-.6.1-.8.3-.2.2-.3.5-.3.8zm4.5-.9v-1h.9v.8c0 .4-.1.8-.2.9-.1.3-.4.5-.7.6l-.2-.3c.2-.1.3-.2.4-.3.1-.2.1-.4.1-.6h-.3zm11-10.5v-1.7h-3.1v-.8l3.3-4.6h.7v4.6h1v.8h-1v1.7h-.9zm0-2.5v-3.2l-2.2 3.2h2.2zm5.6 2.5v-1.7h-3.1v-.8l3.3-4.6h.7v4.6h1v.8h-1v1.7h-.9zm0-2.5v-3.2l-2.2 3.2h2.2zm2.9-3.7v-1h.9v.8c0 .4-.1.8-.2.9-.1.3-.4.5-.7.6l-.2-.3c.2-.1.3-.2.4-.3.1-.2.1-.4.1-.6h-.3zm20.1-106.7h-.9v-5.6c-.2.2-.5.4-.8.6-.3.2-.7.4-.9.5v-.8c.5-.2.9-.5 1.3-.8.4-.3.6-.6.8-1h.6v7.1zm5.1 0V237h-3.1v-.8l3.3-4.6h.7v4.6h1v.8h-1v1.7h-.9zm0-2.5V233l-2.2 3.2h2.2zm2.9-3.7v-1h.9v.8c0 .4 0 .8-.2.9-.1.3-.4.5-.7.6l-.2-.3c.2-.1.3-.2.4-.3.1-.2.1-.4.1-.6h-.3zM169 386.9c0-.8.1-1.5.3-2s.4-.9.8-1.2.8-.4 1.3-.4c.4 0 .7.1 1 .2s.5.4.7.7.3.6.4 1.1.2 1 .2 1.7c0 .8-.1 1.5-.3 2s-.4.9-.8 1.2-.8.4-1.3.4c-.7 0-1.2-.2-1.6-.7-.5-.7-.7-1.6-.7-3zm.9 0c0 1.2.1 2 .4 2.3s.6.6 1 .6.7-.2 1-.6.4-1.2.4-2.3c0-1.2-.1-2-.4-2.3s-.6-.6-1-.6-.7.2-1 .5c-.2.4-.4 1.2-.4 2.4zm8 3.5h-.9v-5.6c-.2.2-.5.4-.8.6s-.7.4-.9.5v-.9c.5-.2.9-.5 1.3-.8s.6-.6.8-1h.6v7.2zm3.6-7.2c.5 0 .9.2 1.2.5s.4.8.4 1.3c0 .6-.1 1-.4 1.3s-.7.5-1.1.5c-.5 0-.9-.2-1.2-.5s-.4-.8-.4-1.3c0-.6.1-1 .4-1.4s.7-.4 1.1-.4zm0 .6c-.3 0-.5.1-.6.3s-.2.5-.2.9.1.7.2.9.4.3.6.3c.3 0 .5-.1.6-.3s.2-.5.2-.9-.1-.7-.2-.9-.3-.3-.6-.3zm11.4 18.3c0-.8.1-1.5.3-2s.4-.9.8-1.2.8-.4 1.3-.4c.4 0 .7.1 1 .2s.5.4.7.7.3.6.4 1.1.2 1 .2 1.7c0 .8-.1 1.5-.3 2s-.4.9-.8 1.2-.8.4-1.3.4c-.7 0-1.2-.2-1.6-.7-.5-.7-.7-1.6-.7-3zm.9 0c0 1.2.1 2 .4 2.3s.6.6 1 .6.7-.2 1-.6.4-1.2.4-2.3c0-1.2-.1-2-.4-2.3s-.6-.6-1-.6-.7.2-1 .5c-.3.5-.4 1.3-.4 2.4zm8 3.6h-.9v-5.6c-.2.2-.5.4-.8.6s-.7.4-.9.5v-.8c.5-.2.9-.5 1.3-.8s.6-.6.8-1h.6v7.1zm3.6-7.3c.5 0 .9.2 1.2.5s.4.8.4 1.3c0 .6-.1 1-.4 1.3s-.7.5-1.1.5c-.5 0-.9-.2-1.2-.5s-.4-.8-.4-1.3c0-.6.1-1 .4-1.4s.7-.4 1.1-.4zm0 .6c-.3 0-.5.1-.6.3s-.2.5-.2.9.1.7.2.9.4.3.6.3c.3 0 .5-.1.6-.3s.2-.5.2-.9-.1-.7-.2-.9-.3-.3-.6-.3zm40.4 21.9c0-.8.1-1.5.3-2s.4-.9.8-1.2.8-.4 1.3-.4c.4 0 .7.1 1 .2s.5.4.7.7.3.6.4 1.1.2 1 .2 1.7c0 .8-.1 1.5-.3 2s-.4.9-.8 1.2-.8.4-1.3.4c-.7 0-1.2-.2-1.6-.7-.4-.7-.7-1.6-.7-3zm.9 0c0 1.2.1 2 .4 2.3s.6.6 1 .6.7-.2 1-.6.4-1.2.4-2.3c0-1.2-.1-2-.4-2.3s-.6-.6-1-.6-.7.2-1 .5c-.2.4-.4 1.2-.4 2.4zm8 3.5h-.9v-5.6c-.2.2-.5.4-.8.6s-.7.4-.9.5v-.8c.5-.2.9-.5 1.3-.8s.6-.6.8-1h.6v7.1zm3.7-7.2c.5 0 .9.2 1.2.5s.4.8.4 1.3c0 .6-.1 1-.4 1.3s-.7.5-1.1.5c-.5 0-.9-.2-1.2-.5s-.4-.8-.4-1.3c0-.6.1-1 .4-1.4s.6-.4 1.1-.4zm0 .6c-.3 0-.5.1-.6.3s-.2.5-.2.9.1.7.2.9.4.3.6.3c.3 0 .5-.1.6-.3s.2-.5.2-.9-.1-.7-.2-.9-.4-.3-.6-.3zm15.2 7h-.9v-5.6c-.2.2-.5.4-.8.6s-.7.4-.9.5v-.8c.5-.2.9-.5 1.3-.8s.6-.6.8-1h.6v7.1zm2.3-3.5c0-.8.1-1.5.3-2s.4-.9.8-1.2.8-.4 1.3-.4c.4 0 .7.1 1 .2s.5.4.7.7.3.6.4 1.1.2 1 .2 1.7c0 .8-.1 1.5-.3 2s-.4.9-.8 1.2-.8.4-1.3.4c-.7 0-1.2-.2-1.6-.7-.5-.7-.7-1.7-.7-3zm.9 0c0 1.2.1 2 .4 2.3s.6.6 1 .6.7-.2 1-.6.4-1.2.4-2.3c0-1.2-.1-2-.4-2.3s-.6-.6-1-.6-.7.2-1 .5c-.2.4-.4 1.2-.4 2.4zm6.1-3.8c.5 0 .9.2 1.2.5s.4.8.4 1.3c0 .6-.1 1-.4 1.3-.3.3-.7.5-1.1.5-.5 0-.9-.2-1.2-.5s-.4-.8-.4-1.3c0-.6.1-1 .4-1.4s.6-.4 1.1-.4zm0 .7c-.3 0-.5.1-.6.3s-.2.5-.2.9.1.7.2.9.4.3.6.3c.3 0 .5-.1.6-.3.2-.2.2-.5.2-.9s-.1-.7-.2-.9c-.2-.2-.4-.3-.6-.3zm38-7.5c0-.8.1-1.5.3-2 .2-.5.4-.9.8-1.2.3-.3.8-.4 1.3-.4.4 0 .7.1 1 .2.3.2.5.4.7.7.2.3.3.6.4 1.1s.2 1 .2 1.7c0 .8-.1 1.5-.3 2-.2.5-.4.9-.8 1.2-.3.3-.8.4-1.3.4-.7 0-1.2-.2-1.6-.7-.5-.6-.7-1.6-.7-3zm.9 0c0 1.2.1 2 .4 2.3.3.4.6.6 1 .6s.7-.2 1-.6c.3-.4.4-1.2.4-2.3 0-1.2-.1-2-.4-2.3-.3-.4-.6-.6-1-.6s-.7.2-1 .5c-.2.5-.4 1.3-.4 2.4zm4.7 1.7l.9-.1c.1.5.3.9.5 1.1.2.2.5.3.9.3s.8-.1 1-.4c.3-.3.4-.6.4-1.1 0-.4-.1-.7-.4-1s-.6-.4-1-.4c-.2 0-.4 0-.6.1l.1-.8h.1c.4 0 .7-.1 1-.3.3-.2.4-.5.4-.9 0-.3-.1-.6-.3-.8-.2-.2-.5-.3-.8-.3-.3 0-.6.1-.9.3-.2.2-.4.5-.4 1l-.9-.2c.1-.6.4-1 .7-1.4s.9-.5 1.4-.5c.4 0 .8.1 1.1.3.3.2.6.4.8.7.2.3.3.6.3.9 0 .3-.1.6-.2.8s-.4.5-.7.6c.4.1.8.3 1 .6s.4.7.4 1.2c0 .6-.2 1.2-.7 1.6-.5.4-1 .7-1.7.7-.6 0-1.1-.2-1.6-.6s-.8-.8-.8-1.4zm6.9-5.4c.5 0 .9.2 1.2.5s.4.8.4 1.3c0 .6-.1 1-.4 1.3-.3.3-.7.5-1.1.5-.5 0-.9-.2-1.2-.5-.3-.3-.4-.8-.4-1.3 0-.6.1-1 .4-1.4s.7-.4 1.1-.4zm0 .6c-.3 0-.5.1-.6.3s-.2.5-.2.9.1.7.2.9c.2.2.4.3.6.3.3 0 .5-.1.6-.3.2-.2.2-.5.2-.9s-.1-.7-.2-.9c-.1-.2-.3-.3-.6-.3zm1.9-2.2c0-.8.1-1.5.3-2 .2-.5.4-.9.8-1.2.3-.3.8-.4 1.3-.4.4 0 .7.1 1 .2.3.2.5.4.7.7.2.3.3.6.4 1.1s.2 1 .2 1.7c0 .8-.1 1.5-.3 2-.2.5-.4.9-.8 1.2-.3.3-.8.4-1.3.4-.7 0-1.2-.2-1.6-.7-.5-.7-.7-1.6-.7-3zm.9 0c0 1.2.1 2 .4 2.3.3.4.6.6 1 .6s.7-.2 1-.6c.3-.4.4-1.2.4-2.3 0-1.2-.1-2-.4-2.3-.3-.4-.6-.6-1-.6s-.7.2-1 .5c-.3.4-.4 1.2-.4 2.4zm4.7 1.6l.9-.1c.1.5.3.9.5 1.1.2.2.5.3.9.3s.8-.1 1-.4c.3-.3.4-.6.4-1.1 0-.4-.1-.7-.4-1s-.6-.4-1-.4c-.2 0-.4 0-.6.1l.1-.8h.1c.4 0 .7-.1 1-.3.3-.2.4-.5.4-.9 0-.3-.1-.6-.3-.8-.2-.2-.5-.3-.8-.3-.3 0-.6.1-.9.3-.2.2-.4.5-.4 1l-.9-.2c.1-.6.4-1 .7-1.4s.9-.5 1.4-.5c.4 0 .8.1 1.1.3.3.2.6.4.8.7.2.3.3.6.3.9 0 .3-.1.6-.2.8s-.4.5-.7.6c.4.1.8.3 1 .6s.4.7.4 1.2c0 .6-.2 1.2-.7 1.6-.5.4-1 .7-1.7.7-.6 0-1.1-.2-1.6-.6s-.8-.8-.8-1.4zm6.9-5.3c.5 0 .9.2 1.2.5s.4.8.4 1.3c0 .6-.1 1-.4 1.3-.3.3-.7.5-1.1.5-.5 0-.9-.2-1.2-.5-.3-.3-.4-.8-.4-1.3 0-.6.1-1 .4-1.4s.6-.4 1.1-.4zm0 .6c-.3 0-.5.1-.6.3s-.2.5-.2.9.1.7.2.9c.2.2.4.3.6.3.3 0 .5-.1.6-.3.2-.2.2-.5.2-.9s-.1-.7-.2-.9c-.1-.2-.3-.3-.6-.3zm11.3-4.9h-.9v-5.6c-.2.2-.5.4-.8.6-.3.2-.7.4-.9.5v-.9c.5-.2.9-.5 1.3-.8.4-.3.6-.6.8-1h.6v7.2zm5.1 0v-1.7h-3.1v-.8l3.3-4.6h.7v4.6h1v.8h-1v1.7h-.9zm0-2.5v-3.2l-2.2 3.2h2.2zm4.1-4.8c.5 0 .9.2 1.2.5s.4.8.4 1.3c0 .6-.1 1-.4 1.3-.3.3-.7.5-1.1.5-.5 0-.9-.2-1.2-.5-.3-.3-.4-.8-.4-1.3 0-.6.1-1 .4-1.4s.6-.4 1.1-.4zm0 .7c-.3 0-.5.1-.6.3s-.2.5-.2.9.1.7.2.9c.2.2.4.3.6.3.3 0 .5-.1.6-.3.2-.2.2-.5.2-.9s-.1-.7-.2-.9c-.1-.3-.3-.3-.6-.3zm16.7-17.6v.8h-4.7c0-.2 0-.4.1-.6.1-.3.3-.6.6-1 .3-.3.6-.7 1.1-1.1.8-.6 1.3-1.1 1.6-1.5s.4-.7.4-1.1c0-.3-.1-.6-.4-.9s-.6-.4-1-.4-.8.1-1 .4-.4.6-.4 1.1l-.9-.1c.1-.7.3-1.2.7-1.5.4-.4.9-.5 1.6-.5.7 0 1.2.2 1.6.6s.6.9.6 1.4c0 .3-.1.6-.2.8s-.3.6-.6.9c-.3.3-.7.7-1.4 1.3-.5.4-.9.7-1 .9-.1.2-.3.3-.4.5h3.7zm1-5.4v-.8h4.6v.7c-.5.5-.9 1.1-1.4 1.9-.4.8-.8 1.6-1 2.5-.2.6-.3 1.3-.3 2h-.9c0-.6.1-1.2.3-2 .2-.8.5-1.6.9-2.3s.8-1.4 1.3-1.9H386zm6.9-1.1c.5 0 .9.2 1.2.5s.4.8.4 1.3c0 .6-.1 1-.4 1.3-.3.3-.7.5-1.1.5-.5 0-.9-.2-1.2-.5-.3-.3-.4-.8-.4-1.3 0-.6.1-1 .4-1.4s.6-.4 1.1-.4zm0 .7c-.3 0-.5.1-.6.3s-.2.5-.2.9.1.7.2.9c.2.2.4.3.6.3.3 0 .5-.1.6-.3.2-.2.2-.5.2-.9s-.1-.7-.2-.9c-.1-.2-.4-.3-.6-.3zm28.3-140.1v.8h-4.7c0-.2 0-.4.1-.6.1-.3.3-.6.6-1 .3-.3.6-.7 1.1-1.1.8-.6 1.3-1.1 1.6-1.5s.4-.7.4-1.1c0-.3-.1-.6-.4-.9s-.6-.4-1-.4-.8.1-1 .4-.4.6-.4 1.1l-.9-.1c.1-.7.3-1.2.7-1.5.4-.4.9-.5 1.6-.5.7 0 1.2.2 1.6.6s.6.9.6 1.4c0 .3-.1.6-.2.8s-.3.6-.6.9c-.3.3-.7.7-1.4 1.3-.5.4-.9.7-1 .9-.1.2-.3.3-.4.5h3.7zm.9-1l.9-.1c.1.4.2.8.5 1s.5.3.9.3.8-.2 1.1-.5.4-.7.4-1.3c0-.5-.1-.9-.4-1.2-.3-.3-.7-.4-1.1-.4-.3 0-.5.1-.8.2-.2.1-.4.3-.5.5l-.8-.1.7-3.7h3.6v.8h-2.9l-.4 1.9c.4-.3.9-.4 1.4-.4.6 0 1.2.2 1.6.6s.6 1 .6 1.7c0 .6-.2 1.2-.6 1.7-.5.6-1.1.9-1.9.9-.7 0-1.2-.2-1.6-.5-.4-.3-.6-.8-.7-1.4zm7-5.4c.5 0 .9.2 1.2.5s.4.8.4 1.3c0 .6-.1 1-.4 1.3-.3.3-.7.5-1.1.5-.5 0-.9-.2-1.2-.5-.3-.3-.4-.8-.4-1.3 0-.6.1-1 .4-1.4s.6-.4 1.1-.4zm0 .7c-.3 0-.5.1-.6.3s-.2.5-.2.9.1.7.2.9c.2.2.4.3.6.3.3 0 .5-.1.6-.3.2-.2.2-.5.2-.9s-.1-.7-.2-.9c-.1-.3-.4-.3-.6-.3zM375 207.3v.8h-4.7c0-.2 0-.4.1-.6.1-.3.3-.6.6-1 .3-.3.6-.7 1.1-1.1.8-.6 1.3-1.1 1.6-1.5s.4-.7.4-1.1c0-.3-.1-.6-.4-.9s-.6-.4-1-.4-.8.1-1 .4-.4.6-.4 1.1l-.9-.1c.1-.7.3-1.2.7-1.5.4-.4.9-.5 1.6-.5.7 0 1.2.2 1.6.6s.6.9.6 1.4c0 .3-.1.6-.2.8s-.3.6-.6.9c-.3.3-.7.7-1.4 1.3-.5.4-.9.7-1 .9-.1.2-.3.3-.4.5h3.7zm3.8.9v-1.7h-3.1v-.8l3.3-4.6h.7v4.6h1v.8h-1v1.7h-.9zm0-2.5v-3.2l-2.2 3.2h2.2zm2.9-3.7v-1h.9v.8c0 .4 0 .8-.2.9-.1.3-.4.5-.7.6l-.2-.3c.2-.1.3-.2.4-.3.1-.2.1-.4.1-.6h-.3zm22.2-11.5h-.9v-5.6c-.2.2-.5.4-.8.6-.3.2-.7.4-.9.5v-.8c.5-.2.9-.5 1.3-.8.4-.3.6-.6.8-1h.6v7.1zm2.3-3.6c0-.8.1-1.5.3-2 .2-.5.4-.9.8-1.2.3-.3.8-.4 1.3-.4.4 0 .7.1 1 .2.3.2.5.4.7.7.2.3.3.6.4 1.1s.2 1 .2 1.7c0 .8-.1 1.5-.3 2-.2.5-.4.9-.8 1.2-.3.3-.8.4-1.3.4-.7 0-1.2-.2-1.6-.7-.5-.7-.7-1.6-.7-3zm.9 0c0 1.2.1 2 .4 2.3.3.4.6.6 1 .6s.7-.2 1-.6c.3-.4.4-1.2.4-2.3 0-1.2-.1-2-.4-2.3-.3-.4-.6-.6-1-.6s-.7.2-1 .5c-.3.5-.4 1.3-.4 2.4zm6.1-3.7c.5 0 .9.2 1.2.5s.4.8.4 1.3c0 .6-.1 1-.4 1.3-.3.3-.7.5-1.1.5-.5 0-.9-.2-1.2-.5-.3-.3-.4-.8-.4-1.3 0-.6.1-1 .4-1.4s.6-.4 1.1-.4zm0 .6c-.3 0-.5.1-.6.3s-.2.5-.2.9.1.7.2.9c.2.2.4.3.6.3.3 0 .5-.1.6-.3.2-.2.2-.5.2-.9s-.1-.7-.2-.9c-.2-.2-.4-.3-.6-.3zm-145.8-37.1l.9-.1c.1.5.3.9.5 1.1s.5.3.9.3.8-.1 1-.4.4-.6.4-1.1c0-.4-.1-.7-.4-1s-.6-.4-1-.4c-.2 0-.4 0-.6.1l.1-.8h.1c.4 0 .7-.1 1-.3s.4-.5.4-.9c0-.3-.1-.6-.3-.8s-.5-.3-.8-.3c-.3 0-.6.1-.9.3s-.4.5-.4 1l-.9-.2c.1-.6.4-1 .7-1.4s.9-.5 1.4-.5c.4 0 .8.1 1.1.3s.6.4.8.7.3.6.3.9c0 .3-.1.6-.2.8s-.4.5-.7.6c.4.1.8.3 1 .6s.4.7.4 1.2c0 .6-.2 1.2-.7 1.6s-1 .7-1.7.7c-.6 0-1.1-.2-1.6-.6s-.7-.8-.8-1.4zm5.6-1.6c0-.8.1-1.5.3-2s.4-.9.8-1.2.8-.4 1.3-.4c.4 0 .7.1 1 .2s.5.4.7.7.3.6.4 1.1.2 1 .2 1.7c0 .8-.1 1.5-.3 2s-.4.9-.8 1.2-.8.4-1.3.4c-.7 0-1.2-.2-1.6-.7-.5-.7-.7-1.7-.7-3zm.9 0c0 1.2.1 2 .4 2.3s.6.6 1 .6.7-.2 1-.6.4-1.2.4-2.3c0-1.2-.1-2-.4-2.3s-.6-.6-1-.6-.7.2-1 .5c-.2.4-.4 1.2-.4 2.4zm4.9-2.7v-1h.9v.8c0 .4-.1.8-.2.9-.1.3-.4.5-.7.6l-.2-.3c.2-.1.3-.2.4-.3s.1-.4.1-.6h-.3zm-10.7-27.8h-.9V109c-.2.2-.5.4-.8.6s-.7.4-.9.5v-.8c.5-.2.9-.5 1.3-.8s.6-.6.8-1h.6v7.1zm2.2-3.6c0-.8.1-1.5.3-2s.4-.9.8-1.2.8-.4 1.3-.4c.4 0 .7.1 1 .2s.5.4.7.7.3.6.4 1.1.2 1 .2 1.7c0 .8-.1 1.5-.3 2s-.4.9-.8 1.2-.8.4-1.3.4c-.7 0-1.2-.2-1.6-.7-.5-.7-.7-1.6-.7-3zm.9 0c0 1.2.1 2 .4 2.3s.6.6 1 .6.7-.2 1-.6.4-1.2.4-2.3c0-1.2-.1-2-.4-2.3s-.6-.6-1-.6-.7.2-1 .5c-.2.5-.4 1.3-.4 2.4zm6.1-3.7c.5 0 .9.2 1.2.5s.4.8.4 1.3c0 .6-.1 1-.4 1.3s-.7.5-1.1.5c-.5 0-.9-.2-1.2-.5s-.4-.8-.4-1.3c0-.6.1-1 .4-1.4s.6-.4 1.1-.4zm0 .6c-.3 0-.5.1-.6.3s-.2.5-.2.9.1.7.2.9.4.3.6.3c.3 0 .5-.1.6-.3s.2-.5.2-.9-.1-.7-.2-.9-.4-.3-.6-.3zm-11.8-14.1v-7.2h1.4l1.7 5.1c.2.5.3.8.3 1.1.1-.3.2-.6.4-1.1l1.7-5h1.3v7.2h-.9v-6l-2.1 6h-.9l-2.1-6.1v6.1h-.8zm11.6-1.9l.9.1c-.1.6-.3 1.1-.7 1.4s-.9.5-1.4.5c-.7 0-1.3-.2-1.7-.7s-.6-1.1-.6-2c0-.6.1-1 .3-1.5s.5-.7.8-.9.8-.3 1.2-.3c.6 0 1 .1 1.4.4s.6.7.7 1.2l-.9.1c-.1-.3-.2-.6-.4-.8s-.5-.3-.7-.3c-.4 0-.8.2-1.1.5s-.4.8-.4 1.5.1 1.2.4 1.5.6.5 1 .5c.3 0 .6-.1.9-.3s.3-.5.3-.9zM218 157.1l.9-.1c.1.4.2.8.5 1s.5.3.9.3.8-.2 1.1-.5.4-.7.4-1.3c0-.5-.1-.9-.4-1.2s-.7-.4-1.1-.4c-.3 0-.5.1-.8.2s-.4.3-.5.5l-.8-.1.7-3.7h3.6v.8h-2.9l-.4 1.9c.4-.3.9-.4 1.4-.4.6 0 1.2.2 1.6.6s.6 1 .6 1.7c0 .6-.2 1.2-.6 1.7-.5.6-1.1.9-1.9.9-.7 0-1.2-.2-1.6-.5s-.7-.8-.7-1.4zm5.5 0l.9-.1c.1.4.2.8.5 1s.5.3.9.3.8-.2 1.1-.5.4-.7.4-1.3c0-.5-.1-.9-.4-1.2s-.7-.4-1.1-.4c-.3 0-.5.1-.8.2s-.4.3-.5.5l-.8-.1.7-3.7h3.6v.8h-2.9l-.4 1.9c.4-.3.9-.4 1.4-.4.6 0 1.2.2 1.6.6s.6 1 .6 1.7c0 .6-.2 1.2-.6 1.7-.5.6-1.1.9-1.9.9-.7 0-1.2-.2-1.6-.5s-.6-.8-.7-1.4zm5.8-4.3v-1h.9v.8c0 .4-.1.8-.2.9-.1.3-.4.5-.7.6l-.2-.3c.2-.1.3-.2.4-.3s.1-.4.1-.6h-.3zm-25.4-28.3c0-.8.1-1.5.3-2s.4-.9.8-1.2.8-.4 1.3-.4c.4 0 .7.1 1 .2s.5.4.7.7.3.6.4 1.1.2 1 .2 1.7c0 .8-.1 1.5-.3 2s-.4.9-.8 1.2c-.3.3-.8.4-1.3.4-.7 0-1.2-.2-1.6-.7-.4-.6-.7-1.6-.7-3zm.9 0c0 1.2.1 2 .4 2.3s.6.6 1 .6.7-.2 1-.6.4-1.2.4-2.3c0-1.2-.1-2-.4-2.3s-.6-.6-1-.6-.7.2-1 .5c-.2.5-.4 1.3-.4 2.4zm4.7 1.7l.9-.1c.1.5.3.9.5 1.1s.5.3.9.3.8-.1 1-.4.4-.6.4-1.1c0-.4-.1-.7-.4-1s-.6-.4-1-.4c-.2 0-.4 0-.6.1l.1-.8h.1c.4 0 .7-.1 1-.3s.4-.5.4-.9c0-.3-.1-.6-.3-.8s-.5-.3-.8-.3c-.3 0-.6.1-.9.3s-.4.5-.4 1l-.9-.2c.1-.6.4-1 .7-1.4s.9-.5 1.4-.5c.4 0 .8.1 1.1.3s.6.4.8.7.3.6.3.9c0 .3-.1.6-.2.8s-.4.5-.7.6c.4.1.8.3 1 .6s.4.7.4 1.2c0 .6-.2 1.2-.7 1.6s-1 .7-1.7.7c-.6 0-1.1-.2-1.6-.6-.5-.3-.8-.8-.8-1.4zm7-5.4c.5 0 .9.2 1.2.5s.4.8.4 1.3c0 .6-.1 1-.4 1.3s-.7.5-1.1.5c-.5 0-.9-.2-1.2-.5s-.4-.8-.4-1.3c0-.6.1-1 .4-1.4s.6-.4 1.1-.4zm0 .6c-.3 0-.5.1-.6.3s-.2.5-.2.9.1.7.2.9.4.3.6.3c.3 0 .5-.1.6-.3s.2-.5.2-.9-.1-.7-.2-.9-.4-.3-.6-.3zm-71.5 138c0-.8.1-1.5.3-2s.4-.9.8-1.2.8-.4 1.3-.4c.4 0 .7.1 1 .2s.5.4.7.7.3.6.4 1.1.2 1 .2 1.7c0 .8-.1 1.5-.3 2s-.4.9-.8 1.2-.8.4-1.3.4c-.7 0-1.2-.2-1.6-.7-.4-.6-.7-1.6-.7-3zm.9 0c0 1.2.1 2 .4 2.3s.6.6 1 .6.7-.2 1-.6.4-1.2.4-2.3c0-1.2-.1-2-.4-2.3s-.6-.6-1-.6-.7.2-1 .5c-.2.5-.4 1.3-.4 2.4zm4.7 1.7l.9-.1c.1.5.3.9.5 1.1s.5.3.9.3.8-.1 1-.4.4-.6.4-1.1c0-.4-.1-.7-.4-1s-.6-.4-1-.4c-.2 0-.4 0-.6.1l.1-.8h.1c.4 0 .7-.1 1-.3s.4-.5.4-.9c0-.3-.1-.6-.3-.8s-.5-.3-.8-.3c-.3 0-.6.1-.9.3s-.4.5-.4 1l-.9-.2c.1-.6.4-1 .7-1.4s.9-.5 1.4-.5c.4 0 .8.1 1.1.3s.6.4.8.7.3.6.3.9c0 .3-.1.6-.2.8s-.4.5-.7.6c.4.1.8.3 1 .6s.4.7.4 1.2c0 .6-.2 1.2-.7 1.6s-1 .7-1.7.7c-.6 0-1.1-.2-1.6-.6s-.7-.8-.8-1.4zm5.8-4.3v-1h.9v.8c0 .4-.1.8-.2.9-.1.3-.4.5-.7.6l-.2-.3c.2-.1.3-.2.4-.3s.1-.4.1-.6h-.3zm-44.9 2.6c0-.8.1-1.5.3-2s.4-.9.8-1.2.8-.4 1.3-.4c.4 0 .7.1 1 .2s.5.4.7.7.3.6.4 1.1.2 1 .2 1.7c0 .8-.1 1.5-.3 2s-.4.9-.8 1.2-.8.4-1.3.4c-.7 0-1.2-.2-1.6-.7-.5-.6-.7-1.6-.7-3zm.9 0c0 1.2.1 2 .4 2.3s.6.6 1 .6.7-.2 1-.6.4-1.2.4-2.3c0-1.2-.1-2-.4-2.3s-.6-.6-1-.6-.7.2-1 .5c-.2.5-.4 1.3-.4 2.4zm4.8 1.9l.8-.1c.1.4.2.7.4.9s.5.3.8.3c.3 0 .5-.1.7-.2s.4-.3.5-.5.2-.5.3-.8.1-.7.1-1.1v-.2c-.2.3-.4.5-.7.7s-.6.3-1 .3c-.6 0-1.1-.2-1.5-.6s-.6-1-.6-1.7.2-1.3.6-1.8 1-.7 1.6-.7c.5 0 .9.1 1.3.4s.7.6.9 1.1.3 1.1.3 2c0 .9-.1 1.6-.3 2.2s-.5 1-.9 1.2-.9.4-1.4.4c-.6 0-1-.2-1.4-.5s-.4-.7-.5-1.3zm3.6-3.1c0-.5-.1-.9-.4-1.2s-.6-.4-1-.4-.7.2-1 .5-.4.7-.4 1.2.1.8.4 1.1.6.4 1 .4.7-.1 1-.4.4-.7.4-1.2zm3.2-2.5c.5 0 .9.2 1.2.5s.4.8.4 1.3c0 .6-.1 1-.4 1.3s-.7.5-1.1.5c-.5 0-.9-.2-1.2-.5s-.4-.8-.4-1.3c0-.6.1-1 .4-1.4s.7-.4 1.1-.4zm0 .6c-.3 0-.5.1-.6.3s-.2.5-.2.9.1.7.2.9.4.3.6.3c.3 0 .5-.1.6-.3s.2-.5.2-.9-.1-.7-.2-.9-.3-.3-.6-.3zM93 263l2.7-7.2h1l2.9 7.2h-1.1l-.8-2.2h-3L94 263h-1zm2.1-3h2.4l-.7-2c-.2-.6-.4-1.1-.5-1.5-.1.5-.2.9-.4 1.4l-.8 2.1zm4.9 1.4l.9-.1c0 .3.2.6.4.8s.5.3.9.3.7-.1.9-.2.3-.4.3-.6c0-.2-.1-.4-.3-.5-.1-.1-.4-.2-.9-.3-.6-.2-1.1-.3-1.3-.4s-.4-.3-.6-.5-.2-.4-.2-.7c0-.2.1-.4.2-.6s.3-.4.4-.5c.1-.1.3-.2.6-.3s.5-.1.8-.1c.4 0 .8.1 1.1.2s.5.3.7.5.2.5.3.8l-.9.1c0-.3-.2-.5-.3-.6s-.5-.2-.8-.2c-.4 0-.7.1-.9.2s-.3.3-.3.5c0 .1 0 .2.1.3.1.1.2.2.3.2.1 0 .3.1.8.2.6.2 1.1.3 1.3.4s.4.3.6.5.2.5.2.8c0 .3-.1.6-.3.8s-.4.5-.7.6-.7.2-1.1.2c-.7 0-1.2-.1-1.5-.4s-.6-.8-.7-1.4zm101.5 73v.8h-4.7c0-.2 0-.4.1-.6.1-.3.3-.6.6-1s.6-.7 1.1-1.1c.8-.6 1.3-1.1 1.6-1.5s.4-.7.4-1.1c0-.3-.1-.6-.4-.9s-.6-.4-1-.4-.8.1-1 .4-.4.6-.4 1.1l-.9-.1c.1-.7.3-1.2.7-1.5s.9-.5 1.6-.5c.7 0 1.2.2 1.6.6s.6.9.6 1.4c0 .3-.1.6-.2.8s-.3.6-.6.9-.7.7-1.4 1.3c-.5.4-.9.7-1 .9s-.3.3-.4.5h3.7zm-23.2-42.6h-.9v-5.6c-.2.2-.5.4-.8.6s-.7.4-.9.5v-.8c.5-.2.9-.5 1.3-.8s.6-.6.8-1h.6v7.1zm-2.7-45.9h-.9v-5.6c-.2.2-.5.4-.8.6s-.7.4-.9.5v-.8c.5-.2.9-.5 1.3-.8s.6-.6.8-1h.6v7.1zm6.9-.8v.8h-4.7c0-.2 0-.4.1-.6.1-.3.3-.6.6-1s.6-.7 1.1-1.1c.8-.6 1.3-1.1 1.6-1.5s.4-.7.4-1.1c0-.3-.1-.6-.4-.9s-.6-.4-1-.4-.8.1-1 .4-.4.6-.4 1.1l-.9-.1c.1-.7.3-1.2.7-1.5s.9-.5 1.6-.5c.7 0 1.2.2 1.6.6s.6.9.6 1.4c0 .3-.1.6-.2.8s-.3.6-.6.9-.7.7-1.4 1.3c-.5.4-.9.7-1 .9s-.3.3-.4.5h3.7zm15.1-41.2h-.9v-5.6c-.2.2-.5.4-.8.6s-.7.4-.9.5v-.8c.5-.2.9-.5 1.3-.8s.6-.6.8-1h.6v7.1zm4.8 0h-.9v-5.6c-.2.2-.5.4-.8.6s-.7.4-.9.5v-.8c.5-.2.9-.5 1.3-.8s.6-.6.8-1h.6v7.1zm41-29.4h-.9v-5.6c-.2.2-.5.4-.8.6s-.7.4-.9.5v-.8c.5-.2.9-.5 1.3-.8s.6-.6.8-1h.6v7.1zm2.3-3.6c0-.8.1-1.5.3-2s.4-.9.8-1.2.8-.4 1.3-.4c.4 0 .7.1 1 .2s.5.4.7.7.3.6.4 1.1.2 1 .2 1.7c0 .8-.1 1.5-.3 2s-.4.9-.8 1.2-.8.4-1.3.4c-.7 0-1.2-.2-1.6-.7-.5-.7-.7-1.6-.7-3zm.9 0c0 1.2.1 2 .4 2.3s.6.6 1 .6.7-.2 1-.6.4-1.2.4-2.3c0-1.2-.1-2-.4-2.3s-.6-.6-1-.6-.7.2-1 .5c-.3.4-.4 1.2-.4 2.4zm52.9 1.3l.8-.1c.1.4.2.7.4.9.2.2.5.3.8.3.3 0 .5-.1.7-.2.2-.1.4-.3.5-.5.1-.2.2-.5.3-.8s.1-.7.1-1.1v-.2c-.2.3-.4.5-.7.7-.3.2-.6.3-1 .3-.6 0-1.1-.2-1.5-.6s-.6-1-.6-1.7.2-1.3.6-1.8c.4-.4 1-.7 1.6-.7.5 0 .9.1 1.3.4s.7.6.9 1.1.3 1.1.3 2c0 .9-.1 1.6-.3 2.2-.2.5-.5 1-.9 1.2-.4.3-.9.4-1.4.4-.6 0-1-.2-1.4-.5-.2-.3-.4-.7-.5-1.3zm3.6-3.1c0-.5-.1-.9-.4-1.2s-.6-.4-1-.4-.7.2-1 .5c-.3.3-.4.7-.4 1.2s.1.8.4 1.1c.3.3.6.4 1 .4s.7-.1 1-.4c.3-.3.4-.7.4-1.2zm44.2 30.8c-.4-.1-.6-.3-.8-.6s-.3-.5-.3-.9c0-.5.2-1 .6-1.3.4-.4.9-.5 1.5-.5s1.1.2 1.5.5.6.8.6 1.3c0 .3-.1.6-.3.9-.2.2-.4.4-.8.6.4.1.8.4 1 .7s.3.7.3 1.1c0 .6-.2 1.1-.6 1.5-.4.4-1 .6-1.7.6s-1.3-.2-1.7-.6c-.4-.4-.6-.9-.6-1.6 0-.5.1-.9.4-1.2.2-.2.5-.4.9-.5zm-.4 1.8c0 .3.1.5.2.7.1.2.3.4.5.5s.5.2.8.2c.4 0 .8-.1 1-.4s.4-.6.4-1-.1-.8-.4-1c-.3-.3-.6-.4-1.1-.4-.4 0-.8.1-1 .4-.3.2-.4.6-.4 1zm.3-3.3c0 .3.1.6.3.8.2.2.5.3.8.3.3 0 .6-.1.8-.3.2-.2.3-.5.3-.8 0-.3-.1-.6-.3-.8-.2-.2-.5-.3-.8-.3-.3 0-.6.1-.8.3-.2.2-.3.5-.3.8zm22 43.3v-.8h4.6v.7c-.5.5-.9 1.1-1.4 1.9-.4.8-.8 1.6-1 2.5-.2.6-.3 1.3-.3 2h-.9c0-.6.1-1.2.3-2 .2-.8.5-1.6.9-2.3s.8-1.4 1.3-1.9h-3.5zm4.2 46.6l-.9.1c-.1-.3-.2-.6-.3-.8-.2-.3-.5-.4-.9-.4-.3 0-.5.1-.7.2-.3.2-.5.5-.7.9-.2.4-.2.9-.2 1.7.2-.3.5-.6.8-.7.3-.2.6-.2 1-.2.6 0 1.1.2 1.5.6.4.4.6 1 .6 1.7 0 .4-.1.9-.3 1.3-.2.4-.5.7-.8.9-.3.2-.7.3-1.2.3-.7 0-1.3-.3-1.8-.8s-.7-1.4-.7-2.7c0-1.4.3-2.4.8-3 .4-.5 1-.8 1.8-.8.6 0 1 .2 1.4.5.3.2.5.7.6 1.2zm-3.6 3.1c0 .3.1.6.2.9.1.3.3.5.5.6.2.1.5.2.7.2.4 0 .7-.1 1-.4.3-.3.4-.7.4-1.2s-.1-.9-.4-1.2-.6-.4-1-.4-.7.1-1 .4c-.3.3-.4.7-.4 1.1zm-23.5 43l.9-.1c.1.4.2.8.5 1s.5.3.9.3.8-.2 1.1-.5.4-.7.4-1.3c0-.5-.1-.9-.4-1.2-.3-.3-.7-.4-1.1-.4-.3 0-.5.1-.8.2-.2.1-.4.3-.5.5l-.8-.1.7-3.7h3.6v.8h-2.9l-.4 1.9c.4-.3.9-.4 1.4-.4.6 0 1.2.2 1.6.6s.6 1 .6 1.7c0 .6-.2 1.2-.6 1.7-.5.6-1.1.9-1.9.9-.7 0-1.2-.2-1.6-.5-.4-.3-.6-.8-.7-1.4zM303 365.3v-1.7h-3.1v-.8l3.3-4.6h.7v4.6h1v.8h-1v1.7h-.9zm0-2.5v-3.2l-2.2 3.2h2.2zm-59.4.6l.9-.1c.1.5.3.9.5 1.1s.5.3.9.3.8-.1 1-.4.4-.6.4-1.1c0-.4-.1-.7-.4-1s-.6-.4-1-.4c-.2 0-.4 0-.6.1l.1-.8h.1c.4 0 .7-.1 1-.3s.4-.5.4-.9c0-.3-.1-.6-.3-.8s-.5-.3-.8-.3c-.3 0-.6.1-.9.3s-.4.5-.4 1l-.9-.2c.1-.6.4-1 .7-1.4s.9-.5 1.4-.5c.4 0 .8.1 1.1.3s.6.4.8.7.3.6.3.9c0 .3-.1.6-.2.8s-.4.5-.7.6c.4.1.8.3 1 .6s.4.7.4 1.2c0 .6-.2 1.2-.7 1.6s-1 .7-1.7.7c-.6 0-1.1-.2-1.6-.6s-.7-.8-.8-1.4zm-78.5-33.2v-1.7H162v-.8l3.3-4.6h.7v4.6h1v.8h-1v1.7h-.9zm0-2.5v-3.2l-2.2 3.2h2.2zm2.9.9l.8-.1c.1.4.2.7.4.9s.5.3.8.3c.3 0 .5-.1.7-.2s.4-.3.5-.5.2-.5.3-.8.1-.7.1-1.1v-.2c-.2.3-.4.5-.7.7s-.6.3-1 .3c-.6 0-1.1-.2-1.5-.6s-.6-1-.6-1.7.2-1.3.6-1.8 1-.7 1.6-.7c.5 0 .9.1 1.3.4s.7.6.9 1.1.3 1.1.3 2c0 .9-.1 1.6-.3 2.2s-.5 1-.9 1.2-.9.4-1.4.4c-.6 0-1-.2-1.4-.5s-.5-.8-.5-1.3zm3.6-3.2c0-.5-.1-.9-.4-1.2s-.6-.4-1-.4-.7.2-1 .5-.4.7-.4 1.2.1.8.4 1.1.6.4 1 .4.7-.1 1-.4.4-.7.4-1.2zm2-1.4v-1h.9v.8c0 .4-.1.8-.2.9-.1.3-.4.5-.7.6l-.2-.3c.2-.1.3-.2.4-.3s.1-.4.1-.6h-.3z"/>
    <path class="st0" d="M272.2 22.6v10.5"/>
    <path class="st2" d="M135.2 61.2c-.6.5-1.1.8-1.6.8-.4 0-.8-.1-1.1-.4-.3-.3-.5-.7-.5-1.1 0-.6.3-1.5.9-2.8l.5-1c.4-.8.5-1.4.5-1.9 0-.6-.2-1.1-.5-1.5-.4-.4-.8-.6-1.4-.6-.6 0-1 .2-1.3.5s-.5.8-.5 1.3.2 1.1.5 1.7l.2.4c.3.7.5 1.1.5 1.4 0 .5-.2.9-.6 1.3s-.8.6-1.3.6-1-.2-1.3-.6-.6-.8-.6-1.4c0-.5.2-1 .5-1.3s.8-.6 1.3-.6c.2 0 .4 0 .6.1-.4-.7-.5-1.3-.5-1.8 0-.7.2-1.2.7-1.7s1.1-.7 1.8-.7c.8 0 1.5.2 1.9.7s.7 1.1.7 1.9c0 .4 0 .7-.1 1s-.3.8-.6 1.4l-.3.7c-.6 1.3-.9 2.1-.9 2.5 0 .3.1.5.3.7s.4.3.6.3c.3 0 .7-.2 1.2-.6l.4.7zm-7.2-3.1c0 .4.1.7.4 1s.6.4.9.4c.4 0 .7-.1.9-.4s.4-.6.4-1-.1-.7-.4-1-.6-.4-.9-.4c-.4 0-.7.1-.9.4s-.4.6-.4 1zm149-45v.8c-1.5-.7-3-1-4.4-1-.9 0-1.7.1-2.3.4.4.2.6.4.8.7.2.3.3.6.3 1 0 .5-.2.9-.5 1.3-.4.4-.8.5-1.3.5s-.9-.2-1.3-.5c-.4-.4-.5-.8-.5-1.3 0-.8.5-1.5 1.5-2s2.2-.8 3.7-.8c1.3-.1 2.6.3 4 .9zm-9.2 5.3v-.8c1.5.7 3 1 4.4 1 .9 0 1.7-.1 2.3-.4-.4-.2-.6-.4-.8-.7-.2-.3-.3-.6-.3-1 0-.5.2-.9.5-1.3.4-.4.8-.5 1.3-.5s.9.2 1.3.5c.4.4.5.8.5 1.3 0 .8-.5 1.5-1.5 2s-2.2.8-3.7.8c-1.2.1-2.5-.3-4-.9zm3.2-3.5c0-.4-.1-.7-.4-.9s-.6-.4-1-.4-.7.1-1 .4c-.3.3-.4.6-.4.9 0 .4.1.7.4 1 .3.3.6.4 1 .4s.7-.1 1-.4c.3-.3.4-.6.4-1zm2.9 1.7c0 .4.1.7.4.9.3.3.6.4 1 .4s.7-.1 1-.4.4-.6.4-.9c0-.4-.1-.7-.4-1-.3-.3-.6-.4-1-.4s-.7.1-1 .4c-.3.3-.4.6-.4 1zM46.7 155.2v4.5H46v-5.2c0-.7-.2-1.4-.6-2h.8c.3.4.5.8.6 1.4.2-.6.5-1.1.8-1.4l.7-.1c.3.4.5 1 .6 1.7.2-.5.5-1 .9-1.5l.7-.1c.4.5.6 1.1.6 1.8v1.4c.2-.6.4-1 .6-1.3l.6-.2c.5.8.8 1.6.8 2.5 0 .7-.2 1.4-.5 2s-.8 1.2-1.4 1.7c.1.4.3.9.7 1.4h-.8c-.2-.3-.4-.6-.5-1-.5.3-1 .4-1.7.5v-.6c.6-.1 1.1-.3 1.5-.5 0-.3-.1-.6-.1-.9v-4.4c0-.7-.1-1.3-.3-1.6-.5.6-.9 1.3-1.1 2.3v4.4h-.7v-4.8c0-.9-.1-1.5-.3-1.9-.6.3-1 1-1.2 1.9zm4.3 4.3c.4-.4.7-.9.9-1.4s.3-1 .3-1.6c0-.6-.1-1.1-.4-1.7-.4.4-.7 1-.9 1.8v2.9zm153.9-48c-.6.5-1.1.8-1.6.8-.4 0-.8-.1-1.1-.4-.3-.3-.5-.7-.5-1.1 0-.6.3-1.5.9-2.8l.5-1c.4-.8.5-1.4.5-1.9 0-.6-.2-1.1-.5-1.5-.4-.4-.8-.6-1.4-.6-.6 0-1 .2-1.3.5s-.5.8-.5 1.3.2 1.1.5 1.7l.2.4c.3.7.5 1.1.5 1.4 0 .5-.2.9-.6 1.3s-.8.6-1.3.6-1-.2-1.3-.6-.6-.8-.6-1.4c0-.5.2-1 .5-1.3s.8-.6 1.3-.6c.2 0 .4 0 .6.1-.4-.7-.5-1.3-.5-1.8 0-.7.2-1.2.7-1.7s1.1-.7 1.8-.7c.8 0 1.5.2 1.9.7s.7 1.1.7 1.9c0 .4 0 .7-.1 1s-.3.8-.6 1.4l-.3.7c-.6 1.3-.9 2.1-.9 2.5 0 .3.1.5.3.7s.4.3.6.3c.3 0 .7-.2 1.2-.6l.4.7zm-7.2-3.2c0 .4.1.7.4 1s.6.4.9.4c.4 0 .7-.1.9-.4s.4-.6.4-1-.1-.7-.4-1-.6-.4-.9-.4c-.4 0-.7.1-.9.4s-.4.6-.4 1zm24.5 38.4c-.6.5-1.1.8-1.6.8-.4 0-.8-.1-1.1-.4-.3-.3-.5-.7-.5-1.1 0-.6.3-1.5.9-2.8l.5-1c.4-.8.5-1.4.5-1.9 0-.6-.2-1.1-.5-1.5-.4-.4-.8-.6-1.4-.6-.6 0-1 .2-1.3.5-.3.3-.5.8-.5 1.3s.2 1.1.5 1.7l.2.4c.3.7.5 1.1.5 1.4 0 .5-.2.9-.6 1.3s-.8.6-1.3.6-1-.2-1.3-.6c-.4-.4-.6-.8-.6-1.4 0-.5.2-1 .5-1.3.4-.4.8-.6 1.3-.6.2 0 .4 0 .6.1-.4-.7-.5-1.3-.5-1.8 0-.7.2-1.2.7-1.7.5-.4 1.1-.7 1.8-.7.8 0 1.5.2 1.9.7s.7 1.1.7 1.9c0 .4 0 .7-.1 1-.1.3-.3.8-.6 1.4l-.3.7c-.6 1.3-.9 2.1-.9 2.5 0 .3.1.5.3.7.2.2.4.3.6.3.3 0 .7-.2 1.2-.6l.4.7zm-7.2-3.2c0 .4.1.7.4 1 .3.3.6.4.9.4.4 0 .7-.1.9-.4s.4-.6.4-1-.1-.7-.4-1c-.3-.3-.6-.4-.9-.4-.4 0-.7.1-.9.4-.3.3-.4.6-.4 1zm62.8-16.6v.8c-1.5-.7-3-1-4.4-1-.9 0-1.7.1-2.3.4.4.2.6.4.8.7.2.3.3.6.3 1 0 .5-.2.9-.5 1.3-.4.4-.8.5-1.3.5s-.9-.2-1.3-.5c-.4-.4-.5-.8-.5-1.3 0-.8.5-1.5 1.5-2s2.2-.8 3.7-.8c1.2-.1 2.6.3 4 .9zm-9.2 5.3v-.8c1.5.7 3 1 4.4 1 .9 0 1.7-.1 2.3-.4-.4-.2-.6-.4-.8-.7-.2-.3-.3-.6-.3-1 0-.5.2-.9.5-1.3.4-.4.8-.5 1.3-.5s.9.2 1.3.5c.4.4.5.8.5 1.3 0 .8-.5 1.5-1.5 2s-2.2.8-3.7.8c-1.3.1-2.6-.3-4-.9zm3.1-3.5c0-.4-.1-.7-.4-.9-.3-.3-.6-.4-1-.4s-.7.1-1 .4c-.3.3-.4.6-.4.9 0 .4.1.7.4 1 .3.3.6.4 1 .4s.7-.1 1-.4c.3-.3.4-.6.4-1zm2.9 1.7c0 .4.1.7.4.9.3.3.6.4 1 .4s.7-.1 1-.4.4-.6.4-.9c0-.4-.1-.7-.4-1-.3-.3-.6-.4-1-.4s-.7.1-1 .4c-.3.3-.4.6-.4 1zm134.9-70v-.6c.7-.2 1.3-.3 1.9-.4v-6.2c-.6-.1-1.2-.2-1.9-.4v-.6c1.1.3 2.4.4 4 .4s2.9-.1 4-.4v.6c-.6.2-1.2.3-1.9.4v6.2c.6.1 1.2.2 1.9.4v.6c-1.2-.3-2.6-.5-4-.5-1.4.1-2.8.2-4 .5zm2.6-1c.4 0 .9-.1 1.4-.1.5 0 1 0 1.4.1v-6.1h-2.8v6.1z"/>
    <path class="st0" d="M402 72.2l5.4-8.6"/>
    <path class="st2" d="M497.1 157.6c-.3-.1-.6-.3-.8-.5-.2-.2-.4-.5-.7-.9l-.3-.5c-.4-.6-.8-1-1.2-1h-.1v-.5h.4c.6 0 1.2.4 1.7 1.3l.4.7c.3.5.5.8.8 1 .3.2.7.3 1.1.3.5 0 .8-.1 1.1-.3s.6-.5.8-1l.4-.7c.5-.9 1.1-1.3 1.7-1.3h.4v.5h-.1c-.4 0-.9.3-1.2 1l-.3.5c-.2.4-.5.7-.7.9-.2.2-.5.4-.8.5.6.3 1 .7 1.3 1.2.3.5.5 1 .5 1.6 0 .8-.3 1.5-.9 2.2-.6.6-1.3.9-2.2.9-.8 0-1.6-.3-2.2-.9-.6-.6-.9-1.3-.9-2.2 0-.6.2-1.1.5-1.6s.7-.9 1.3-1.2zm1.4 5.1c.7 0 1.2-.2 1.7-.7.5-.5.7-1 .7-1.7s-.2-1.2-.7-1.7c-.5-.5-1-.7-1.7-.7s-1.2.2-1.7.7-.7 1-.7 1.7c0 .6.2 1.2.7 1.7.4.5 1 .7 1.7.7zm-108.2 33.7c-.3-.1-.6-.3-.8-.5-.2-.2-.4-.5-.7-.9l-.3-.5c-.4-.6-.8-1-1.2-1h-.1v-.5h.4c.6 0 1.2.4 1.7 1.3l.4.7c.3.5.5.8.8 1 .3.2.7.3 1.1.3.5 0 .8-.1 1.1-.3s.6-.5.8-1l.4-.7c.5-.9 1.1-1.3 1.7-1.3h.4v.5c-.4 0-.9.3-1.2 1l-.3.5c-.2.4-.5.7-.7.9-.2.2-.5.4-.8.5.6.3 1 .7 1.3 1.2.3.5.5 1 .5 1.6 0 .8-.3 1.5-.9 2.2-.6.6-1.3.9-2.2.9-.8 0-1.6-.3-2.2-.9-.6-.6-.9-1.3-.9-2.2 0-.6.2-1.1.5-1.6.2-.5.6-.9 1.2-1.2zm1.4 5.1c.7 0 1.2-.2 1.7-.7.5-.5.7-1 .7-1.7s-.2-1.2-.7-1.7c-.5-.5-1-.7-1.7-.7s-1.2.2-1.7.7-.7 1-.7 1.7c0 .6.2 1.2.7 1.7.4.5 1 .7 1.7.7zm15.1 34.3v-.5c0-.9-.1-2-.3-3.1s-.4-2.1-.7-2.8c-.6-1.6-1.2-2.3-1.9-2.3-.3 0-.5.1-.7.4s-.3.6-.3 1c0 .6.2 1.1.5 1.7h-.7c-.4-.6-.5-1.2-.5-1.8 0-.6.2-1.1.5-1.4s.7-.6 1.3-.6c.8 0 1.5.5 2.1 1.6s.9 2.5 1.1 4.4h.1c.1-1.8.5-3.2 1.1-4.3.6-1.1 1.3-1.7 2.1-1.7.5 0 .9.2 1.2.6.3.4.5.9.5 1.4 0 .6-.2 1.2-.5 1.8h-.7c.4-.6.5-1.2.5-1.8 0-.4-.1-.8-.3-1-.2-.3-.4-.4-.7-.4-.7 0-1.3.7-1.8 2.2-.3.7-.5 1.7-.7 2.9-.2 1.2-.3 2.3-.3 3.2v.5h-.9zm118 38.5v-.5c0-.9-.1-2-.3-3.1s-.4-2.1-.7-2.8c-.6-1.6-1.2-2.3-1.9-2.3-.3 0-.5.1-.7.4s-.3.6-.3 1c0 .6.2 1.1.5 1.7h-.7c-.4-.6-.5-1.2-.5-1.8 0-.6.2-1.1.5-1.4s.7-.6 1.3-.6c.8 0 1.5.5 2.1 1.6s.9 2.5 1.1 4.4h.1c.1-1.8.5-3.2 1.1-4.3.6-1.1 1.3-1.7 2.1-1.7.5 0 .9.2 1.2.6.3.4.5.9.5 1.4 0 .6-.2 1.2-.5 1.8h-.7c.4-.6.5-1.2.5-1.8 0-.4-.1-.8-.3-1-.2-.3-.4-.4-.7-.4-.7 0-1.3.7-1.8 2.2-.3.7-.5 1.7-.7 2.9-.2 1.2-.3 2.3-.3 3.2v.5h-.9z"/>
    <path class="st3" d="M504.9 271.9h14.4m-118 186.5l7.7 10.3m-132.4 28.2l.1 12.1"/>
    <path class="st2" d="M274.8 518.6v-.3c0-.5-.1-1.1-.2-2-.2-.9-.3-1.4-.5-1.7-.2-.4-.5-.6-.9-.6h-.2v-.6h.5c.5 0 .9.2 1 .6.2.5.4 1.3.6 2.4.3-1.2.7-2.2 1.4-3l1-.2c.2.5.4 1.3.6 2.4l.1.9c0 .3.1.5.1.7.1.5.1.9.2 1.2.5-.9 1.1-1.3 1.9-1.3.5 0 .9.2 1.3.5.3.3.5.8.5 1.2 0 .5-.2 1-.5 1.3-.4.4-.8.5-1.3.5-.7 0-1.3-.3-1.8-.8-.4 1-.7 1.6-1 1.8s-.7.4-1.4.4h-.7v-.6h.3c.6 0 1-.1 1.3-.4s.5-.9.9-2c-.2-.3-.3-.5-.3-.7s-.1-.6-.2-1.3l-.2-1.4c-.1-.9-.3-1.5-.4-1.9-.4.5-.8 1.1-1.1 2s-.4 1.6-.4 2.2v.4h-.6zm4.1.7c.5.6 1.1.9 1.6.9.4 0 .7-.1.9-.4s.4-.6.4-.9c0-.3-.1-.6-.3-.9-.2-.2-.5-.4-.8-.4-.9.1-1.4.6-1.8 1.7zm132.3-42.4l2.7-1.8.6 1.4 2.1-1.4.6 1.4 2.1-1.4.9 2-.6.2-.6-1.3-2.1 1.4-.6-1.4-2.1 1.4-.6-1.4-2.1 1.4-.3-.5zm0-3.7l2.7-1.8.6 1.4 2.1-1.4.6 1.4 2.1-1.4.9 2-.6.2-.6-1.4-2.1 1.4-.6-1.4-2.1 1.4-.6-1.4-2.1 1.4-.3-.4zm87.5-95.9c0 .6-.1 1.2-.4 1.9-.3.7-.6 1.3-1.1 1.8h-.8c1.1-1.1 1.6-2.3 1.6-3.7h-1.5v-.5h1.5c-.1-1.2-.6-2.3-1.6-3.4h.7c.9 1 1.4 2.1 1.6 3.4h1.5c.1-1.3.7-2.4 1.6-3.4h.7c-1 1.1-1.5 2.2-1.6 3.4h1.5v.5h-1.5c0 1.3.5 2.6 1.6 3.7h-.8c-.5-.5-.8-1.1-1.1-1.8-.3-.7-.4-1.3-.4-1.9h-1.5zM139 472.4l.5 3.6-.7.1-.4-2.6-3.3 3.3 1.5 1.5-.5.5-1.5-1.5-2.2 2.2-.5-.5 2.2-2.2-1.5-1.5.5-.5 1.5 1.5 3.3-3.3-2.6-.4.1-.7 3.6.5z"/>
    <path class="st3" d="M147.6 460.2l-5.7 8.5"/>
    <path class="st2" d="M251.6 403.5v-.3c0-.5-.1-1.1-.2-2-.2-.9-.3-1.4-.5-1.7-.2-.4-.5-.6-.9-.6h-.1v-.6h.5c.5 0 .9.2 1 .6.2.5.4 1.3.6 2.4.3-1.2.7-2.2 1.4-3l1-.2c.2.5.4 1.3.6 2.4l.1.9c0 .3.1.5.1.7.1.5.1.9.2 1.2.5-.9 1.1-1.3 1.9-1.3.5 0 .9.2 1.3.5.3.3.5.8.5 1.2 0 .5-.2 1-.5 1.3-.4.4-.8.5-1.3.5-.7 0-1.3-.3-1.8-.8-.4 1-.7 1.6-1 1.8s-.7.4-1.4.4h-.7v-.6h.3c.6 0 1-.1 1.3-.4s.5-.9.9-2c-.2-.3-.3-.5-.3-.7s-.1-.6-.2-1.3l-.2-1.4c-.1-.9-.3-1.5-.4-1.9-.4.5-.8 1.1-1.1 2s-.4 1.6-.4 2.2v.4h-.7zm4 .8c.5.6 1.1.9 1.6.9.4 0 .7-.1.9-.4s.4-.6.4-.9c0-.3-.1-.6-.3-.9-.2-.2-.5-.4-.8-.4-.8 0-1.4.5-1.8 1.7zm16.7 1.7v-.3c0-.5-.1-1.1-.2-2-.2-.9-.3-1.4-.5-1.7-.2-.4-.5-.6-.9-.6h-.1v-.6h.5c.5 0 .9.2 1 .6.2.5.4 1.3.6 2.4.3-1.2.7-2.2 1.4-3l1-.2c.2.5.4 1.3.6 2.4l.1.9c0 .3.1.5.1.7.1.5.1.9.2 1.2.5-.9 1.1-1.3 1.9-1.3.5 0 .9.2 1.3.5.3.3.5.8.5 1.2 0 .5-.2 1-.5 1.3-.4.4-.8.5-1.3.5-.7 0-1.3-.3-1.8-.8-.4 1-.7 1.6-1 1.8s-.7.4-1.4.4h-.7v-.4h.3c.6 0 1-.1 1.3-.4s.5-.9.9-2c-.2-.3-.3-.5-.3-.7s-.1-.6-.2-1.3l-.2-1.4c-.1-.9-.3-1.5-.4-1.9-.4.5-.8 1.1-1.1 2s-.4 1.6-.4 2.2v.4h-.7zm4 .7c.5.6 1.1.9 1.6.9.4 0 .7-.1.9-.4s.4-.6.4-.9c0-.3-.1-.6-.3-.9-.2-.2-.5-.4-.8-.4-.8.1-1.4.6-1.8 1.7z"/>
    <path class="st4" d="M366.2 213.1h-1v3.1h-1V209h2.2c.7 0 1.2.2 1.6.5.4.3.6.8.6 1.3s-.1.9-.4 1.2c-.3.4-.6.6-1.1.8l.7 1 .8-1h.8l-1.1 1.5 1.3 1.9h-1.3l-.7-1-.8 1h-.8l1.2-1.6-1-1.5zm-1-.8h.3c.6 0 1.1-.1 1.4-.4.3-.3.5-.6.5-1.1 0-.7-.5-1.1-1.6-1.1h-.6v2.6z"/>
    <path class="st2" d="M135.7 260.5v.7h-3.1v-.7h2.2c-.4-.4-.6-.8-.6-1.3 0-.6.2-1.1.7-1.6s1-.7 1.6-.7 1.2.2 1.6.7.7 1 .7 1.6c0 .5-.2.9-.6 1.3h2.1v.7h-3.1v-.7c.5-.3.8-.8.8-1.4 0-.4-.2-.8-.5-1.1s-.7-.5-1.1-.5c-.4 0-.8.2-1.1.5s-.5.7-.5 1.1c.1.7.4 1.1.9 1.4zm-3 2.9v-.7h7.8v.7h-7.8z"/>
    <path class="st0" d="M407 390.7l6.7 5.5M377.5 417l5.8 5.5M353.6 442l1.8-10.4m-5.5 14.4l-8.6-8.1m-67.1 11l-1.2 8.4m-27.1-7.8l.4 5.9m-60.7-26.3l-2.8 5.7m-24.7-24.2l-3.4 6m40.1-327.2l4.9 10.9m239.8 68.6l-9 7.3m29.1 42.3l-10.8 2.5"/>
    <path class="st4" d="M271.4 240.2h-2.6l2.3 4.4-.8.4-2.5-4.7-2.4 4.8-.8-.4 2.2-4.4h-4.2v-.9h4.7l.3-.7.8.4-.1.2.1.1h3.1v.8zM255 259.1h-2.6l2.3 4.4-.8.4-2.5-4.7-2.4 4.8-.8-.4 2.2-4.4h-4.2v-.9h4.7l.3-.7.8.4-.1.2.1.1h3.1v.8zm4.3 9.8h-2.6l2.3 4.4-.8.4-2.5-4.7-2.4 4.8-.8-.4 2.2-4.4h-4.2v-.9h4.7l.3-.7.8.4-.1.2.1.1h3.1v.8zm-49.4 38.8h-2.6l2.3 4.4-.8.4-2.5-4.7-2.4 4.8-.8-.4 2.2-4.4h-4.2v-.9h4.7l.3-.7.8.4-.1.2.1.1h3.1v.8zm42.1 28.7h-5.8v-6.1h5.8v6.1zm-.8-.9v-4.1h-3.9v4.1h3.9zm11.4-4.5h-5.8v-6.1h5.8v6.1zm-.8-.9V326h-3.9v4.1h3.9zm-31.8-106h-5.8V218h5.8v6.1zm-.8-.9v-4.1h-3.9v4.1h3.9zm-11 27.8h-5.8v-6.1h5.8v6.1zm-.8-1v-4h-3.9v4.1h3.9zm94 4.7h-5.8v-6.1h5.8v6.1zm-.8-.9v-4.1h-3.9v4.1h3.9zm-87.4 61.7h-5.8v-6.1h5.8v6.1zm-.9-1v-4.1h-3.9v4.1h3.9zm8.4 2.1h-5.8v-6.1h5.8v6.1zm-.8-1v-4.1H226v4.1h3.9zm52.6 22.7h-5.8v-6.1h5.8v6.1zm-.8-.9v-4.1h-3.9v4.1h3.9zm61.3-51.5h-5.8v-6.1h5.8v6.1zm-.8-1v-4.1h-3.9v4.1h3.9zm-2.8 16.4h-5.8v-6.1h5.8v6.1zm-.8-.9v-4.1h-3.9v4.1h3.9zm-4.9-11.4h-5.8v-6.1h5.8v6.1zm-.9-1v-4h-3.9v4.1h3.9zm-34.6-82.8h-5.8v-6.1h5.8v6.1zm-.8-.9v-4.1h-3.9v4.1h3.9z"/>
    <path class="st4" d="M251.8 268.9h-2.6l2.3 4.4-.8.4-2.5-4.7-2.4 4.8-.8-.4 2.2-4.4H243v-.9h4.7l.3-.7.8.4-.1.2.1.1h3.1v.8zm43.4 14.5h-2.6l2.3 4.4-.8.4-2.5-4.7-2.4 4.8-.8-.4 2.2-4.4h-4.2v-.9h4.7l.3-.7.8.4-.1.2.1.1h3.1v.8zm9.7-26.4h-2.6l2.3 4.4-.8.4-2.5-4.7-2.4 4.8-.8-.4 2.2-4.4h-4.2v-.9h4.7l.3-.7.8.4-.1.2.1.1h3.1v.8zm-58.1 92.9h2.6l-2.3-4.4.8-.4 2.5 4.7 2.4-4.8.8.4-2.2 4.4h4.2v.9h-4.7l-.3.7-.8-.4.1-.2-.1-.1h-3.1v-.8zm-11.7-4.7h2.6l-2.3-4.4.8-.4 2.5 4.7 2.4-4.8.8.4-2.2 4.4h4.2v.9h-4.7l-.3.7-.8-.4.1-.2-.1-.1H235v-.8zm-26.7-16.9h2.6l-2.3-4.4.8-.4 2.5 4.7 2.4-4.8.8.4-2.2 4.4h4.2v.9h-4.7l-.3.7-.8-.4.1-.2-.1-.1h-3.1v-.8zm-21.5-37.5h2.6l-2.3-4.4.8-.4 2.5 4.7 2.4-4.8.8.4-2.2 4.4h4.2v.9H191l-.3.7-.8-.4.1-.2-.1-.1h-3.1v-.8zm49.2-42.9h-7l3.7-8.1 3.3 8.1zm-1.3-.5l-2.3-5.7-2.6 5.7h4.9zm-5 17.4h-7l3.7-8.1 3.3 8.1zm-1.4-.5l-2.3-5.7-2.6 5.7h4.9zm7.7 5.5h-7l3.7-8.1 3.3 8.1zm-1.3-.5l-2.3-5.7-2.6 5.7h4.9zm13.7 44.4h-7l3.7-8.1 3.3 8.1zm-1.4-.5l-2.3-5.7-2.6 5.7h4.9zm10.2-4.4h-7l3.7-8.1 3.3 8.1zm-1.4-.5l-2.3-5.7-2.6 5.7h4.9zm61.7-14.6h-7l3.7-8.1 3.3 8.1zm-1.4-.4l-2.3-5.7-2.6 5.7h4.9zm-.3 11.5h-7l3.7-8.1 3.3 8.1zm-1.4-.5l-2.3-5.7-2.6 5.7h4.9zm-57-118.2v-3c-.2.2-.4.4-.7.6s-.6.2-.9.2c-.7 0-1.4-.3-1.9-.9s-.8-1.4-.8-2.4c0-.6.1-1.2.3-1.7s.5-.9.9-1.1.9-.4 1.4-.4c.8 0 1.4.3 1.8 1v-.8h.9v8.6h-1zm-3.3-5.5c0 .8.2 1.4.5 1.8s.7.6 1.2.6c.4 0 .8-.2 1.2-.6s.5-1 .5-1.7c0-.8-.2-1.5-.5-1.9s-.7-.6-1.2-.6-.8.2-1.2.6-.5 1-.5 1.8z"/>
    <path class="st0" d="M349.8 282.5c4 .8 3.4 6.4.3 6.8m5.3-6.8c-4 .8-3.4 6.4-.3 6.8m-5.3-3.3h5.6m-57 54.3c4 .8 3.4 6.4.3 6.8m5.3-6.8c-4 .8-3.4 6.4-.3 6.8m-5.3-3.4h5.6m-28.4-.6c4 .8 3.4 6.4.3 6.8m5.3-6.8c-4 .8-3.4 6.4-.3 6.8m-5.3-3.3h5.6m-21.8-5c4 .8 3.4 6.4.3 6.8m5.3-6.8c-4 .8-3.4 6.4-.3 6.8m-5.3-3.4h5.6m-34.2-12.1c4 .8 3.4 6.4.3 6.8m5.3-6.8c-4 .8-3.4 6.4-.3 6.8m-5.3-3.4h5.6m-33.9-32.7c4 .8 3.4 6.4.3 6.8m5.3-6.8c-4 .8-3.4 6.4-.3 6.8m-5.3-3.4h5.6m101.7-113c4 .8 3.4 6.4.3 6.8m5.3-6.8c-4 .8-3.4 6.4-.3 6.8m-5.3-3.4h5.6"/>
    <path class="st4" d="M346.6 296.2v.4h-.5c-1.1 0-2-.4-2.6-1.1-.6-.2-1.1-.5-1.5-1-.3-.5-.5-1.1-.5-1.8 0-.9.2-1.6.7-2.1.5-.6 1.1-.8 1.9-.8.8 0 1.5.3 2 .9.4.5.6 1.2.6 2s-.2 1.4-.6 1.9c-.4.5-1 .9-1.7 1 .3.2.6.4 1 .5.5.1.8.1 1.2.1zm-4.2-3.4c0 .8.2 1.3.5 1.7.3.4.8.6 1.4.6.6 0 1-.2 1.4-.6.3-.4.5-1 .5-1.8s-.2-1.3-.6-1.8c-.3-.4-.8-.5-1.3-.5-.7 0-1.2.3-1.5.8-.3.4-.4.9-.4 1.6zm-69.3 51.6v.4h-.5c-1.1 0-2-.4-2.6-1.1-.6-.2-1.1-.5-1.5-1-.3-.5-.5-1.1-.5-1.8 0-.9.2-1.6.7-2.1.5-.6 1.1-.8 1.9-.8.8 0 1.5.3 2 .9.4.5.6 1.2.6 2s-.2 1.4-.6 1.9c-.4.5-1 .9-1.7 1 .3.2.6.4 1 .5.5.1.8.1 1.2.1zm-4.2-3.4c0 .8.2 1.3.5 1.7.3.4.8.6 1.4.6.6 0 1-.2 1.4-.6.3-.4.5-1 .5-1.8s-.2-1.3-.6-1.8c-.3-.4-.8-.5-1.3-.5-.7 0-1.2.3-1.5.8-.3.4-.4 1-.4 1.6zm81.6-61.8v.4h-.5c-1.1 0-2-.4-2.6-1.1-.6-.2-1.1-.5-1.5-1-.3-.5-.5-1.1-.5-1.8 0-.9.2-1.6.7-2.1.5-.6 1.1-.8 1.9-.8.8 0 1.5.3 2 .9.4.5.6 1.2.6 2s-.2 1.4-.6 1.9c-.4.5-1 .9-1.7 1 .3.2.6.4 1 .5.4 0 .7.1 1.2.1zm-4.3-3.5c0 .8.2 1.3.5 1.7.3.4.8.6 1.4.6.6 0 1-.2 1.4-.6.3-.4.5-1 .5-1.8s-.2-1.3-.6-1.8c-.3-.4-.8-.5-1.3-.5-.7 0-1.2.3-1.5.8-.3.5-.4 1-.4 1.6z"/>
    <path class="st3" d="M277.8 262.4l.2 1.1-.5.9-.8.6-1 .2-.7-.2-1-.3v1l-.1.7-.5.9-.8.6-1.1.2-1-.5-.6-.8-.2-1.1.5-.9.8-.6 1-.2.7.1 1 .3v-1l.1-.7.5-.9.8-.6 1.1-.2.9.5.7.9zm-4 2.2l-1-.3-.6-.1-1 .1-.7.5-.5.9.1.9.5.7.8.5 1-.1.7-.5.5-.9.1-.6.1-1.1zm3.8-2.1l-.5-.7-.8-.5-.9.1-.7.5-.5.9-.1.6v1.1l1 .3.6.1 1-.1.7-.5.4-.8-.2-1z"/>
    <path class="st2" d="M257.2 44.5V46c-2.9-1.3-5.7-2-8.3-2-1.8 0-3.2.2-4.3.7.7.4 1.2.8 1.6 1.3s.5 1.2.5 1.9c0 1-.3 1.8-1 2.5s-1.5 1-2.5 1-1.8-.3-2.5-1-1-1.5-1-2.5c0-1.5.9-2.8 2.8-3.8s4.2-1.5 7-1.5c2.5 0 5 .7 7.7 1.9zm-17.5 10V53c2.9 1.3 5.7 2 8.3 2 1.8 0 3.2-.2 4.3-.7-.7-.4-1.2-.8-1.6-1.3-.3-.5-.5-1.2-.5-1.9 0-1 .3-1.8 1-2.5s1.5-1 2.5-1 1.8.3 2.4 1c.7.7 1 1.5 1 2.5 0 1.5-.9 2.8-2.8 3.8s-4.2 1.5-7 1.5c-2.3 0-4.9-.6-7.6-1.9zm6.1-6.5c0-.7-.3-1.3-.8-1.8s-1.1-.7-1.8-.7-1.3.2-1.8.7c-.5.5-.7 1.1-.7 1.8s.2 1.3.7 1.8c.5.5 1.1.8 1.8.8s1.3-.3 1.8-.8.8-1.1.8-1.8zm5.4 3.1c0 .7.3 1.3.8 1.8s1.1.8 1.8.8 1.3-.2 1.8-.7c.5-.5.7-1.1.7-1.8s-.2-1.3-.7-1.8c-.5-.5-1.1-.8-1.8-.8s-1.3.3-1.8.8c-.6.3-.8.9-.8 1.7zM54.3 282.6v1.3h-5.8v-1.4h4.1c-.7-.8-1.1-1.6-1.1-2.6 0-1.2.4-2.2 1.3-3 .9-.8 1.9-1.3 3.1-1.3 1.2 0 2.2.4 3.1 1.3.9.8 1.3 1.9 1.3 3 0 .9-.4 1.8-1.1 2.6h4.1v1.4h-5.8v-1.3c1-.6 1.5-1.5 1.5-2.6 0-.8-.3-1.5-.9-2.1-.6-.6-1.3-.9-2.1-.9s-1.5.3-2.1.9c-.6.6-.9 1.3-.9 2.1-.2 1.1.3 2 1.3 2.6zm-5.8 5.4v-1.4h14.8v1.4H48.5zm-27.9-24v.7h-3.1v-.7h2.2c-.4-.4-.6-.8-.6-1.3 0-.6.2-1.1.7-1.6s1-.7 1.6-.7 1.2.2 1.6.7.7 1 .7 1.6c0 .5-.2.9-.6 1.3h2.1v.7h-3.1v-.7c.5-.3.8-.8.8-1.4 0-.4-.2-.8-.5-1.1s-.7-.5-1.1-.5c-.4 0-.8.2-1.1.5s-.5.7-.5 1.1c.1.6.3 1.1.9 1.4zm-3.1 2.9v-.7h7.8v.7h-7.8zm50.6-93.4v8.6h-1.4v-10c0-1.4-.4-2.6-1.1-3.8H67c.5.7.9 1.6 1.1 2.7.5-1.1 1-2.1 1.6-2.7l1.3-.3c.6.8 1 1.8 1.2 3.2.3-1 .9-2 1.7-2.9l1.3-.3c.7 1 1.1 2.2 1.1 3.4v2.6c.4-1.1.8-1.9 1.2-2.5l1.1-.4c1 1.5 1.5 3.1 1.5 4.8 0 1.3-.3 2.6-.9 3.7-.6 1.2-1.5 2.2-2.6 3.2.1.8.6 1.7 1.4 2.7h-1.6c-.4-.5-.7-1.2-1-2-.9.5-1.9.8-3.2 1v-1.2c1.2-.2 2.1-.6 2.9-1-.1-.6-.1-1.2-.1-1.8v-8.3c0-1.4-.2-2.4-.6-3.1-1 1-1.7 2.5-2.2 4.4v8.3h-1.4V173c0-1.7-.2-2.9-.6-3.5-.9 1-1.6 2.4-2.1 4zm8.3 8.3c.8-.8 1.4-1.7 1.8-2.6.4-.9.6-1.9.6-3s-.2-2.2-.7-3.2c-.7.8-1.2 2-1.7 3.4v5.4zm16.3 218.8v-9.8c0-1.6-.4-2.9-1.2-3.9H93c.5.8.9 1.7 1.1 2.7.4-1.1 1-2 1.6-2.7l1.3-.3c.6.7 1 1.8 1.2 3.1.3-1 .9-1.9 1.7-2.8l1.4-.3c.7 1 1.1 2.2 1.1 3.6v8.5c0 .9 0 1.5.1 1.8.1.3.2.6.4.8.4.4 1.1.6 2 .6h.8v-1.4l2.2 2-2.2 1.9v-1.3h-1.3c-1.2 0-2.1-.3-2.6-.9-.5-.6-.8-1.6-.8-3v-8.3c0-1.4-.2-2.4-.6-3-1 1.2-1.7 2.7-2.1 4.4v8.3h-1.4v-9.2c0-1.7-.2-2.8-.6-3.5-1 1.1-1.7 2.5-2.1 4.1v8.6h-1.5zm-48.2-21.5v-5.2c0-.9-.2-1.5-.6-2.1h.8c.3.4.5.9.6 1.4.2-.6.5-1 .8-1.4l.7-.1c.3.4.5.9.6 1.6.2-.5.5-1 .9-1.5l.7-.1c.4.5.6 1.2.6 1.9v5.5c0 .2.1.3.2.4.2.2.6.3 1 .3h.4v-.7l1.1 1-1.1 1v-.7h-.7c-.6 0-1.1-.2-1.4-.5s-.4-.9-.4-1.6V374c0-.7-.1-1.3-.3-1.6-.5.6-.9 1.4-1.1 2.3v4.4h-.7v-4.9c0-.9-.1-1.5-.3-1.8-.5.6-.9 1.3-1.1 2.2v4.5h-.7zm106.3-40.2v-5.2c0-.9-.2-1.5-.6-2.1h.8c.3.4.5.9.6 1.4.2-.6.5-1 .8-1.4l.7-.1c.3.4.5.9.6 1.6.2-.5.5-1 .9-1.5l.7-.1c.4.5.6 1.2.6 1.9v5.5c0 .2.1.3.2.4.2.2.6.3 1 .3h.4v-.7l1.1 1-1.1 1v-.7h-.7c-.6 0-1.1-.2-1.4-.5s-.4-.9-.4-1.6v-4.4c0-.7-.1-1.3-.3-1.6-.5.6-.9 1.4-1.1 2.3v4.4h-.6V334c0-.9-.1-1.5-.3-1.8-.5.6-.9 1.3-1.1 2.2v4.5h-.8zm40.1 120.8l.9 6.8-1.4.2-.7-4.9-6.2 6.2 2.9 2.9-1 1-2.9-2.9-4.3 4.3-.9-.9 4.3-4.3-2.9-2.9 1-1 2.9 2.9 6.2-6.2-4.9-.7.2-1.4 6.8.9zm.3-89.4l.5 3.6-.7.1-.4-2.6-3.3 3.3 1.5 1.5-.5.5-1.5-1.5-2.2 2.2-.5-.5 2.2-2.2-1.5-1.5.5-.5 1.5 1.5 3.3-3.3-2.6-.4.1-.7 3.6.5zm19.7 13.1l.5 3.6-.7.1-.4-2.6-3.3 3.3 1.5 1.5-.5.5-1.5-1.5-2.2 2.2-.5-.5 2.2-2.2-1.5-1.5.5-.5 1.5 1.5 3.3-3.3-2.6-.4.1-.7 3.6.5zm75.8 103.3v-.5c0-.9-.2-2.1-.5-3.8s-.6-2.7-.9-3.2c-.4-.7-1-1.1-1.8-1.1h-.3V477h1c1 0 1.6.4 2 1.1.4.9.8 2.4 1.2 4.5.5-2.3 1.4-4.2 2.6-5.7l1.8-.4c.5 1 .8 2.5 1.1 4.5l.3 1.7c.1.6.1 1 .2 1.3.1 1 .3 1.8.4 2.3.9-1.7 2.1-2.5 3.7-2.5.9 0 1.7.3 2.4 1 .7.6 1 1.4 1 2.4s-.3 1.8-1 2.5-1.5 1-2.4 1c-1.3 0-2.4-.5-3.4-1.5-.7 1.8-1.3 3-1.8 3.5s-1.4.8-2.6.8h-1.2v-1.1h.6c1.2 0 2-.2 2.4-.7.4-.5 1-1.7 1.7-3.7-.3-.5-.5-1-.6-1.4s-.2-1.2-.4-2.4l-.3-2.6c-.2-1.7-.5-2.9-.8-3.6-.8.9-1.5 2.2-2 3.8s-.9 3-.9 4.2v.7h-1.5zm7.7 1.3c1 1.1 2 1.7 3 1.7.7 0 1.3-.2 1.7-.7.5-.5.7-1.1.7-1.8 0-.6-.2-1.2-.7-1.6-.4-.4-1-.7-1.6-.7-1.3 0-2.3 1-3.1 3.1zm195.7-235.3v-.9c0-1.8-.2-3.7-.5-5.9s-.8-3.9-1.3-5.3c-1.1-3-2.3-4.4-3.6-4.4-.6 0-1 .2-1.4.7-.4.5-.5 1.1-.5 1.9 0 1.1.3 2.1 1 3.3h-1.4c-.7-1.2-1-2.3-1-3.4s.3-2 .9-2.7c.6-.7 1.4-1.1 2.4-1.1 1.5 0 2.8 1 3.9 3.1s1.8 4.8 2 8.3h.2c.2-3.4.9-6.2 2-8.3 1.1-2.1 2.4-3.1 4-3.1 1 0 1.7.4 2.4 1.1.6.7.9 1.6.9 2.7s-.3 2.2-1 3.4h-1.4c.7-1.2 1-2.3 1-3.3 0-.8-.2-1.5-.5-2-.4-.5-.8-.8-1.4-.8-1.2 0-2.4 1.4-3.5 4.1-.5 1.4-1 3.2-1.4 5.5-.4 2.2-.6 4.3-.6 6.2v.9h-1.2zm-36.5-108.6c-.6-.2-1.1-.5-1.5-.9-.4-.4-.8-1-1.3-1.8l-.5-1c-.7-1.2-1.4-1.8-2.3-1.8h-.3v-1h.7c1.2 0 2.3.8 3.3 2.5l.8 1.3c.5.9 1 1.5 1.6 1.8.5.3 1.3.5 2.1.5.9 0 1.6-.2 2.1-.5s1.1-.9 1.6-1.8l.8-1.3c1-1.7 2.1-2.5 3.3-2.5h.7v1h-.2c-.9 0-1.6.6-2.3 1.8l-.5 1c-.5.8-.9 1.4-1.3 1.8s-.9.7-1.5.9c1.1.6 1.9 1.3 2.4 2.2.6.9.9 1.9.9 3 0 1.6-.6 2.9-1.8 4.1-1.2 1.2-2.5 1.7-4.1 1.7-1.6 0-3-.6-4.1-1.7-1.2-1.2-1.8-2.5-1.8-4.1 0-1.1.3-2.1.9-3 .4-.9 1.3-1.6 2.3-2.2zm2.6 9.7c1.2 0 2.3-.4 3.2-1.3.9-.9 1.3-1.9 1.3-3.1 0-1.2-.4-2.3-1.3-3.2s-1.9-1.3-3.2-1.3c-1.3 0-2.3.4-3.2 1.3-.9.9-1.3 1.9-1.3 3.2 0 1.2.4 2.3 1.3 3.1.9.9 2 1.3 3.2 1.3zm-94.5-79.3v-1.1c1.3-.3 2.5-.6 3.5-.7V60.8c-1.2-.1-2.4-.3-3.5-.7V59c2.1.6 4.6.9 7.6.9s5.5-.3 7.6-.9v1.1c-1.2.3-2.4.6-3.6.7v11.8c1.1.1 2.3.4 3.6.7v1.1c-2.3-.6-4.9-.9-7.6-.9-2.7.1-5.2.4-7.6 1zm4.9-1.9c.8-.1 1.7-.1 2.6-.1 1 0 1.8 0 2.6.1V60.9c-.7 0-1.6.1-2.6.1-1.1 0-1.9 0-2.6-.1v11.7zM470 357c0 1.1-.3 2.3-.8 3.6s-1.2 2.4-2.1 3.4h-1.5c2-2.1 3-4.5 3-7h-2.9v-1h2.9c-.1-2.2-1.1-4.3-3-6.4h1.4c1.7 1.9 2.7 4 3 6.4h2.8c.2-2.4 1.2-4.5 3-6.4h1.4c-1.9 2.1-2.9 4.2-3 6.4h2.9v1h-2.9c0 2.5 1 4.9 3 7h-1.5c-.9-1-1.6-2.1-2.1-3.4-.5-1.3-.8-2.5-.8-3.6H470zm-82 91.9l5.1-3.4 1.1 2.6 4-2.6 1.1 2.6 4-2.6 1.7 3.9-1.1.5-1.1-2.6-4 2.6-1.1-2.6-4 2.6-1.1-2.6-4 2.6-.6-1zm0-7.1l5.1-3.4 1.1 2.6 4-2.6 1.1 2.6 4-2.6 1.7 3.9-1.1.5-1.1-2.6-4 2.6-1.1-2.6-4 2.6-1.1-2.6-4 2.6-.6-1zm-69.3-44.3l2.7-1.8.6 1.4 2.1-1.4.6 1.4 2.1-1.4.9 2-.6.2-.6-1.4-2.1 1.4-.6-1.4-2.1 1.4-.6-1.4-2.1 1.5-.3-.5zm0-3.7l2.7-1.8.6 1.4 2.1-1.4.6 1.4 2.1-1.4.9 2-.6.2-.6-1.4-2.1 1.4-.6-1.4-2.1 1.4-.6-1.4-2.1 1.4-.3-.4zm11.4-3.7l2.7-1.8.6 1.4 2.1-1.4.6 1.4 2.1-1.4.9 2-.6.2-.6-1.4-2.1 1.4-.6-1.4-2.1 1.4-.6-1.4-2.1 1.4-.3-.4zm0-3.7l2.7-1.8.6 1.4 2.1-1.4.6 1.4 2.1-1.4.9 2-.6.2-.6-1.4-2.1 1.4-.6-1.4-2.1 1.4-.6-1.4-2.1 1.4-.3-.4zm16.6-3.3l2.7-1.8.6 1.4 2.1-1.4.6 1.4 2.1-1.4.9 2-.6.2-.6-1.4-2.1 1.4-.6-1.4-2.1 1.4-.6-1.4-2.1 1.4-.3-.4zm0-3.7l2.7-1.8.6 1.4 2.1-1.4.6 1.4 2.1-1.4.9 2-.6.2-.6-1.4-2.1 1.4-.6-1.4-2.1 1.4-.6-1.4-2.1 1.4-.3-.4zm23.8-16.8l2.7-1.8.6 1.4 2.1-1.4.6 1.4 2.1-1.4.9 2-.6.2-.6-1.4-2.1 1.4-.6-1.4-2.1 1.4-.6-1.4-2.1 1.4-.3-.4zm.1-3.8l2.7-1.8.6 1.4 2.1-1.4.6 1.4 2.1-1.4.9 2-.6.2-.6-1.4-2.1 1.4-.6-1.4-2.1 1.4-.6-1.4-2.1 1.4-.3-.4zM147.3 97.9c-1.1 1-2.1 1.5-3.1 1.5-.9 0-1.6-.3-2.1-.8-.6-.6-.9-1.3-.9-2.1 0-1.1.6-2.9 1.7-5.4l.9-1.9c.7-1.5 1-2.7 1-3.6 0-1.2-.3-2.1-1-2.8-.7-.7-1.6-1.1-2.7-1.1-1 0-1.9.3-2.5.9-.6.6-1 1.5-1 2.5 0 .9.3 2 .9 3.3l.4.8c.6 1.2.9 2.2.9 2.7 0 .9-.4 1.8-1.1 2.5-.7.7-1.6 1-2.5 1-1 0-1.9-.4-2.6-1.1-.7-.7-1.1-1.6-1.1-2.6s.3-1.8 1-2.5 1.5-1.1 2.5-1.1c.3 0 .7.1 1.2.2-.7-1.3-1-2.4-1-3.4 0-1.3.5-2.3 1.4-3.2.9-.9 2.1-1.3 3.5-1.3 1.5 0 2.8.5 3.7 1.3.9.9 1.4 2.1 1.4 3.6 0 .7-.1 1.4-.2 1.9-.2.5-.5 1.4-1.1 2.7l-.6 1.4c-1.1 2.5-1.7 4.1-1.7 4.8 0 .5.2 1 .5 1.3.3.3.7.5 1.2.5.6 0 1.4-.4 2.2-1.1l.8 1.1zm-13.6-6c0 .7.2 1.3.7 1.8.5.5 1.1.7 1.8.7s1.3-.3 1.8-.8.7-1.1.7-1.8-.2-1.3-.7-1.8c-.5-.5-1.1-.7-1.8-.7s-1.3.3-1.8.8-.7 1.1-.7 1.8zM353.6 429c-.6.5-1.1.8-1.6.8-.4 0-.8-.1-1.1-.4-.3-.3-.5-.7-.5-1.1 0-.6.3-1.5.9-2.8l.5-1c.4-.8.5-1.4.5-1.9 0-.6-.2-1.1-.5-1.5-.4-.4-.8-.6-1.4-.6-.6 0-1 .2-1.3.5-.3.3-.5.8-.5 1.3s.2 1.1.5 1.7l.2.4c.3.7.5 1.1.5 1.4 0 .5-.2.9-.6 1.3s-.8.6-1.3.6-1-.2-1.3-.6c-.4-.4-.6-.8-.6-1.4 0-.5.2-1 .5-1.3.4-.4.8-.6 1.3-.6.2 0 .4 0 .6.1-.4-.7-.5-1.3-.5-1.8 0-.7.2-1.2.7-1.7.5-.4 1.1-.7 1.8-.7.8 0 1.5.2 1.9.7s.7 1.1.7 1.9c0 .4 0 .7-.1 1-.1.3-.3.8-.6 1.4l-.3.7c-.6 1.3-.9 2.1-.9 2.5 0 .3.1.5.3.7.2.2.4.3.6.3.3 0 .7-.2 1.2-.6l.4.7zm-7.2-3.2c0 .4.1.7.4 1 .3.3.6.4.9.4.4 0 .7-.1.9-.4s.4-.6.4-1-.1-.7-.4-1c-.3-.3-.6-.4-.9-.4-.4 0-.7.1-.9.4-.2.3-.4.7-.4 1z"/>
  </g>
  <g id="symbols">
    <path id="path1308_1_" class="st3" d="M281.1 442c0 2.7-2.2 5-5 5s-5-2.2-5-5 2.2-5 5-5 5 2.3 5 5z"/>
    <path id="path2183_1_" class="st2" d="M277.4 442.1c0 .7-.6 1.2-1.2 1.2s-1.2-.6-1.2-1.2.6-1.2 1.2-1.2 1.2.5 1.2 1.2z"/>
    <path id="path3058_1_" class="st3" d="M250.8 440.9c0 1.9-1.5 3.4-3.4 3.4s-3.4-1.5-3.4-3.4 1.5-3.4 3.4-3.4 3.4 1.5 3.4 3.4z"/>
    <path id="path3060_1_" class="st3" d="M250.8 434.1c-.2 1.9-1.9 3.3-3.7 3.1-1.6-.2-2.9-1.4-3.1-3.1"/>
    <path id="path3062_1_" class="st3" d="M247.4 444.3v3.7"/>
    <path id="path3937_1_" class="st3" d="M245.8 446.5h3.1"/>
    <path id="path3939_1_" class="st3" d="M166.5 402.3c0 1.9-1.5 3.4-3.4 3.4s-3.4-1.5-3.4-3.4 1.5-3.4 3.4-3.4 3.4 1.5 3.4 3.4z"/>
    <path id="path3941_1_" class="st3" d="M163 405.7v4.3"/>
    <path id="path4816_1_" class="st3" d="M161.2 408.2h3.7"/>
    <path id="path5691_1_" class="st3" d="M115.6 348.4c-.6 0-1.1.1-1.7.3 2.9.9 5 3.6 5 6.8s-2.1 5.9-5 6.8c.6.2 1.3.3 2 .3 3.9 0 7-3.2 7-7s-3.2-7-7-7c-.2-.2-.3-.2-.3-.2z"/>
    <path id="path6570_1_" class="st3" d="M423.3 172.6v9"/>
    <path id="path6572_1_" class="st3" d="M422.1 174.4h3.7"/>
    <path id="path6574_1_" class="st3" d="M427.7 183.4c-.3.3-.6.6-.9.6s-.9-.3-.9-.9c0-.6.3-1.2.9-1.9.6-.6 1.2-1.9 1.2-3.1 0-1.2-.6-2.5-1.9-2.5-1.2 0-2.2.6-2.8 1.9"/>
    <path id="path6576_1_" class="st3" d="M445.4 214.3v12.1"/>
    <path id="path6578_1_" class="st3" d="M447.3 223.3h-9"/>
    <path id="path6580_1_" class="st3" d="M439.2 218.7c-.3 0-.9-.3-.9-1.6 0-1.2 1.2-2.5 2.5-2.5 1.2 0 2.5.9 2.5 3.1s-1.5 5.6-4.6 5.6"/>
    <path id="path6582_1_" class="st2" d="M439.8 218.4c0 .3-.3.6-.6.6s-.6-.3-.6-.6.3-.6.6-.6c.4 0 .6.2.6.6z"/>
    <path id="path6778_1_" class="st2" d="M370.4 413.5h-2.2v-.3l1.6-.3v-6.2l-1.6-.3v-.4h2.2v7.5z"/>
    <path id="path6780_1_" class="st2" d="M377.2 413.5h2.2v-.3l-1.5-.3v-6.2l1.5-.3v-.4h-2.2v7.5z"/>
    <path id="path6782_1_" class="st3" d="M370.1 409.7h7.4"/>
    <path id="path6784_1_" class="st3" d="M373.8 406v8.1"/>
    <path id="path6786_1_" class="st3" d="M375.1 415.6c0 .7-.6 1.2-1.2 1.2-.7 0-1.2-.6-1.2-1.2s.6-1.2 1.2-1.2 1.2.5 1.2 1.2z"/>
    <path id="path6788_1_" class="st3" d="M333.6 424.2c-.9 6.2.6 7.1 3.7 7.1s4.7-.9 3.7-7.1"/>
    <path id="path6790_1_" class="st3" d="M337.3 424.8v11.5"/>
    <path id="path6792_1_" class="st3" d="M334.8 433.8h5"/>
    <path id="path6794_1_" class="st3" d="M186.3 424.4h5"/>
    <path id="path6796_1_" class="st3" d="M188.8 426.9v-5.3"/>
    <path id="path6798_1_" class="st3" d="M190.9 417.9c0 1.2-1 2.2-2.2 2.2s-2.2-1-2.2-2.2 1-2.2 2.2-2.2 2.2 1 2.2 2.2z"/>
    <path id="path6800_1_" class="st3" d="M192.5 417.9c0 2.1-1.7 3.7-3.7 3.7-2.1 0-3.7-1.7-3.7-3.7"/>
    <path id="path6584_1_" class="st3" d="M405.6 386.8c.6 2-.5 4-2.5 4.6s-4-.5-4.6-2.5c-.6-2 .5-4 2.5-4.6 2-.6 4.1.5 4.6 2.5z"/>
    <path id="path1361_1_" class="st3" d="M404.8 385.3l2.2-2.2"/>
    <path id="path1365_1_" class="st3" d="M404.8 383.1h2.2v2.2"/>
  </g>
</svg>
