<svg xmlns="http://www.w3.org/2000/svg" width="1000" height="1000" viewBox="0 0 1000 1000"><path clip-rule="evenodd" stroke="#f00" stroke-miterlimit="10" d="M662.8 33.6c-3.6 17.1-2.1 51.2 0 62.6 24.3-3.6 6.7-49.2 29.5-54.9-3.7 8.3-4.7 18.7-4.2 31.6 14.5 2.6 12.4-26.9 23.8-33.6-2.6 10.9-5.2 21.7-6.2 33.6 17.6 2.1 14.5-17.1 23.8-23.8-1 9.3-12.4 17.1-6.2 27.4 20.7 0 21.2-29 37.3-27.4.5 10.3-14.5 13.4-9.9 21.7 14.5.5 17.1-10.4 29.5-11.9-3.6 5.2-7.8 10.3-3.6 17.6 10.9.5 13.5-8.3 23.3-9.8l-2.1 11.9c11.9 5.2 13.5-7.8 23.8-2.1-5.2 11.4-15 18.1-17.6 31.6 19.2 9.8 24.3-19.2 40.9-11.9-11.4 17.1-29 28.5-37.3 49.2 22.8 4.7 35.2-27.5 56.9-23.8-9.8 23.8-41.9 24.8-49.2 51.2 25.9-5.2 40.4-21.2 59-33.1-8.8 12.5-21.8 19.7-33.6 29-10.9 9.3-25.9 17.1-31.1 31.6 22.2-5.2 39.3-14.5 56.9-25.4 7.8-5.2 20.7-21.2 33.1-16.1-13.5 26.4-58 38.8-78.2 64.7 17.1 9.3 34.2-8.8 50.7-17.6 13.5-7.2 37.8-26.4 49.2-11.9-25.9 20.2-61.6 30.1-82.3 55.4 14.5-1 32.6-5.7 52.8-14 5.7-2.6 45.1-24.3 45.1-11.9 0-1-35.2 18.6-41.4 21.7-16.5 8.8-33.6 9.3-36.7 27.5 27.9.5 58-23.3 85.9-23.3-15.5 17.1-45 21.2-62.6 36.7 26.4 7.8 48.7-14.5 68.3-13.4-4.1 9.8-14.5 14-26.9 15.5-8.3 17.1-41.9 8.3-47.1 27.5 26.4 6.2 63.2-14.5 82.3-9.8-14 6.7-30.5 9.8-45 16-14 5.2-30 9.8-37.3 21.2 26.9 3.7 54.9-19.2 83.9-13.4-4.1 15-24.3 17.6-38.8 23.3-15 5.7-34.7 7.2-41.4 21.7 30 6.7 63.7-9.8 84.4-11.9 4.1 12.5-11.4 10.9-17.6 14l-21.7 9.8c-15.5 5.2-36.2 5.2-43 19.2 29 6.2 60-12.9 84.4-11.3-23.3 18.1-65.2 17.1-82.3 40.9 23.8 7.8 59.5-5.2 84.4-9.8l1.6 11.9c-21.8 10.8-60.1 5.2-72.5 25.3 18.6 12.4 51.3-4.7 70.9 2.1v9.8c-15 5.7-42.4-.5-51.3 11.4 5.2 13.4 36.3 1 47.1 8.3-6.7 20.2-50.2 3.1-60.6 19.7 8.3 17.1 48.7 2.1 58.5 17.6-9.3 6.7-36.8-4.2-43 5.7 3.6 13.5 31.6 2.1 37.3 13.5.5 8.8-12.4 5.2-9.8 16.1 23.8 18.1 35.7 47.6 43 82.3v2.1c-3.1 40.9-27.9 81.8-68.3 88-21.2 3.1-50.7-2-72.5-6.2-15.5 57-5.2 141.3-6.2 208.1-41.4 0-99.9 9.3-140.8 9.8 3.1-71.5-10.9-201.4-84.4-153.2-2.6 31.6 0 68.3-5.7 96.3-34.2-4.7 12.9-83.4-23.8-86.4-6.2 26.9 3.6 68.9-11.4 86.4-10.9-19.2 8.3-69.9-8.3-88-20.7 4.2-12.9 45.6-15.5 68.4-.5 6.7.5 20.2-7.8 19.7-9.8-21.2 8.3-75.6-14-80.2-30-6.7-13.5 63.1-27.4 84.4-12.9-18.7 4.7-68.9-7.8-92.2-4.7 1.1-8.8 2.6-15.5 1.6-4.7 11.9-5.2 33.1-5.7 53.3-.5 12.4 6.7 37.3-11.9 35.2-5.7-26.9 1-68.4-2.1-92.2-39.9 6.2.5 82.3-31.1 97.9-1.5-34.2 2.6-62.1 1.6-95.8-11.9-1-21.7 0-27.4 5.7-3.6 26.4 4.1 73.5-13.5 92.1-3.6-26.4 1.5-61.1 2-90-39.3-5.7-32.1 62.6-33.6 97.8-.5 19.2 1.6 35.7 0 49.2-27.4 4.2-62.1 1.6-90.1 5.7h-50.7c-11.9-22.8-3.1-66.8-11.9-92.1-52.8-16.1-113.4 7.2-168.8 0-17.1-88-24.3-185.4-27.4-287.8v-31.6c-.4-75 19.3-129.3 43.6-178.5 25.4-14 63.7-14.5 103.6-14 29 22.3 50.2 51.8 74.5 78.2 11.4 34.7 19.2 73 23.8 113.9 11.4 5.2 22.8 10.8 36.8 11.9 87 4.6 201.4-9.9 290.4-2.1 33.1-16.6 67.8-57.5 45.1-105.6-60.6-14.5-105.1 6.2-133.6 35.2-9.8-10.8-17.6-24.3-27.4-35.2 3.6-8.8 12.9-10.9 11.9-23.8-6.7.5-18.1-4.7-27.4 0-11.9-24.3-35.7-47.6-43-70.4 53.3-6.7 73.5-45.1 76.6-102-13.5-7.2-29-14.5-45.6-23.8-14-7.8-37.8-13-36.7-31.1 26.9 4.2 47.1 25.3 68.3 29.5-.5-30.6-50.8-28-54.9-61.1 30-7.2 40.9 30.5 66.8 27.4-8.8-26.4-38.3-32.6-49.2-56.4 27.9-13.5 39.9 35.7 70.4 38.8-5.2-29.5-49.2-40.4-40.9-70.4 32.6 4.2 28.5 44.5 60.6 49.2-3.6-32.1-28-44-38.8-68.9 7.2-.5 6.7-8.8 17.6-5.7 17.6 21.7 23.8 55.4 50.7 68.3-3.6-34.7-28.5-59-31.6-88 27.9.5 22.8 56.4 49.2 66.7 10.3-25.6-20.7-53.1-17.6-78.4 21.8 6.7 17.6 55.4 40.9 66.7-.5-25.8-18.1-54.3-9.3-76.6 15.5.5 17.6 21.7 21.2 35.7 4.2 14.5 4.7 33.6 16.1 40.9 12.4-23.8-11.9-63.6 0-86.5 5.7 8.3 6.7 22.8 9.3 35.7 2.6 11.4 2 28.5 11.9 33.1 11.4-18.1 7.8-51.2 14-74.5h5.6m115.5 121.7c-5.7-34.2-29-52.3-66.3-41.4-37.8 10.8-81.3 44-74.5 94.2 16.6-1.6 19.7-16.6 25.4-29.5 19.2-16.1 38.8-31.6 68.8-37.3 26.9 13.5 19.7 60 19.2 96.3 24.3-7.7 33.1-51.7 27.4-82.3m-68.4 102c44-7.8 40.9-76.1 23.3-109.7-39.9 11.9-75.1 39.8-78.2 82.3 21.2 1.6 22.3-27.5 35.2-27.5-5.7 10.9-12.9 20.7-13.5 36.8 15-.5 17.6-13.5 29-17.6-3.1 6.7-6.2 13.5-5.7 23.8 8.8 3.1 10.4-11.3 13.5-7.8-3 4.2-4.6 10.9-3.6 19.7m-84.3-66.8c-26.4-2.6-58.5 7.2-82.3 33.1-19.2 21.2-61.1 91.1-58.5 119.6 2.1 28 35.7 60 52.8 72.5 8.3-6.7 20.7-12.4 31.1-19.7 8.8-5.7 23.8-14 21.7-25.3-8.8-2.1-38.8 2.1-47.1 0-5.7-27 0-68.4 5.7-95.8 16.6-20.2 41.4-32.1 76.6-33.6 10.8-10.9 5.1-37.8 0-50.8m-54.9 90.1c4.7 6.7 21.7 1.6 27.4 7.8 3.1 7.8-12.4 11.9-11.9 23.8 10.4 6.2 28.5-3.1 35.7 0-4.7 5.7-5.7 19.2-2.1 27.5 36.2 0 25.4-52.8 17.6-76.6-25.3-4.2-60-3.2-66.7 17.5m25.3 131.5c36.2-18.6 53.8-38.3 88.5-63.1 22.8-16.1 46.1-29.5 60.6-43 9.3-8.3 38.3-37.3 17.6-43-12.9 15.5-31.1 30.5-49.2 45.1-32.6 26.4-65.2 52.2-99.9 74.5-17.1 10.8-42.5 19.2-46.6 37.2 7.8 4.7 19.7-3 29-7.7m61.1-147c-3.1 27.4 0 48.6-11.9 66.2 29.5-3.6 60-23.3 70.4-52.8-20.2-3.6-34.7-13.4-58.5-13.4m128.9 25.3c-32.6 23.3-61.1 58.5-95.8 80.3-25.9 16-54.4 31.1-78.2 45-8.3 4.7-22.8 7.2-23.8 19.7 23.3 6.7 58.5 1.5 82.3 7.8 22.3-9.3 36.8-27.5 52.8-45.1 16.1-16.6 30.6-36.7 49.2-45.1-3.1 16.1-20.2 28-17.6 43 25.9-1.5 45.6-10.3 68.3-15.5-5.2-32.6-7.8-67.9-23.3-90.1h-13.9m-311.1 92.2c17.6 20.2 25.9 50.7 48.7 66.7 5.2-2 10.3-2.6 17.6-2 1-17.1-15.5-29-25.4-41.5-10.3-12.9-19.7-29-35.2-35.2h-4.2l-1.5 12m-17.6-5.7c-37.8-10.3-8.8 59.5 19.2 36.8-3.1-7.8-10.4-34.7-19.2-36.8m-382.6 38.8c26.9 7.2 66.8-6.2 92.2 2.1 9.3 3.1 14 17.1 21.7 9.8 2.1-51.2-99.4-60-113.9-11.9m611.4 49.2c46.1-17.6 86.5-40.4 141.3-49.2-.5-7.2 1.6-17.1-2.1-21.2-56.3 13.4-109.7 30-139.2 70.4m-556.5-47.1c-44-.5-82.3 33.1-82.3 70.4 22.8-6.7 39.3-29.5 62.7-29-26.9 16-60.1 27.4-62.7 68.3 24.9-.5 32.1-28.5 51.3-27.4-43.5 31.1-77.1 81.8-72.5 154.8 19.2-5.7 15-29 19.7-43 16.6-54.3 49.7-97.9 117.5-99.9 17.6 6.2 26.9 21.2 50.7 21.2 2.1-26.9-32.1-34.2-50.7-47.1 18.1-2.6 26.9 13.4 43 6.2-8.3-32.1-46.1-34.2-76.6-39.3 21.7-1.6 46.1 3.6 61.1 2.1-.1-23.8-35.8-37.3-61.2-37.3m662.6 11.9c-9.3 2.1-26.9 7.2-37.3 11.4-10.9 4.7-63.2 31.6-62.6 41.4 1 23.3 50.7-8.8 56.9-11.9 33.6-17.6 66.3-14 82.3-37.2-6.1-13.5-26.3-6.8-39.3-3.7m-298.1 35.2c6.2-3.1 9.8-8.8 8.3-19.7-14.6-5.1-14.6 15.6-8.3 19.7m219.4 37.3c26.4 40.3 62.1 70.9 106.1 93.7 21.7-31.1 20.2-92.2 15.5-138.7-50.1-1.6-93.1 18-121.6 45m63.2 105.6c8.8 8.8 18.1 25.3 33.1 21.7-.5-35.2-35.7-54.4-59-74.5-11.9-10.9-24.3-20.7-37.3-31.1-12.4-10.9-22.2-27-38.8-31.6h-4.2c11.5 62.1 69.4 78.2 106.2 115.5m-633.1-85.9c-93.2 10.3-105.6 127.8-97.9 227.2 2.1 31 4.7 79.2 37.3 85.9 10.4-26.9-7.2-60-9.8-95.8-6.7-85.4 6.7-192.6 85.9-190 17.6.5 32.1 11.9 49.2 9.8-8.3-26.8-30-41.3-64.7-37.1m-29.5 52.8c-24.9 34.2-45.6 146-15.5 184.3 12.9-66.3-2.1-175.5 70.4-176.6 14 0 25.4 12.4 39.3 2.1-15-32.6-69.4-31.6-94.2-9.8m603.6 39.3c-7.8-.5-2.1-13.4-9.9-14-3.1 5.7-2.1 15.1-11.9 14-.5-4.2 5.2-15-2.1-18.1-6.2 2.6-10.4 6.7-17.1 8.3 2.6-8.8 11.9-10.3 9.3-23.8l-23.3 7.8c.5-7.2 1.5-13.9 4.1-19.2-6.2-.5-16 4.7-17.6 1.6v-11.5c-43.5 6.2-30 43.5-25.9 81.8 4.7 39.9-8.3 85.4 0 118.1 29.5 8.3 53.8-15.6 72.5-17.6-.5 9.3-6.7 12.4-9.9 19.7 8.8 41.9 20.7 81.2 27.4 125.3 22.8 16 47.1-8.3 76.6-7.8 5.7 4.6 12.4 12.4 21.7 7.8-11.4-61.1 19.2-119.6 11.4-170.9-.5-5.7-2.6-19.1-11.4-21.2-10.3.5-9.3 12.9-17.6 15.5 4.1-8.8.5-25.3 1.5-37.2-11.4-3.1-15.5 11.3-19.2 9.8-2.6-8.8 5.7-17.1 0-23.3-6.7 0-12.9 10.3-16 7.8v-19.7c-9.3-3.7-14.5 7.2-17.6 4.2 1.5-5.2 7.2-11.9 2.1-17.6-12.4-2.6-13.5 6.2-21.8 7.2 1-6.2 4.2-10.3 4.2-17.1-24.5 3.1-19.9 7.7-9.5-9.9m164.6-8.3c-4.1-4.2-4.7-11.9-7.8-17.6-33.6-2.1-12.9 24.4-4.2 33.6-9.8-4.7-22.2-18.1-35.2-7.8v21.2c11.4 2.6 22.8 5.2 31.6 9.8-8.8 3.7-23.3 2.1-31.6 6.2-.5 8.8 3.1 14 4.1 21.2 11.4 4.7 21.7-5.7 35.2-5.7 1 4.2 4.7 5.7 3.6 11.9-8.3 3.1-17.6 5.2-21.2 13.5 5.7 23.8 30 13.4 38.8 0-3.1 6.7-6.7 23.8 0 29.5 6.2 1.1 7.2-3.6 14-2.1 1.5-10.8 1.5-23.3 9.8-27.4l9.8 13.4c11.4-2.6 21.2-7.2 23.3-19.2-3.6-8.3-15-8.8-15.5-19.7 11.9-3.6 17.6 7.2 29.5-2.1 0-8.3-.5-17.6 2.1-23.8-5.7-5.2-21.7 0-25.9-7.2v-6.2c5.2-3.7 10.3-6.7 17.6-7.8 3.6-44-29-17.1-38.8-9.9 4.1-7.2 11.9-19.7 5.7-31.6h-11.9c-4.2 5.2-4.2 14.5-7.8 19.7-9.3-2-1.5-11.9-3.6-23.3-22.1-17.8-14.3 22.6-21.6 31.4m-678.2 96.3c3.1 34.2 37.3 61.1 39.3 99.9 1 29-10.9 53.8-5.7 88l7.8 8.3c22.8 1.5 53.3-3.7 80.2-4.2 5.7-15 11.4-42.5 4.1-59-9.8 2.1-19.7 2.6-29.5 4.2 32.6-25.3 60.6-65.2 46.6-125.3 2.1 5.7 6.2 9.8 16.1 7.8 0-40.4 10.3-88-2.1-123.7-90-37.8-165 8.2-156.8 104m286.3-107.7c0 12.9 14.5 12.4 23.3 7.8 6.2-16.1-21.2-18.7-23.3-7.8m-49.2 3.6c18.1 17.6 43 28 62.6 43 17.1-13.4 40.4-20.7 45-46.6-25.9-1.6-28.5 20.7-48.7 19.7-18.6-1.5-30.5-28.5-59-23.8v7.7m78.8 53.4c.5 11.3 18.1 18.6 27.4 27.4 6.7 8.8 15.5 25.4 27.4 23.3 13.5-27.5-22.3-37.8-29.5-57 8.3-18.6 32.1-22.8 33.1-49.2-21.1 2.7-59.4 43.1-58.4 55.5m76.1-53.4c-19.2 38.3-11.9 117.5-7.8 166.7 7.8-.5 8.3-7.2 15.5-7.8 4.1-36.2 4.1-73.5 4.1-111.8 0-17.1 5.2-38.8-7.8-47.1h-4m-192 106.2c-1-33.1-1-64.2-1.5-94.3-7.8-5.2-8.3-12.9-21.7-7.8 3.1 43-4.2 111.8 2.1 156.9 1 10.3 3.1 21.7 13.5 25.3 18.4-9.2 9.1-47 7.6-80.1m-260.4 54.9c7.8 15 21.2 27.4 29.5 38.8 9.8 15 18.6 34.7 35.2 35.7 10.9-30.1-17.1-53.4-23.8-78.7-12.9-51.2 5.7-97.9 7.8-145-75.1-42.9-75.1 96.9-48.7 149.2m284.2-135.2c11.9 9.3 25.4 17.1 31.1 33.1-10.9 14.5-34.2 28.5-23.3 52.8 25.9-12.9 44.5-32.6 60.6-54.9-16.6-20.7-40.4-34.2-68.3-43v12m127.2 21.3c3.6 11.9 11.9 19.2 21.7 25.4l5.7-3.7c-1-13.4 1.5-30.6-2.1-41.4-17-1.6-19.6 10.3-25.3 19.7m-129.4-5.7c.5 12.4-1.5 27.4 2.1 37.2 12.9-3.6 22.8-9.8 23.3-25.3-6.7-6.8-13.5-16.1-25.4-11.9m92.2 27.4c-25.9-6.7-49.7 26.9-59 52.8 24.8-1 34.2-18.1 51.3-27.4 13.5 10.3 27.4 31.1 54.9 21.7-14.1-17.1-26.5-41.9-47.2-47.1m-17.6 57c9.9-2.1 24.4 1 25.4-9.8-4.7-17.7-41-7.8-25.4 9.8m-29.5 5.6c-12.9.6-33.1-6.2-35.2 9.8 9.3 15.1 45.1 9.9 72.5 9.9 25.9 0 66.3 8.8 66.8-16.1-22.9-11.3-71-5.1-104.1-3.6m-317.4 102c5.2-15.6-7.8-32.6-14-49.2-6.7-17.6-12.9-35.2-19.7-50.7l-3.6-2.1c-16.5 37.8 6.8 98.9 37.3 102m334.9-68.8c-12.9-6.2-47.1-19.7-50.7 4.2 34.2 9.8 72 5.2 103.5 15.5 6.7-6.7 23.8-2.1 23.8-15.5-24.8-4.7-49.6-10.4-76.6-4.2m243.4 164.6c17.1 6.7 49.2-1.6 72.5-1.6-1.5-6.7-3.6-12.4-6.2-18.1-32.7 3.6-60.6-11.4-66.3 19.7m-462.8-5.7c-3.6 6.2-8.3 14.5-3.6 23.3 21.2-4.2 49.7-2.1 66.3-11.4 0-5.7-3.6-8.3-3.6-13.9-19.8-8.4-37.4 2.5-59.1 2" fill="none"/></svg>