<svg xmlns="http://www.w3.org/2000/svg" width="1000" height="1000" viewBox="0 0 1000 1000"><path clip-rule="evenodd" stroke="#f00" stroke-miterlimit="10" d="M587.1 10h9c39 1.8 76.3 19.8 102.1 40.9 13.2 10.8 27 20.4 36 32.4 31.2 42.6 55.2 102.7 46.3 167.5-1.8 12.6-9.6 25.8-13.8 39-3.6 10.8-10.8 27.6 0 40.9 9.6-2.4 12-15.1 15-23.5 14.4-36 39-80.5 85.8-85.9 33.7-3.6 52.3 17.5 59.5 46.3v10.2h-1.8c1.2 11.4-7.2 23.4-13.2 22.2 0-13.2 4.8-22.9 4.8-36-18-48.1-84.7-13.8-103.9 10.8-22.8 27.6-37.2 80.5-32.4 132.7 2.4 27.6 11.4 58.8 18.6 88.9 6.6 29.4 12.6 59.5 20.4 87.1 16.8 61.8 36 121.3 36 177.7 0 31.2-10.2 62.4-25.8 82.2-16.2 20.4-58.2 34.2-90.7 27-20.4-4.2-27.6-25.2-55.8-25.2.6 19.8 16.2 34.2 23.4 52.8 10.8 26.4 19.2 56.4 17.4 91.9h-8.4v-1.8c-40.8-9.6-107.5-16.2-162.7-11.4-9 .6-19.2 4.8-27 3-12-2.4-17.4-17.4-28.8-15-6.6 3.6-7.2 13.2-12 18.6-24 0-41.4-10.2-66.7-15.6-53.4-10.8-116.5-1.2-165.7 1.8-3-94.9 139.3-67.8 190.9-40.8 9-41.4-14.4-74.5-36-100.9-19.2-24-35.4-39.6-59.4-61.2-21-19.2-34.8-30-63.1-37.8-.6-12.6-5.4-21-3.6-36 12-4.2 33 0 37.8-12-11.4-15.1-27.6-15.6-41.4-30.6-26.4-28.9-42.6-82.3-67.9-105.7-13.2-12.1-28.2-12.6-46.2-1.8-4.8 29.4 6.6 43.2 12 63.1-13.2 4.8-27.6 6-41.4 1.8l-3-27c-40.2 15-33.7 106.3 34.2 85.2-4.2 9-7.8 18.6-12 27-18-6-43.2-4.8-63.7-8.4-1.2-31.2-1.2-64.2-16.8-81.7v-10.2c27.6-59.5 78.1-95.5 117.7-142.3 39.6 26.4 68.5 68.4 96.1 112.8 6.6 12.1 18.6 39 30.6 34.3 10.2-4.2 14.4-35.4 16.8-44.4 13.8-45.1 24.6-102.7 44.4-135.1 6.6-9.6 26.4-16.8 24-33.6-1.2-12-27-22.8-36-33-31.8-35.4-45.6-112.3-20.4-156.7 45.6-4.2 96.1-15.1 92.5-61.9-1.2-13.2-16.2-22.2-15.6-35.4 1.8-27.6 45.6-48.1 68.4-60.1 27.6-14.5 55.2-26.4 95.5-27.1m-46.3 61.2c14.4.7 15-12.6 12-24-10.2 1.2-16.8 12.6-12 24m51.7-10.1c-9.6-13.8-24.6 12-15.6 22.2 11.4-1.2 13.8-11.4 15.6-22.2m37.2 8.4c-13.2-4.2-24.6 7.8-22.2 25.8 15-1.8 24-12.7 22.2-25.8m1.8 49.2c15-3 27-9 29.4-25.2-16.2-4.8-31.2 6-29.4 25.2m-184.3 61.9c-28.8 4.2-46.8 19.2-72.1 27.6v28.8c-7.2-4.2-4.8-18.6-18.6-17.4-21.6 31.2 0 87 30.6 94.3 37.2 8.4 55.2-20.5 54.6-58.2 30 14.4 61.9 35.4 108.1 25.8 29.4-6 64.8-44.4 69.7-76.9 9-58.8-28.8-109.3-88.9-107.4-28.8.6-68.4 6.6-66.7 39 51.6-12.6 111.7 19.8 85.9 73.2 4.2-30-6-61.8-29.4-66.7-9.6-1.8-30-.6-34.2 12 15.6 0 48.1 9.1 46.2 31.3l-8.4 13.2c-7.8-1.8-12.6-6-20.4-3-5.4 9.6 4.2 13.2 4.8 22.2-22.8 10.2-35.4-12.6-49.2-22.2-11.4 33.6 20.4 54.1 56.4 47.4 12-7.8 27-22.8 34.2-30.6-14.4 58.8-116.5 41.4-102.6-32.4m204.7-37.9c15 6.6 27-4.8 32.4-13.2l-1.2-3.6c-14.4-4.8-34.2-1.2-31.2 16.8m12 31.2c7.8 9.1 33.6 3 37.8-7.2-7.8-11.3-36.6-7.8-37.8 7.2m-1.8 25.2c-3 18.6 28.8 16.8 32.4 5.4l-1.2-5.4c-7.8-3-22.8-1.1-31.2 0m-8.4 42.7c11.4 4.2 28.2 19.2 37.8 5.4-3-14.5-18.6-16.8-37.8-15.6v10.2m-10.2 29.4c10.2 1.2 10.8 12.1 22.2 12.1l5.4-3.6c1.8-12-9-23.4-27.6-20.4v11.9m-24 16.8c-1.8 9.1 12.6 17.5 22.2 20.5l7.2-4.8c1.8-18.7-26.4-28.8-29.4-15.7m-10.2 42.7c12.6-6.6.6-30-10.2-33.6-8.4 12-4.8 31.2 10.2 33.6m114.7 15.6c-6 12.6-6.6 36-20.4 44.4l-10.2-1.8c-4.2 12.6-19.2 14.4-27.6 22.2-19.2-6.1-32.4-17.5-48-27-8.4 14.4 7.8 34.2 13.8 39 9.6 7.8 33.6 18.6 56.4 13.8 16.2-3.6 51.6-31.9 60-54.7 13.2-39-6.6-83.5-41.4-84 6 18.7 16.8 28.8 17.4 48.1m-153.8-36.1c-19.2 3-9.6 39 3 40.9l7.2-3c-2.9-13.2-2.3-30-10.2-37.9m-70.2 46.3c12.6-6.6 7.8-28.8 3.6-40.9-20.4-1.1-15.6 36.7-3.6 40.9m-44.4-34.2c3 10.2.6 25.8 10.2 28.8 11.4-2.4 7.2-26.4 1.8-32.4l-12 3.6m82.2 36c7.2-6.1 9.6-37.9-3.6-39.7-16.2 3-12.6 39.1 3.6 39.7m95.5-22.2c-10.8 22.2 8.4 39.6 25.8 44.4 28.2 0 48.1-42.1 20.4-58.2h-3.5c4.1 48.6-29.5 31.8-42.7 13.8m124.9 52.8c-28.2 27.6-57 74.4-109.3 52.8-16.8-6.6-28.8-26.5-43.2-30.6-18.6-5.4-40.2 2.3-55.8 1.8-1.8 31.2 24.6 52.3 47.4 66.7 34.8 21.6 78.7 33 128.5 37.3-9.6 30.6-30.6 75.6-29.4 128.5 1.8 62.4 45.6 141.1 84.1 75.1 1.2 20.4 4.8 28.8 6.6 49.3-16.2 6-28.8 15-39 25.8-7.2-11.4-15.6-21-32.4-22.2-9.6 30 7.2 67.2 35.4 72.1 16.2 2.4 37.2-7.2 46.2-15.6 21.6-20.4 33.6-57.7 30.6-95.5-4.2-57.7-18-117.7-32.4-174.2-15-61.2-25.2-120.1-35.4-171.1h-1.9m-272 56.3c-8.4-1.2-12.6-7.8-23.4-6.6l-7.2 20.4c-6-5.4-12.6-9-22.2-10.2-3.6 4.8-.6 16.2-6.6 18.6-1.2-5.4-7.2-6.6-13.8-6.6 1.2 16.8 9 27 18.6 35.4 8.4-4.8 7.2-19.2 17.4-22.2 3 6 9 9.6 18.6 9.1l8.4-15.6c8.4.6 12 5.4 21 4.8 6.6-7.8.6-29.5 4.8-40.9-10.8-1.2-10.2 8.9-15.6 13.8m37.8 56.4h-16.8l-1.8 15c-7.2-2.4-11.4-7.8-22.2-6.6l-9 18.6-15 3.6c6 10.2 13.8 18 24 24 9-3.6 9.6-15 13.8-24 3.6 3.6 10.8 4.2 18.6 3.6l8.4-15.6c2.4 4.8 10.8 4.2 16.8 4.8 1.2-7.8 0-27.6-4.8-35.4-10.2-2.4-7.2 9-12 12m36 68.5c-3-4.8-9-6-17.4-5.4l-3 18.6c-6.6-4.8-12-10.8-24-10.2-1.8 7.2-2.4 15-1.8 24l-13.8-1.8c5.4 12 9 25.2 25.8 25.8l4.8-24c7.2 5.3 13.8 16.8 25.8 12l5.4-22.2c1.2 5.4 6 7.8 13.2 6.6 6-7.2 1.2-27.6 0-39-12-1.8-6.6 13.7-15 15.6m-136.9 16.8c10.2 37.9 54.6 75.1 78.6 95.5 1.8-4.2 9.6-1.8 8.4-8.4-30-32.4-60-65.4-78.6-109.3l-4.8-1.8c-6 4.8-6 15.6-3.6 24m198.2-15.7c-.6 30.6 15.6 43.8 25.8 63.7l6.6-1.8c1.8-14.5-.6-39.1 0-58.2-9.6-3.7-22.2-4.8-32.4-3.7m-211.4 31.3c-27.6 9.6-21 52.9-24 83.5 18.6 9.6 50.4 10.2 75.1 16.8 13.8 4.2 33 20.4 42.6 0-36.6-28.3-70.3-59.5-93.7-100.3m184.4 37.2c-4.2-3-7.2-6.6-15.6-4.8l-1.8 18.6c-6-3.6-9.6-9.6-20.4-8.4-2.4 6-1.8 15-5.4 20.4l-10.2-1.8c1.8 16.8 15 21.6 24 30.6 8.4-3.6 3-21 7.2-28.9 3.6 6 14.4 11.4 24 6.6-1.8-7.8-4.8-15.1-1.8-18.6 7.2 1.8 7.8 10.8 20.4 8.4 4.8-16.2-7.2-28.8-10.2-42.6-10.8-.5-10.8 10.3-10.2 20.5m20.4 96.1c-7.8-15.6-4.2-32.4 3-44.4l-3-3.6c-27.6 2.4-35.4 58.8 0 48m6.6-17.4l5.4 8.4c12-5.4 19.2-17.4 30.6-24-10.8-16.2-34.2 1.8-36 15.6m20.4 18.6c18-4.2 28.8 7.8 46.2 7.2 3.7-33-45-42.1-46.2-7.2m-75-6.6c1.2 20.4 34.2 43.8 42.6 13.7-16.2 5.5-28.2-28.1-42.6-13.7m-140 16.8c7.2 13.2 18 22.8 34.2 27.6 4.8-7.2-3-12.1-3.6-18.6 6-2.4 10.8-5.4 10.2-13.8-12.6-3.6-32.9-2.4-40.8 4.8m81.7 3.6c-1.2 10.8 4.2 15.6 5.4 24-3 4.2-9.6 4.2-8.4 12 4.2 9.6 12.6 15.6 22.2 20.4l8.4-5.4-6.6-13.2 10.2-8.4c-.6-10.2-7.2-13.8-10.2-21 2.4-4.8 10.2-5.4 10.2-13.2-10.8-4.8-21.6 3-31.2 4.8m138.7 0c5.4 16.2 12 22.8 13.8 40.9 26.5-4.3 10.8-52.9-13.8-40.9m-70.2 17.4v12c14.4 14.5 50.4 7.8 40.8-19.2-12.6 4.8-21.6 12.6-40.8 7.2m54.6-3.6c-.6 16.2-15.6 25.8-10.2 42.6 12-.6 15-10.2 24-13.8.6-12.6.6-25.2-8.4-28.8h-5.4m-145.3 61.3c-4.2 30 19.8 58.2 19.2 96l8.4 3.1c24-27 71.4-13.2 100.9 0 7.2 6 12 14.4 22.2 8.4-14.4-60.7-78.1-101-150.7-107.5" fill="none"/></svg>