<svg xmlns="http://www.w3.org/2000/svg" width="1000" height="1000" viewBox="0 0 1000 1000"><path clip-rule="evenodd" stroke="#f00" stroke-miterlimit="10" d="M10 492.2c3.1-10.9 4.2-23.8 6.2-35.2 13 9.3 22.8 22.8 47.1 21.7-7.8-40.3-15.6-80.7-11.9-133.5 1-18.1 7.8-34.7 5.7-50.7-2.1-19.7-19.2-37.8-21.2-61.1-3.1-30.6 7.2-52.8 19.7-78.2 40.9 9.3 59.5 40.9 95.7 54.9 19.7-28.5 30.6-66.2 62.7-82.3 19.7 8.8 33.1 42.5 54.8 47.1 18.1 3.6 58.5-9.8 80.3-16.1 126.3-33.1 302.3-7.8 415.7 29.5 46.1 15.1 95.3 37.3 123.2 66.8 19.7 20.7 25.3 52.8 68.9 48.6 19.2-23.8-2.1-55.4-27.5-50.7 25.4-25.9 58.5 5.7 60.6 33.1v4.2h-2c-5.7 30-24.4 47.1-52.8 54.9 7.2 103.5-7.8 191.5-43 256.8-33.6 61.6-82.3 113.4-99.9 192.1-4.2 18.7.5 46.1-4.2 68.3-10.3 8.3-29.5-.5-50.7 2.1-7.8-6.2 6.7-22.8-4.2-25.3-16 4.7-17.1 24.3-31.1 31.1-9.3-2.6-30.5 0-41.4 2.1h-2.1c-2.6-8.8 3.1-21.7 2.1-35.2h-39.3l-3.7-19.7c-10.8 0-9.3 11.9-17.6 14-11.4-2.1-33.6 1.5-49.2 2 14-15.5 23.3-57.5 4.2-72.5-82.3-10.8-122.7 37.8-141.3 97.9-13.5-1-21.2 3.6-33.1 3.6-1-8.8-3.1-16.5-2.1-27.4-13.4 4.7-17.6 22.2-35.2 27.4-16.1 5.2-39.4 2.6-59-1.5 3.1-13 17.6-14.5 14-33.6-44-1.1-92.7 2.6-133.1-2.1 13.5-22.2 46.1-43 31.1-82.3-36.2-17.1-67.8-38.9-82.3-78.2-25.4-16.6-58-25.4-66.8-58.5 2.6-10.4 16.1-8.8 16.1-21.8-29.6-18.7-53.9-32.7-53.4-78.8v-13.5m290.5-176.5c2.1-62.7-41.5-122.7-74.6-154.8h-6.2l-3.7 4.2c-16.5 30.5-58 65.2-42.9 107.6 16-27.4 24.8-62.6 52.8-78.6 34.2 38.8 59.5 88.5 50.7 165.1 17.6-7.3 22.8-22.8 23.9-43.5m66.2-137.2c.6 19.7 22.3 17.6 39.4 19.7 17.1 20.2 77.1 33.1 92.1 2.1-9.8-.5-18.1.5-25.3 2.1-1.6-5.2 8.3-8.3 2-11.9-7.8 3.7-18.1 2.1-23.8 0 7.2-3.6 16.5-4.7 17.6-13.4l-19.7-4.2c-.6-4.7 9.3 1 6.2-5.7-35.1-5.8-59.5 6.6-88.5 11.3m163.1-9.8v6.2c10.4 25.3 62.1 31.6 78.2 5.7-15.6-13.5-52.3-15.5-78.2-11.9m-460.8 11.9c-9.3 14-14.5 52.3-5.7 70.4 10.3-12.4 4.7-40.9 15.5-52.8 14 2.6 24.9 23.3 39.4 14-7.8-19.2-27.9-26.5-49.2-31.6m337.1 27.4c-12.4-4.6-34.2-5.7-48.7-11.9-16.5-6.7-26.4-25.3-45.6-11.3-1.5 15 14.5 23.8 23.8 31.1 31.6 25.3 57 54.9 90.1 76.6 8.8-9.8 10.3-23.8 17.6-33.6 9.8-13 27.5-17.1 35.2-31.1-27.4-3.7-47.6-10.5-72.4-19.8m266.6-7.8c-16.6 4.2-5.7 24.9-14 35.2 21.2 15.5 46.1 8.8 80.8 4.2 19.2-2.6 34.7-10.9 37.2-23.8-32.1-15.1-67.3-27-109.7-31.1-5.7 8.3 1.5 10.9 5.7 15.5m-54.9 19.7c-4.7-1-4.2-7.8-11.9-6.2l-3.6 11.9c-4.2 0-2.6-5.2-7.8-3.7-3.6 5.7-8.8 9.3-8.3 19.2l-7.8-5.7-7.8 13.5c-2.6-6.2-.5-17.1-4.1-23.3-9.3 1-7.2 13.4-13.5 17.6-3.6-2.6.5-13.4-5.7-13.4l-7.8 3.6c.6-6.2-3.6-6.7-2-13.5-7.8-2-8.8 3.1-11.9 5.7-3.7-3.7 0-14.5-7.8-13.5-24.8 37.8 18.1 65.2 15.6 105.6 7.8 9.3 14.5 19.7 23.8 27.5 30.6-6.2 25.9-34.7 38.8-60.6 10.9-21.7 31.1-27.4 33.6-49.2 1-10.9-.5-19.7-4.2-29.5h-5.7c1.2 6.2-3.5 6.7-1.9 14m-294.1 74.6c5.7-8.8-1-19.2 0-29.5 6.7-3.6 17.6-3.6 25.4-6.2-10.3-23.8-26.9-42-56.5-46.6 3.7 25.8 11 65.7 31.1 82.3m-235-49.2c7.2-4.2 13.5-8.8 17.6-15.5-3.7-5.2-5.7-11.4-15.6-9.9-5.1 7.2-3.5 15.6-2 25.4m709.2 11.9c4.2 3.6 16.1-.5 17.6 5.7v19.7c18.1-3.7 30-13.5 39.3-25.4-7.6-23.3-53.2-34.7-56.9 0m-579.8-17.6c-10.3 24.3-35.7 51.7-23.8 85.9 16.6-8.3 14-35.7 29.5-45 4.7 17.1 9.3 33.6 17.6 47.1 14-24.8-1.6-67.8-11.9-88h-11.4m409.5 97.8c56.5 6.7 63.7-83.3 17.6-97.8-10.4 15-31.1 19.7-33.1 43 5.7 1 22.2-1.6 23.3 9.8-43-4.7-37.3 41.4-7.8 45m-162.5-23.8c16.1 2.6 31.1-10.4 31.1-29-2.6-6.7-11.3-7.2-13.4-13.9l21.2-7.8-3.7-21.7c-49.2-12.5-73 67.8-35.2 72.4m215.3-56.4c1.6 17.6 7.8 31.1 7.8 50.7 33.1-12.4 60-31.6 80.3-57-30.6-6.6-61.2 2.6-88.1 6.3m-579.8 235c3.7-27.4-14.5-59-18.1-90.1-5.7-52.2 10.8-94.2 27.9-129.4h-4.1c-59.5 23.8-49.2 192.1-5.7 219.5m756.4-219.5l-6.2 4.2c-82.8 55.4-169.2 129.4-250.5 188-10.4 7.2-31.1 15.5-25.4 33.1 15.6-2 27.5-14.5 38.8-23.3 73-55.4 146.5-111.8 218-166.7 10.4-8.3 31.1-16.6 29-35.2h-3.7m-151.2 52.7c7.2 1.6 19.7-2.6 23.8 2.1-4.2 7.8-10.4 19.2-6.2 29.5 26.9-9.3 46.6-25.9 61.1-47.1-5.7-3.6-16.6-1.6-21.7-6.2.5-9.3 10.3-18.6 4.1-29-24.3 12.9-52.3 22.3-61.1 50.7m-327.2-25.3c-7.2 4.2-19.2 4.2-29.5 5.7 6.2 26.4 32.1 33.6 49.2 49.2 9.3-6.2-1-26.4 2.1-31.6 8.3 2.6 18.6 2.6 29.5 2-9.8-23.8-25.9-40.9-51.3-48.6v23.3m-64.7 11.9c34.7 35.2 76.6 65.2 113.9 97.9 27.9 24.3 57.5 45 85.9 68.8 9.3 7.2 19.7 20.2 33.6 17.1-10.4-22.3-34.2-36.3-53.4-50.8-19.7-15.5-38.8-32.1-58.5-47.1-39.9-30.6-75.6-66.3-117.5-94.3h-4.2v8.4m162.8 11.4c-2.1 21.7 22.2 32.6 37.3 45 12.4 10.9 34.2 34.7 51.2 33.6 11.9-1 27.4-18.1 37.3-25.8 12.9-9.3 25.3-18.1 29-33.1-16.6-5.7-21.2-18.1-36.8-13.5-12.9 3.7-23.3 29.5-33.6 29.5-5.7-.6-17.6-19.2-21.2-25.9-7.8-11.9-8.8-24.3-19.7-29.5-16.1 5.2-23.9 18.6-43.5 19.7m391.9 41.4c16.6-8.3 8.8-43.5 6.2-61.1-19.2 1.5-18.7 52.3-6.2 61.1m-36.8 19.6c17.6-3.1 19.7-43 11.4-59-11.9 10.4-15 39.9-11.4 59m-523.4 9.9c8.8-10.3 11.9-47.1 3.6-61.1-14.5 7.3-15.5 49.7-3.6 61.1m147-23.9l-16 4.2c8.3 19.2 27.9 37.3 47.1 39.3l4.2-18.1c9.8 0 21.2 1.6 23.3-5.7-15.6-22.2-35.2-40.3-60.6-52.8-5.2 9.9 2.5 21.8 2 33.1m156.9 19.7c6.2 5.2 19.2 4.2 23.3 11.9-1.5 7.2-2.6 14 2.1 19.7 18.1-11.9 35.2-24.9 50.7-39.4-8.3-8.3-19.2-22.2-9.8-37.2-26.4 10.9-49.7 24.8-66.3 45m-278.5-39.3c-2 18.6-14.5 57 4.2 66.8 11.4-12.9 6.7-43 11.4-62.6-4.2-2.1-7.8-5.2-15.6-4.2m468.5 54.9c14.5-1.6 16.6-44 5.7-52.8-8.3 11.4-5.2 33.6-5.7 52.8m-29.5 23.8c17.1-4.2 20.2-42 11.9-59-18.1 4.6-15 39.3-11.9 59m-405.9-2.1c7.2-11.4 9.3-39.9 0-51.2-26.4 1.5-13.4 45 0 51.2m17.6 23.3c16.6-1.6 21.7-58.5 0-56.5-.5 19.2-7.8 39.4 0 56.5m356.7 9.9c27.4 0 18.1-51.8 9.8-66.3-17.6 11.9-7.2 39.8-9.8 66.3m-207.6-23.4c-6.2-2.6-20.2-4.2-21.2 3.6 14 29.5 67.8 59 83.9 11.9l-13.5-9.8c-1.5-9.9 2.6-14 2.1-23.3-18.6 6.2-31.1 5.2-45.1-4.2-5.7 7.9 1.1 18.7-6.2 21.8m180.2 47.2c25.4-4.2 17.1-47.1 14-68.9-26.9 1.6-12.5 47.1-14 68.9m-301.8-11.9c6.7-10.9 10.3-40.9 0-50.7h-3.6c-1.6 13.9-6.8 42.3 3.6 50.7m-250.6-2.1c11.9-4.7 20.2-14 29.5-21.2 15.5-7.2 42.5-3.1 50.7-17.6-28.4-11.4-81.2 8.2-80.2 38.8m519.2 37.3c23.8-5.2 20.7-47.1 17.6-72.5-24.8 7.8-17.6 44-17.6 72.5m-250.5-13.5c15-3.1 8.3-44 1.5-54.9-5.7 11.9-4.6 40.4-1.5 54.9m25.3 11.4c10.9-9.8 9.8-44-2.1-52.8h-4.1c.1 13.9-9.3 48.1 6.2 52.8m199.9 33.6c21.7-9.3 13.9-47.1 15.5-76.6-23.3 7.3-19.2 53.8-15.5 76.6m-484-64.7c.5 6.7 5.7 8.3 9.8 11.9 3.1-15.1 40.9 4.1 40.9-14-14.5-9.8-38.8-8.8-50.7 2.1m130.9 39.4c11.9-11.4 15.1-31.1 21.7-47.1-26.9-9.3-44.5 34.1-21.7 47.1m184.3 28.9c6.2-14.5 4.7-37.2 6.2-56.4-4.7-3.1-9.8-5.2-17.6-4.2 3.6 20.3-9.8 58.1 11.4 60.6m141.3 12c16.1-9.8 4.2-48.1 7.8-70.4-24.3 4.6-19.7 55.4-7.8 70.4m-303.9-33.2c17.1 1.6 32.6-14.5 57-11.9-1-34.2-63.7-19.7-57 11.9m413.7 23.3c-5.7-15.5-5.7-37.2-5.7-52.8-27.5-1-32.6 62.1 5.7 52.8m-444.7-13.5c-5.2-14.5-18.1-21.2-21.7-37.2-35.8 6.7 4.6 59 21.7 37.2m468 3.7c14-11.4 32.6-18.1 45.1-31.1-18.2-25.4-54.4 5.2-45.1 31.1m-252.7 33.6c16.6-9.8 8.8-43.5 11.9-66.8-26.4-16.5-15.5 53.4-11.9 66.8m-458.6-19.6c10.3-13.5-5.2-30.1-7.8-43.5h-15.6c-.4 22.8 11 33.6 23.4 43.5m27.4-9.9c5.2-10.9-1-28-15.5-25.4 2.6 11 3.6 23.9 15.5 25.4m519.3-21.7c-18.1 11.3-9.3 45-9.8 70.4 6.7 5.7 6.2-8.3 16.1-5.7-.1-25.4 6.6-48.1-6.3-64.7m-54.9 76.6c6.7-19.2 6.7-44.5 7.8-68.9-4.7-2.1-9.3-4.7-17.6-3.7 4.1 23.4-5.2 60.2 9.8 72.6m243.3-51.3c12.4 6.7 33.1 4.7 45 11.9 23.8-27.9-38.3-37.2-45-11.9m-436.9-1.5c22.3 4.6 31.1 23.3 40.9 40.9 33.6-23.3-18.1-75.1-40.9-40.9m211.2 64.7c27.5-3.1 6.7-52.3 11.9-70.9h-9.8c-2.1 22.2-2.1 46.1-2.1 70.9m-411.6-29.5c-11.9 5.7-35.7-1-36.8 15.6 10.9 3.1 26.4 2.1 38.9 4.1 7.8 17.6 19.2 32.1 37.2 38.9 1.6-17.1-6.7-24.4-15.5-31.1-10.9-22.8 6.2-38.8 7.8-61.1-5.7 0-8.3-3.6-13.5-3.6-6.2 11.9-8.2 28.4-18.1 37.2m106.1-27.4c-2.6 33.1 53.8 39.8 52.8 3.6-19.1 1-39.3-5.7-52.8-3.6m474.3 17.6c-9.3-8.3-21.2-14-35.2-17.6-8.9 22.2 23.8 35.7 35.2 17.6m-386.2 54.8c36.7 3.7 38.8-59 2.1-57 1 14.6 3.5 38.9-2.1 57m470.5 3.7c25.9-7.8 25.4-58-7.8-56.5-2 15.5 9.9 34.2 7.8 56.5m-531.1-23.3c4.2 24.8 34.2 12.9 45 2.1.5-7.8 1.1-20.7-2.1-29.5-16.5 7.2-21.1 25.8-42.9 27.4m411.5-2.1c9.8 24.3 51.8 14 57-9.8-15.6-1.1-40.9 4.6-57 9.8m78.2-7.7c-2.1 18.1-14.5 25.9-17.6 43 24.9 8.3 38.9-20.2 27.5-43h-9.9m-676.1 47c26.4 10.9 41.4 33.1 56.9 54.9 17.6 12.4 35.2 16.6 60.6 21.2 41.9 8.3 69.9 30.6 94.2 57 6.7-7.8 0-20.2-4.2-25.4-22.8-29-94.2-42.4-135.1-52.8-20.7-24.8-32.6-59-72.5-64.7v9.8m551 82.4c11.9 8.3 55.9 23.8 66.7 23.3 35.7-.5 74-31.6 76.1-66.2h-17.6l-3.7 11.4c-4.1-.6-3.6-5.2-9.8-3.7-2.6 5.2-3.1 12.9-7.8 15.6-4.7-4.7-2.6-16.1-14-14-4.7 2.1 0 13.4-7.8 11.9l-4.2-13.5c-7.8 4.2-9.3 14-13.4 21.2-2.1-6.2-3.7-13.5-6.2-19.7-11.4-2.1-7.2 12.4-15.6 14-.5-7.2-4.7-11.4-7.8-15.6-7.2-2.1-3.1 7.2-9.8 5.7l-5.7-7.8c-5.2 2.1-4.7 9.8-9.8 11.9-.6-8.8-4.2-14.5-9.8-17.6-6.2 6.7-9.9.5-17.6 0 1.2 14.6 3.8 33.2 17.8 43.1m-147.1-37.3c-11.4-1-9.8 10.9-17.6 13.5.5-6.2-2.6-9.3-7.8-9.8-4.7 5.2-3.7 15.5-11.9 16l-4.2-9.8c-6.7 2.1-4.7 13-11.4 15.6-4.2-3.1-1-13.5-7.8-13.5-6.2 3.7-5.2 14.5-9.8 19.2-6.2-4.2-6.7-14.5-14-17.6-6.2 2.6-3.1 14-9.8 16-1.1-6.2-.5-13.9-7.8-13.9-5.7 1.5-3.6 10.8-9.8 11.9-2.6-2.6-2.1-8.3-2.1-14-4.2 0-5.7 3.6-11.4 2.1-3.7-5.2-4.7-14-11.9-15.6l-7.8 11.9c-4.2-4.2-4.2-12.9-14-11.9l-5.7 7.8c-2-6.7-5.2-11.3-13.4-11.9-6.6 86.8 179.3 104.9 178.2 4m111.8 70.4v6.2c9.8 14 30.6 22.8 43 35.2 5.7 5.7 8.3 19.7 19.7 13.4 2.1-32-31.6-55.9-62.7-54.8" fill="none"/></svg>