<svg xmlns="http://www.w3.org/2000/svg" width="1000" height="1000" viewBox="0 0 1000 1000"><path clip-rule="evenodd" stroke="#f00" stroke-miterlimit="10" d="M370.8 51.9h21.4c26.4 5.6 63 .5 82.1 13.5-6.2 63.6-36 113.1-43.3 168.9 48.4-15.2 92.8-43.4 147.4-59.1 16.3-4.5 34.9-7.3 53-11.8 34.9-8.4 78.2-21.4 131.1-17.4 51.8 3.9 100.2 16.3 150.9 25.3-19.2 54.1-53.5 96.8-86.1 137.4-24.2 30.9-51.2 60.8-80.5 88.4-9 8.5-25.9 12.4-27.6 27.6 42.8 15.8 93.5 19.1 131.7 46.7 12.9 9.6 40.5 41.1 50.6 56.8 14.7 22 29.3 51.2 35.5 70.9 18.6 58.5-23.6 105.8-29.3 162.7 45.6 4.5 50.1-49.5 58.5-88.4 14 8.4 21.9 22.5 23.6 43.3v11.8c-3.9 29.3-14.7 72.6-35.4 87.8-7.3 5.7-41.7 19.1-54.6 22-11.3 1.7-23.1-1.7-35.5 1.7-23.1 31-36.6 72.1-62.5 100.2-71.5 3.9-150.3 1.1-219.5 7.9h-11.8c-63-12.9-141.3-10.7-209.9-18 1.6-11.8 8.4-19.1 10.1-31-110.3-5.6-227.9-3.9-339.4-7.9 7.3-69.8 116-38.8 149.2-82.8-27.1-2.2-56.9-7.9-84.5-15.8-38.8-10.7-80-16.9-86.1-58.5v-72.6c10.1-52.9 14-126.7 42.8-168.3 14.1-20.8 42.3-32.6 47.3-55.2 5.1-23.6-6.2-41.7-7.9-60.8-13.4-131.1 33.9-245.9 129.5-289.8 12.9-6.2 31-10.1 46.7-15.8 29.9-10.1 59.2-19.7 102.5-19.7m-18 100.2c6.2 1.1 16.9-2.8 19.7 1.7-9 6.7-18.6 13-23.6 23.6 7.9 6.2 26.4-1.7 29.3 0-9.5 10.7-23.1 16.9-27 33.2 2.8 2.8 9.6 1.7 15.8 2.2-6.2 10.1-18.6 14.1-23.6 25.3l1.7 7.9 14 1.7c-10.7 6.7-19.7 14.6-25.9 25.9.5 4.5 6.8 3.4 6.2 9.6-9 5.1-17.4 10.1-19.7 21.4 68.1-3.4 79.3-81 111.5-127.2 6.7-29.8 15.8-57.4 15.8-94-43.9-3.9-82.8-9-131.2-3.9-43.3 3.9-72 20.2-100.2 41.1-29.9 22-56.9 51.2-74.3 88.4-14.6 29.8-34.3 80 4 82.2 6.2-16.3-4-43.3 0-56.8 5.6 12.4 5.6 30.9 19.7 35.5 7.9-14.6 1.7-43.9 7.9-60.8 4 7.3 2.3 21.4 11.8 23.1 7.9-8.4 3.4-30.4 13.5-37.2.6 6.8 1.7 12.9 9.6 11.8 8.4-3.4 5.1-18.6 11.8-23.6.6 5.6 3.4 8.5 10.1 7.9 10.7-14 16.4-32.6 27.1-46.7l7.9 7.9c12.9-11.8 20.8-28.2 33.8-39.4 0 9.6-1.7 21.4 7.9 21.4 14-10.7 27-32.6 38.8-38.8-5.1 12.9-11.8 24.2-13.6 41.1 32.7-6.7 46.7-32.1 78.2-39.4-17.6 19.5-43.5 30.7-57 54.9m-74.3 33.2c-33.8 22.5-63 55.2-78.8 94 20.3-3.4 29.8-24.8 43.3-37.1 14.1-12.9 29.9-24.8 45.1-31.5 3.9 46.1-25.3 74.9-29.3 119.9 38.8-24.2 73.7-96.3 60.8-159.3-14.7 1.1-30.4 6.7-41.1 14m452.6 58.6c18 7.9 31-8.4 47.3-13.5 27-9 59.1-18.6 82.1-37.2-15.1-8.4-39.9-8.4-60.8-11.8v-7.9c-6.8-3.4-1.1 6.7-5.6 5.6-109.8-16.9-203.2 11.8-272.5 47.3-12.3 22.5-31.5 37.7-31.5 72.6 21.4-8.4 33.2-25.9 50.7-37.1 0 6.2-4 8.4-3.4 15.2 25.3-5 34.9-25.9 54.6-37.1-.5 11.3-11.2 12.4-9.5 25.9 27-6.7 37.7-28.7 58.5-41.7-5.6 9.6-11.8 18-13.5 31.5 32.1-3.4 39.4-32.6 70.4-37.1-5.6 7.3-13.5 12.4-15.8 23.6 28.2 7.3 49.5-23.1 76.5-29.3-6.7 12.4-23.6 15.2-27.5 31m59.1-9.6c-20.2 10.1-43.9 18-51.2 35.5 33.2 9 81.1 3.4 100.2-14.1 5.1-18 21.4-25.9 23.6-46.7-22-2.8-48.9 13.5-72.6 25.3m-386.2 107.5c22.5-10.7 33.8-33.8 50.7-50.7v15.8c26.4-10.7 34.3-40.5 43.3-68.7-50.1 14.7-92.8 46.8-94 103.6m304-34.9c8.4 1.1 21.9-2.8 27 1.7-16.9 11.2-45 10.7-54.6 29.3 9 2.8 18 5.6 25.3 10.1-18 5.6-40.6 6.7-52.9 17.4-4.5 12.9 14 2.8 13.5 11.8-19.7.6-37.1 3.4-50.7 10.1.6 8.5 12.4 6.7 15.8 13.5-9.6 9.6-38.8-.6-43.4 13.5 2.8 8.4 18.6 3.9 19.7 14.1-20.2 3.4-40.5 7.3-64.7 7.9l-2.3 11.2c-16.9 3.9-36 5.7-53 10.1-1.1 10.7 10.8 9.6 11.8 17.5-14 2.8-52.3-2.8-58.6 14-14 2.8-33.7 0-47.3 3.9.6 13-12.3 11.8-21.4 15.2-1.7 10.1 4 11.8 5.6 18 28.7-.6 65.3-5.1 88.4-10.1 69.3-14.1 120.4-38.8 178.5-76 43.3-28.2 88.9-60.8 113.7-88.4l6.2-14.1c16.3-20.2 42.8-28.1 46.7-54.6l-4-3.9c-37.4 5.3-75.7 9.2-99.3 27.8m-337.2 52.9c21.4-15.8 32.7-41.7 41.1-70.9-30.4 5.1-55.2 41.1-41.1 70.9m98-31.5c-13.5 5.6-30.4 11.2-37.7 23.6 26.4-2.8 54.6-15.2 86.7-21.4 32.1-6.8 67-9 95.7-15.8 11.8-2.8 29.3-6.7 33.8-19.7-63.7-6.7-129 11.4-178.5 33.3m-329.3 11.8c-3.4-14.6-2.3-33.2-18-35.5-8.5 14.7-.6 36.1 18 35.5m374.3 58.6c-32.6 17.4-69.8 21.4-96.3 49 50.7 1.1 87.3-28.7 131.2-41.1 32.6-32.6 85-45.6 106.4-90.1-63.1 0-94 56.8-141.3 82.2m-243.2-41.1c23.6-4.5 59.1-13.5 66.5-41.1-26.5 7.9-66.5 13-66.5 41.1m50.7 51.2c25.3-13.5 32.6-45 37.7-78.2-33.8 5-37.1 39.9-37.7 78.2m-184.1-25.3c13.5-10.7.5-37.7-13.5-39.4h-4c.1 18.6 5.7 32.1 17.5 39.4m96.3 15.2c19.1 5.6 43.3-.6 42.8-21.4-20.3 0-38.3 12.4-42.8 21.4m46.7 31.5c5.1-1.7 12.4-2.3 19.7-1.7 4-12.9 7.3-25.3 7.9-41.1-18.6-1.1-32.1 19.2-27.6 42.8m-148.6-1.7c24.7-3.4 14-41.7-10.1-39.4 3.9 12.4.5 32.7 10.1 39.4m79.9-3.9c6.8 17.4 21.4 7.3 35.5 3.9v-10.1c-12.4-1.7-28.7-3.4-35.5 6.2m86.7 172.2c-11.3-54.6-86.1-72.6-131.7-41.1-19.1 13.5-55.7 55.7-38.8 82.2 19.2-21.9 37.7-65.8 74.3-72.6 34.3-5.7 68.1 13.5 74.3 39.4 10.7 43.9-15.8 73.2-38.8 86.1-13.5 7.9-30.4 5.1-39.4 18 64.1 12.4 113.1-45.6 100.1-112m172.3 25.3c-5.6 26.5-18.6 45-17.5 63.1-15.2 17.4-23.6 41.7-27.6 70.4 18.6-2.8 33.8-9.6 47.3-17.5 0-5.6-4.5-6.2-4-11.8 5.6.6 5.6-4.5 11.9-3.9l-2.3-11.8c6.2-6.2 20.8-3.9 19.7-17.4l-7.9-3.9c2.3-7.9 14.7-6.2 15.8-15.8l-7.9-7.9c5.1-3.4 14.7-2.3 15.8-9.6.6-9-11.8-4.5-11.8-11.8 5.6-2.3 8.4-7.3 15.8-7.9 3.4-12.4-7.3-11.2-10.1-18l7.9-1.7c-1.1-7.3-4-13-7.9-17.4 5.1-1.7 11.2-2.3 11.8-7.9 1.1-6.2-5.7-4.5-4-11.8 2.8-6.7 12.4-6.2 10.1-17.4h-11.9c.6-3.9 5.7-3.9 4-10.1-47.8-4.7-39.9 34.7-47.2 70.1m227.4 10.2c-8.4-5.6-14-21.4-29.3-14.1-4 39.4 16.9 53.5 33.2 72.6l6.2-1.7c15.2-11.3 6.2-43.9-6.2-51.2 6.2 1.7 7.3-1.7 11.8-1.7 1.2-25.3-1.1-47.3-5.6-67l-7.9-1.7c-19.7 16.4-12.4 44-2.2 64.8m35.4-64.8c-20.3.6-5.7 34.9-10.1 54.6 23.1 4 32.6-55.1 10.1-54.6m-366.4 37.2c-5.6 41.1-12.9 65.8-27.6 96.3-8.4 16.3-15.8 35.5-21.9 42.8-12.9 18.6-28.7 18.6-23.1 41.7 18-5.7 43.4-3.4 62.5-7.9.6-11.3-8.4-12.9-11.8-19.7 5.6-2.8 12.3-4.5 19.7-6.2 2.3-7.9-3.9-7.3-3.9-13.5l15.8-3.9c3.9-6.7-.6-10.7-4-15.8 7.3-2.2 14.7-5.1 21.4-7.9 2.8-8.4-12.9-9-7.9-13.5 6.2 0 11.8-3.4 18-7.9.5-9-8.4-9-10.1-15.8l10.1-1.7c-.5-6.2-4.5-9-6.2-14 4.5-4.5 13-3.9 11.8-13.5l-9.5-7.9c9.5 1.7 11.2-3.9 17.4-6.2 0-11.2-14.6-7.3-19.7-13.5.6-6.7 6.7-7.9 11.8-9.6 1.2-7.9-3.9-9.6-5.6-14.1 8.4-3.9 18.6-6.2 23.6-13.5-29.3-7.3-57.5-2.3-60.8 25.3m419.3 21.4c10.1 3.4 23.6-3.9 33.2-7.9v-29.3c-23 .6-36.5 16.9-33.2 37.2m-188.5-11.3c3.4 10.1 19.1 15.2 33.8 13.5 11.2-34.3-42.8-47.2-33.8-13.5m125.5 68.1c23.1-3.9 42.8-32.1 33.8-64.7-25.9 7.3-30.4 34.9-33.8 64.7m-572.5 0c30.4 3.9 53.5-19.7 33.8-42.8-27.6-9.5-41.7 17.5-33.8 42.8m604-7.8c19.7 23.1 65.8 9 67-21.4-24.8-2.9-58.5-1.7-67 21.4m-127.2-15.2c-3.4 6.2 1.1 8.5 0 17.5 15.2 6.8 24.7 19.7 45 21.4 2.3-22.6-14.6-42.3-45-38.9m192 23c14 2.8 47.8 17.4 56.8 0-8.5-16.3-52.4-29.2-56.8 0m-255 11.9c12.4 6.2 42.2 5.6 55.2 0 1.7-14.6-8.4-18-11.8-27-24.3-1.2-40.1 6.7-43.4 27m241.4 43.3c-2.8-27-17.4-42.8-48.9-41.1-1.7 31 25.3 40.5 48.9 41.1m13.6-37.1c-1.2 16.3 3.9 25.9 11.8 33.2 15.8-8.4 35.5-12.9 47.3-25.3-7.9-13.6-42.3-10.2-59.1-7.9m-206 45c30.4 3.4 62.5-8.4 72.6-31.5-26.5-25.4-71 1.1-72.6 31.5m-58.6-31.5c6.8 15.8 23.1 21.4 37.1 29.3 13.6-5.6 20.3-17.5 29.3-27-10.7-13.6-51.2-9.1-66.4-2.3m174.5 0c-3.9 13-12.9 19.7-10.1 39.4 10.7 14.1 24.2 25.3 37.7 37.2 18-27.1 2.2-73.2-27.6-76.6m-19.7 3.9l-19.7 6.2c-10.1 12.4-20.3 43.9-9.6 64.7 21.4-9.5 42.2-46.1 29.3-70.9m-664.8 11.8c-4.5 7.9-5 20.8 4 23.6 16.8-1 13.4-32-4-23.6m576.4 72.6l27.5-2.3c8.4-5.1 5.6-21.4 9.6-31-18.5-2.7-42.1 5.8-37.1 33.3m170.6-33.2c-5.6 16.3 4.5 33.2 19.7 34.9l7.9-5.6c1.1-18.6-13-32.6-27.6-29.3m-86.2 60.8c2.8-14.6 2.8-32.6 4-49-28.1.1-34.4 45.7-4 49m17.5-43.3c-7.9 15.2-2.8 46.1 2.3 60.8 16.3-9.6 24.2-26.5 29.3-47.3-8-6.8-14.2-15.2-31.6-13.5m-246.6 7.9c-12.4 6.8-33.2 43.9-39.4 54.6 15.2 1.1 29.8-13.5 43.4-23.1 10.7-8.4 28.1-15.8 27-29.8-10.1-7.4-23.1-6.3-31-1.7m113.8 33.2c-19.7 6.2-55.8 9.6-68.7 23.7 20.3 8.4 51.2-1.1 76-3.9 15.8-1.7 33.2 3.9 41.7-7.9-7.9-12.5-29.4-11.4-49-11.9" fill="none"/></svg>