<svg xmlns="http://www.w3.org/2000/svg" width="1000" height="1000" viewBox="0 0 1000 1000"><path clip-rule="evenodd" stroke="#f00" stroke-miterlimit="10" d="M243.5 10h15.4v1.9c38.8-7.4 60.3 38.1 81.9 38.1 25.3-.6 38.2-34.5 81.9-22.1 14.2 3.1 20.3 26.5 39.4 27.7 12.3 1.3 20.3-8.6 32-11.7 68.4-19.7 132.4 4.9 165.1 45.6-73.3 15.4-89.3 96.1-150.9 129.4-14.2 8-41.3 19.6-59.8 24-29.6 6.8-61 2.5-81.9 17.8-52.4 38.8-19.1 170-41.9 248.9 16.6 11 35.1 19.6 59.8 22.1 46.2-119.5 109-258 237.2-302.4 54.8-19 128.7-16 187.2 0 120.1 56.1 180.5 172.5 189.1 340v26.5h-1.8c-1.2 128.1-64.1 214.9-143.5 274.7-63.5 47.5-140.5 96.7-250.7 85.6.6-16 26.5-25.3 33.2-46.2 12.3-35.1-4.9-69-31.4-81.3-103.5-13.5-147.2 83.2-105.9 161.4-45-30.8-140.5-32.6-197.1-9.8 10.5-18.5 58.5-75.2 20.4-101.7-20.4-14.2-84.4 0-115.8-8-99.9-27.1-199.7-108.4-203.4-239v-14.2c17.9-37.5 3.7-105.3 22.2-151.5 8.6-21.5 25.9-41.9 37.6-59.7 27.7-41.8 46.2-70.8 75.8-115.2 13.5-19.7 34.5-43.8 27.7-67.8-7.4-28.3-56-27.1-81.3-38.2 18.5-24.7 46.8-40 75.8-55.5-16.1-75.6 27-108.9 83.7-119.4m-10.5 24.1c-14.2 1.8-37 12.9-45.6 24-24 29.6-8.6 83.8 25.9 87.5 16 1.8 28.3-10.5 43.7-12.3 21.6-2.5 37.6 1.2 46.2 12.3 17.9 24 7.4 55.4-8 67.8-29 21.5-53-8.6-88.1 3.7-4.3 7.4-9.9 20.9-5.5 30.1 11.7 10.5 30.2 14.8 45.6 21.6 6.1 13.6 17.2 37 37.6 38.2 33.9 1.9 46.8-41.2 62.2-57.9 17.8-19.7 44.9-27.7 73.3-30.1 12.3-.7 26.5 3.1 41.9 0 18.5-3.1 59.8-28.3 69.6-39.4 28.3-31.4 40.7-75.8 72.1-93.6-4.9-9.2-14.8-19.1-22.2-22.2-48-20.3-106.5 13-137.3 27.7-17.2-54.8-83.8-42.5-111.5-3.7-24.1-26.7-51.2-61.8-99.9-53.7m70.2 157c8.6-38.2-40.6-75.2-62.2-32 19.7 2.4 41.3 2.4 38.2 28.3-6.8.6-6.1 8.6-12.3 9.8-2.5-1.9-16.6-3.7-23.4 0l-2.4 9.8c16.5 20.5 57.8 2.6 62.1-15.9m-177.4-19.7c7.4 5.5 28.3-1.9 35.7 3.7-3.7 3.7-11.7 3.1-9.9 12.4 14.2 19.6 38.8 12.9 41.9-14.2-10.4-16.1-58.5-29.6-67.7-1.9m51.8 89.3c-17.8 33.3-53 69.6-85.6 115.8-28.4 39.5-61 88.1-66 125.7-10.5 79.5 73.9 20.9 81.9-10.5 6.2-24.6-6.2-55.4 16-69.6 8.6 11.7 11.1 29.5 19.7 41.9 12.9 6.7 32.7 1.8 41.9-5.5 39.4-35.2 0-126.9 16-181.7-6.7-6.9-11.6-15.5-23.9-16.1m613.4 80.1c-10.5-41.8-65.9-62.2-111.5-57.9-96.7 9.2-174.3 89.3-211.3 165.1-11.7 24-32.6 89.3-14.2 97.9 24 11.1 28.3-49.9 33.9-67.8 17.8-54.2 85-134.9 135.5-153.3 53-19.1 104.1-13 137.3 24 .6 14.8 6.1 25.3 17.9 29.5 11.8-12.9 17.4-17.8 12.4-37.5m-559.8-43.7l-3.7 5.5c-6.8 52.3 7.4 122.6 11.7 175.5 1.2 16.6 12.9 25.3 16 37.6 17.9-3.1 19.7-22.8 27.7-35.8 1.2 13-2.5 17.2 0 24.1 24-9.9 31.4-51.1 33.9-85.6 1.8-31.4 1.2-66.6-6.2-91.8-33.3 21.6-9.2 101.1-25.9 139.2 3.7-40.6 1.8-85.6 2.5-129.3-14.8-16.7-36.4-27.7-56-39.4m426.2 29.5c-40.1 6.1-88.7 41.9-113.4 73.9-25.9 33.3-57.3 88.7-49.9 137.3 10.5-1.8 16.6-8.6 25.9-12.3 37-74.5 75.8-147.2 175-158.9 6.8-1.8 6.1-9.8 10.5-14.2 6.2 14.2 27.7 30.8 41.3 14.2 2.4-47.4-54.9-44.9-89.4-40m-119.5 199c35.7-1.2 55.4-35.7 83.8-53.6 28.9-17.8 62.8-20.9 95.4-37.6 1.9-13.6 1.2-28.3 9.9-33.9-11.1 49.9 66.5 49.9 43.7 1.9-98.5-61.6-223.6 22.2-232.8 123.2m322.7-37.6c-7.4-11.1-24-14.2-27.7-27.7-8.6-30.1 8-67.1-22.2-70.2-6.8 0-11.1 3.1-16 4.3-.6 17.2 3.7 38.8 0 61.6 16 16 28.9 34.5 30.2 65.9-25.9 17.8-12.3 48.1-12.3 85.6l-17.8 17.8c15.4 48.1 6.8 80.1-33.9 87.5-4.9 29.5-8 58.5-35.7 64-12.9 2.5-27.7-4.3-41.9-1.8-9.3 1.2-17.9 7.4-25.9 9.8-6.8 1.2-16-3.1-17.9 5.5 1.8 28.3 34.5 11.1 49.9 12.3 10.5.7 16.6 8.6 25.9 9.9 47.4 8 54.2-30.2 69.6-57.9 40 1.9 38.8-41.2 53.6-67.7 5.5-9.3 16-13 17.8-19.7 8-27.7-4.3-51.1-9.9-73.9 20.4-23.4 37-70.8 14.2-105.3m-214.9-16c-39.4 19.7-85 47.5-59.8 81.9 43.7-17.8 88.1-35.7 149.1-35.7 9.3-5.5 18.5-21.6 27.7-20.4-1.8 7.4-6.8 11.8-5.5 22.2 6.1 19.1 35.7 18.5 49.3 5.5 15.9-89.8-98-85.6-160.8-53.5m-466.3 85.6c17.2-20.9 38.8-59.1 32-91.8-31.4 9.9-69.6 59.8-32 91.8m-33.9-75.7c-21.6-6.8-40.7 51.1-40 72 .6 11.7 5.5 30.2 18.4 33.9 17.9-23.4 41.3-75.8 21.6-105.9m655.4 89.8c-19.7-25.3-57.9-50.5-107.8-41.8-35.7 6.1-105.3 26.5-97.3 61.6 18.5 7.4 31.4-7.4 53.6-8 30.8-1.2 67.7 14.8 91.8 9.9 8.6-1.3 11.1-11.7 19.7-9.9-5.5 21.6 4.9 31.4 25.9 32.1 12.3-11.2 17.2-19.8 14.1-43.9m-535.9-15.9l4.3 11.7c16-1.3 36.4-4.9 31.4-21.6-16-1.2-26.4 3.7-35.7 9.9m-193.4 65.9c18.5-7.4 27.1-40.6 18.5-62.2-29-1.3-30.8 45.5-18.5 62.2m104.1-32c-4.9-6.2-8-14.2-10.5-22.2-26.5 6.1-23.4 41.8-43.7 54.2-6.8-3.1-4.9-14.8-13.6-16-23.4 10.5-28.3 39.4-46.2 55.5-12.3-3.1-8.6-23.5-25.9-21.6-5.5 27.7 12.9 48.1 28.3 61.6 15.4-16.6 26.5-38.2 41.3-56.1-1.9 12.3 6.1 14.2 14.1 16 17.9-12.4 18.5-41.9 40.1-51.8 3.1 5.5 4.9 11.8 11.7 14.2 20.3-12.3 38.8-26.5 40-57.9-19 1.3-22.7 17.2-35.6 24.1m236.5-11.8c4.9 5.5 11.7-3.1 20.3 0l-2.5-10.4c-7.9 1.2-13.4 4.9-17.8 10.4m-378.2-4.3c-4.9 20.9 5.5 43.7 22.2 49.9 8-10.4-1.2-28.3 3.7-43.7-6.8-3.7-14.8-6.8-25.9-6.2m750.9 65.9c-28.3-42.5-124.4-49.3-175.5-33.9-6.1 8.6-14.8 15.4-11.7 33.9 59.7-6.7 94.8 11.1 127.5 31.4 9.3-1.9 15.4-6.8 24-9.8-5.5 8.6 0 20.3 0 30.1 10.5.6 15.4 6.8 25.9 8 16.6-14.1 23.4-40 9.8-59.7m-492.2 43.7c12.9-3.1 21-17.8 25.9-22.1 11.1-50.5-31.4-70.8-73.3-53.6-54.8 22.2-86.9 137.3-20.4 161.3 6.2-30.1-24-65.9-13.5-101.6 6.1-22.8 36.3-47.5 67.7-45.6 6.8 8 15.4 14.8 16 29.5-4.9 16.6-27.1 12.4-38.2 17.8-4.8 16.8 20.4 18.1 35.8 14.3m245.2-77.6c-12.9 38.8-36.4 77-67.8 111.5-38.8 43.1-105.3 83.8-187.2 65.3-12.3-2.5-28.9-21.5-37.6-3.7 12.9 18.4 42.5 19.7 65.3 27.7 97.3-6.2 165.1-59.1 209.4-125 13.6-21 32.6-48.7 24-75.8h-6.1m-45.6 16.1c-19.7-.6-20.3 10.4-28.3 21.5-10.5 15.4-41.9 36.4-33.9 57.9 27.7-19.7 54.8-40 67.8-73.9l-5.6-5.5m-67.8 9.8c-15.4 6.8-16.6 26.5-24 39.4-6.8 11.1-25.2 19.7-16 33.9 21.6-19.1 42.5-40 51.8-71.4l-11.8-1.9m-85.6 57.9c18.5-8 40.7-29.6 31.4-51.8-24 3.1-25.8 29.7-31.4 51.8m358.5 63.5c6.8 31.4 62.2 1.2 45.6-43.8-11.1-27.1-60.4-58.5-101.7-61.6-19.7-1.9-51.1-1.3-53.6 23.4 37 14.8 72 32 99.8 56.1 9.2 1.2 12.3-3.1 21.6-1.9-6.1 9.3-15.4 13-11.7 27.8m-22.2 9.8v-25.9c-11.1-25.9-70.2-63.4-97.3-45.6 11.7 21.6 23.4 43.8 59.7 41.9-37.5 30.9 12.4 61 37.6 29.6m-117.6 8c-4.3-7.4-9.9-13.6-23.4-11.7l-4.3 1.9c-4.3 6.1-4.3 16.6-3.7 27.7 22.2 17.2 56.6 3.7 59.7-21.5 2.5-21.6-12.3-45.6-30.2-54.2h-3.7c.1 21.5 24.1 42.4 5.6 57.8" fill="none"/></svg>